<?xml version="1.0" encoding="utf-8"?>
<!-- Generator: Adobe Illustrator 25.0.0, SVG Export Plug-In . SVG Version: 6.00 Build 0)  -->
<svg version="1.2" baseProfile="tiny" id="Слой_1"
	 xmlns="http://www.w3.org/2000/svg" xmlns:xlink="http://www.w3.org/1999/xlink" x="0px" y="0px" viewBox="0 0 512 512"
	 overflow="visible" xml:space="preserve">
<g>
	<path fill="#BBBBBB" d="M507.7,209c-4.5-24.6-12.7-48.4-24.2-70.6C456.8,86.4,411.7,44.2,358,21C329.2,8.4,298,1.4,266.7,0h-24.1
		c-23.3,1.6-46.4,5.7-68.5,13.2C126.8,29.1,84.4,59.3,53.8,98.8C21.1,140.4,2.2,192.4,0,245.3v21.4c1.1,23.1,5,46.1,12.2,68
		c10.8,33.5,28.7,64.7,52,91c31.2,35.3,72.4,61.8,117.6,75.4c19.7,6.1,40.2,9.3,60.8,10.8h27.6c12.6-1.2,25.3-2.4,37.7-5.1
		c51.5-10.5,99.3-37.5,135.1-75.9c27.1-28.9,47.4-64.2,58.6-102.2c5.8-19,8.7-38.8,10.3-58.6v-28.3
		C510.7,230.8,509.9,219.8,507.7,209z M320.2,237.9c-1.3,9.6-2.5,19.3-4,29c-0.4,3.4-3.4,6.3-6.9,6.1c-12.1,0.2-24.1-0.1-36.2,0.1
		c-0.2,34.3,0.2,68.5-0.4,102.8c0.6,4.1-2.7,8-6.8,8c-0.3,0-0.6,0-0.9,0c-5.8,0.1-11.6,0.1-17.4,0.1c-5.9,0-11.8-0.2-17.6-0.6
		c-1.6-0.5-3.6-1.6-3.7-3.5c-0.9-14.7-0.5-29.3-0.3-44c0-19.3,0-38.6,0.1-57.9c0.1-1.6-0.1-3.2-0.4-4.7c-9.2,0-18.5,0-27.7-0.1
		c-4.2,0.2-7.3-4.4-7-8.3c0.1-11.6,0-23.2,0.4-34.7c0-3.2,2.9-5.9,6-5.9c0.2,0,0.5,0,0.7,0c9.4,0,18.8,0.1,28.2,0.3
		c0-14.8-0.1-29.7,0.4-44.6c0.9-11.5,4.6-23.2,12.1-32.2c2.8-4.6,7.6-7.1,11.8-10.2c9.5-7,21.6-9.1,33.1-9.2c0.7,0,1.5,0,2.2,0
		c8.7,0,17.4-0.5,26-0.4c0.3,0,0.5,0,0.8,0c3.6,0,7.1,3.1,6.7,6.9c0,10,0.1,20,0,29.9c0.2,3.2-2.6,6.2-5.8,6.2c-0.2,0-0.4,0-0.7,0
		c-6.5,0-13.1,0-19.6,0.2c-5.8,0.5-12.3,1.8-16.2,6.6c-1.5,2.2-3.6,4.3-3.5,7.1c-0.8,11.3,0,22.6-0.5,33.9c-0.1,1.9-0.1,3.8,0.4,5.7
		c13.1-0.2,26.3-0.1,39.4-0.2c0,0,0.1,0,0.1,0c0,0,0,0,0.1,0c2.5-0.2,5.2,0.5,6.5,2.9C321.5,230.5,320.5,234.3,320.2,237.9z"/>
</g>
</svg>
