<?xml version="1.0" encoding="utf-8"?>
<!-- Generator: Adobe Illustrator 25.0.0, SVG Export Plug-In . SVG Version: 6.00 Build 0)  -->
<svg version="1.1" id="Слой_1" xmlns="http://www.w3.org/2000/svg" xmlns:xlink="http://www.w3.org/1999/xlink" x="0px" y="0px"
	 viewBox="0 0 512 512" style="enable-background:new 0 0 512 512;" xml:space="preserve">
<style type="text/css">
	.st0{fill:#334C8C;}
	.st1{fill:#FFFFFF;}
</style>
<g>
	<g id="_x23_334c8cff">
		<path class="st0" d="M242.6,0h24.1C298,1.4,329.2,8.4,358,21c53.7,23.2,98.8,65.4,125.5,117.4c11.5,22.2,19.7,46,24.2,70.6
			c2.2,10.8,3,21.8,4.2,32.8v28.3c-1.6,19.8-4.5,39.6-10.3,58.6c-11.2,38-31.5,73.3-58.6,102.2c-35.8,38.4-83.6,65.4-135.1,75.9
			c-12.4,2.7-25.1,3.9-37.7,5.1h-27.6c-20.6-1.5-41.1-4.7-60.8-10.8c-45.2-13.6-86.4-40.1-117.6-75.4c-23.3-26.3-41.2-57.5-52-91
			C5,312.8,1.1,289.8,0,266.7v-21.4c2.2-52.9,21.1-104.9,53.8-146.5c30.6-39.5,73-69.7,120.3-85.6C196.2,5.7,219.3,1.6,242.6,0
			 M250.6,137.6c-4.2,3.1-9,5.6-11.8,10.2c-7.5,9-11.2,20.7-12.1,32.2c-0.5,14.9-0.4,29.8-0.4,44.6c-9.5-0.2-18.9-0.3-28.4-0.3
			c-3.3-0.3-6.5,2.5-6.5,5.9c-0.4,11.5-0.3,23.1-0.4,34.7c-0.3,3.9,2.8,8.5,7,8.3c9.2,0.1,18.5,0.1,27.7,0.1
			c0.3,1.5,0.5,3.1,0.4,4.7c-0.1,19.3-0.1,38.6-0.1,57.9c-0.2,14.7-0.6,29.3,0.3,44c0.1,1.9,2.1,3,3.7,3.5c11.6,0.9,23.3,0.6,35,0.5
			c4.4,0.5,8.1-3.7,7.5-8c0.6-34.2,0.2-68.5,0.4-102.8c12.1-0.2,24.1,0,36.2-0.1c3.5,0.1,6.6-2.7,6.9-6.1c1.4-9.6,2.6-19.3,4-29
			c0.3-3.5,1.3-7.4-0.6-10.7c-1.2-2.3-4-3-6.5-2.9c-13.2,0.1-26.4,0-39.6,0.2c-0.4-1.9-0.5-3.8-0.4-5.7c0.5-11.3-0.3-22.6,0.5-33.9
			c-0.1-2.8,2-5,3.5-7.1c3.9-4.8,10.4-6.1,16.2-6.6c6.6-0.2,13.2-0.2,19.8-0.2c3.4,0.3,6.5-2.8,6.3-6.2c0.1-10,0.1-20,0-29.9
			c0.4-4-3.4-7.2-7.3-6.9c-8.7-0.1-17.4,0.4-26.1,0.4C273.7,128.2,260.7,130.2,250.6,137.6z"/>
	</g>
	<g id="_x23_ffffffff">
		<path class="st1" d="M250.6,137.6c10.1-7.4,23.2-9.4,35.4-9.2c8.7,0.1,17.4-0.4,26.1-0.4c3.8-0.3,7.7,2.9,7.3,6.9
			c0,10,0.1,20,0,29.9c0.2,3.4-2.9,6.5-6.3,6.2c-6.6,0-13.2,0-19.8,0.2c-5.8,0.5-12.3,1.8-16.2,6.6c-1.5,2.2-3.6,4.3-3.5,7.1
			c-0.8,11.3,0,22.6-0.5,33.9c-0.1,1.9-0.1,3.8,0.4,5.7c13.2-0.2,26.4-0.1,39.6-0.2c2.5-0.2,5.2,0.5,6.5,2.9
			c1.9,3.3,0.9,7.1,0.6,10.7c-1.3,9.6-2.5,19.3-4,29c-0.4,3.4-3.4,6.3-6.9,6.1c-12.1,0.2-24.1-0.1-36.2,0.1
			c-0.2,34.3,0.2,68.5-0.4,102.8c0.6,4.3-3.1,8.5-7.5,8c-11.7,0.1-23.4,0.4-35-0.5c-1.6-0.5-3.6-1.7-3.7-3.5
			c-0.8-14.7-0.5-29.3-0.3-44c0-19.3,0.1-38.6,0.1-57.9c0-1.6-0.1-3.1-0.4-4.7c-9.2,0-18.5,0-27.7-0.1c-4.2,0.2-7.4-4.3-7-8.3
			c0.1-11.5,0-23.1,0.4-34.7c-0.1-3.4,3.1-6.2,6.5-5.9c9.5,0,18.9,0.1,28.4,0.3c0-14.9-0.1-29.8,0.4-44.6
			c0.8-11.6,4.6-23.2,12.1-32.2C241.6,143.3,246.4,140.7,250.6,137.6z"/>
	</g>
</g>
</svg>
