<?xml version="1.0" encoding="utf-8"?>
<!-- Generator: Adobe Illustrator 25.0.0, SVG Export Plug-In . SVG Version: 6.00 Build 0)  -->
<svg version="1.1" id="Слой_1" xmlns="http://www.w3.org/2000/svg" xmlns:xlink="http://www.w3.org/1999/xlink" x="0px" y="0px"
	 viewBox="0 0 512 512" style="enable-background:new 0 0 512 512;" xml:space="preserve">
<style type="text/css">
	.st0{fill-rule:evenodd;clip-rule:evenodd;fill:#FFFFFF;}
	.st1{fill:url(#SVGID_1_);}
</style>
<path class="st0" d="M256,0c141.4,0,256,114.6,256,256S397.4,512,256,512S0,397.4,0,256S114.6,0,256,0z"/>
<g>
	
		<linearGradient id="SVGID_1_" gradientUnits="userSpaceOnUse" x1="0.6003" y1="511.1256" x2="0.3414" y2="512.0917" gradientTransform="matrix(512 0 0 -512 0 262144)">
		<stop  offset="0" style="stop-color:#DF993D"/>
		<stop  offset="0.24" style="stop-color:#CA574B"/>
		<stop  offset="0.43" style="stop-color:#C42B67"/>
		<stop  offset="0.75" style="stop-color:#B21B84"/>
		<stop  offset="1" style="stop-color:#7024C4"/>
	</linearGradient>
	<path class="st1" d="M256,0c141.4,0,256,114.6,256,256S397.4,512,256,512S0,397.4,0,256S114.6,0,256,0z"/>
	<g>
		<path class="st0" d="M322,174c8.8,0,16,7.2,16,16s-7.2,16-16,16s-16-7.2-16-16S313.2,174,322,174z"/>
		<path class="st0" d="M256,322c-36.5,0-66-29.5-66-66s29.5-66,66-66s66,29.5,66,66S292.5,322,256,322z M256,216
			c-22.1,0-40,17.9-40,40s17.9,40,40,40s40-17.9,40-40S278.1,216,256,216z"/>
		<path class="st0" d="M306,384H206c-43.1,0-78-34.9-78-78V206c0-43.1,34.9-78,78-78h100c43.1,0,78,34.9,78,78v100
			C384,349.1,349.1,384,306,384z M358,204c0-27.6-22.4-50-50-50H204c-27.6,0-50,22.4-50,50v104c0,27.6,22.4,50,50,50h104
			c27.6,0,50-22.4,50-50V204z"/>
	</g>
</g>
</svg>
