<?xml version="1.0" encoding="utf-8"?>
<!-- Generator: Adobe Illustrator 25.0.0, SVG Export Plug-In . SVG Version: 6.00 Build 0)  -->
<svg version="1.2" baseProfile="tiny" id="Слой_1"
	 xmlns="http://www.w3.org/2000/svg" xmlns:xlink="http://www.w3.org/1999/xlink" x="0px" y="0px" viewBox="0 0 512 512"
	 overflow="visible" xml:space="preserve">
<g>
	<path fill="#BBBBBB" d="M308,154H204c-27.6,0-50,22.4-50,50v104c0,27.6,22.4,50,50,50h104c27.6,0,50-22.4,50-50V204
		C358,176.4,335.6,154,308,154z M256,322c-36.5,0-66-29.5-66-66s29.5-66,66-66s66,29.5,66,66S292.5,322,256,322z M322,206
		c-8.8,0-16-7.2-16-16s7.2-16,16-16s16,7.2,16,16S330.8,206,322,206z"/>
	<path fill="#BBBBBB" d="M256,0C114.6,0,0,114.6,0,256s114.6,256,256,256s256-114.6,256-256S397.4,0,256,0z M384,306
		c0,43.1-34.9,78-78,78H206c-43.1,0-78-34.9-78-78V206c0-43.1,34.9-78,78-78h100c43.1,0,78,34.9,78,78V306z"/>
	<circle fill="#BBBBBB" cx="256" cy="256" r="40"/>
</g>
</svg>
