<?xml version="1.0" encoding="utf-8"?>
<!-- Generator: Adobe Illustrator 25.0.0, SVG Export Plug-In . SVG Version: 6.00 Build 0)  -->
<svg version="1.2" baseProfile="tiny" id="Слой_1"
	 xmlns="http://www.w3.org/2000/svg" xmlns:xlink="http://www.w3.org/1999/xlink" x="0px" y="0px" viewBox="0 0 512 512"
	 overflow="visible" xml:space="preserve">
<g>
	<path fill="#BBBBBB" d="M496.9,169.2c-7.9-21.1-17.9-41.6-31.2-59.9c-16.6-23.9-37.4-44.9-61.2-61.8
		c-23.4-17.2-50.2-29.4-77.9-37.8c-20.9-5.9-42.5-8.9-64.1-9.7h-13.1c-37.7,1-75.2,10.4-108.8,27.4C128,33.7,116,41.2,104.5,49.3
		c-20.8,15.6-39.7,34-55,55.1C18.8,146.3,1.3,197.5,0,249.4v13.1c0.9,25.6,5,51.1,13.5,75.3C23.9,369,40.6,398,62.1,422.9
		c18,21.4,40,39,63.6,53.6c16.6,9.5,34.2,17.4,52.4,23.4c23,7.6,47.3,11.2,71.5,12.1h13c54-1.3,107.4-20.2,150-53.4
		c26.3-20.4,48.8-45.8,65.2-74.8c21.9-37.4,33.5-80.6,34.2-124v-11.2C510.9,221.6,506.3,194.6,496.9,169.2z M345.3,271.4
		c11.3,11.7,23.9,22.4,32.9,36c3,4.3,7,9.4,5.2,15c-0.1,0.4-0.3,0.7-0.4,1.1c-2,4.4-7.5,6-12.2,5.9c-11.7,0.1-23.3,0.1-35-0.2
		c-6.3-0.2-12.6-2.6-17.4-6.8c-8.2-7.4-14.9-16.4-23.1-23.7c-2.3-2-5.2-4.1-8.5-3.4c-1.7,0.4-2.9,1.5-3.8,2.8
		c-0.5,0.8-0.9,1.8-1.2,2.7c-1.9,6.2-2.8,12.7-3.7,19.1c-0.1,1-0.4,2-0.8,2.9c-1.2,2.6-3.7,4.7-6.5,5.3c-23.2,2.9-48-1.9-66.9-16.3
		c-19.2-13.2-31.8-33.4-44.1-52.7c-11.7-18.1-20.8-37.7-29.6-57.3c-1.4-3.1-3.7-6.7-1.8-10.1c0,0,0,0,0,0c0-0.1,0-0.1,0.1-0.2
		c1-2.1,3.1-3.4,5.4-3.2c12.4-0.3,24.7,0.3,37,0.3c5.6-0.3,11.1,3.2,13,8.4c7,17.8,16.5,34.7,28.3,49.7c1.9,2.4,4.2,4.5,6.8,6.1
		c2,1.2,4.6,0.2,5.6-1.8c0.1-0.3,0.2-0.5,0.3-0.8c4.4-13.6,2.2-28,2.3-41.9c0.3-6.2-4.1-12.6-10.4-13.6c-1.8-0.5-5.1-0.7-4.4-3.4
		c0.1-0.4,0.3-0.8,0.5-1.1c0.9-1.8,2.2-3.2,3.8-4.3c2.8-2,6.4-3,9.7-3.3c7.9-0.5,15.8-0.2,23.7-0.1c7.2,0.1,14.6-0.5,21.6,1.8
		c4.6,1.8,6.7,6.9,6.8,11.6c0.8,15-1.5,30-0.4,45c0.6,3.6,0.4,7.8,3.2,10.6c2.4,2.2,5.7,0.2,7.4-1.8c4.7-5.1,9-10.5,13-16.1
		c7.7-11.1,14-23.2,18.9-35.8c0.4-1,0.8-2.1,1.3-3.1c1.4-3.1,3.5-5.9,7-6.1c11.7-0.5,23.4-0.2,35.1-0.3c5.2,0.1,10.5-0.5,15.6,1
		c3.1,0.9,5.1,4.4,4.1,7.5c-1.5,5.6-3.8,11.1-6.8,16.2c-1,1.7-2.1,3.4-3.2,5c-7.9,10.7-15.7,21.5-23.7,32.1c-2.6,3.4-5.3,7-7,10.9
		c-0.2,0.6-0.4,1.2-0.6,1.8C341.4,266,343.1,269.2,345.3,271.4z"/>
</g>
</svg>
