<?xml version="1.0" encoding="utf-8"?>
<!-- Generator: Adobe Illustrator 25.0.0, SVG Export Plug-In . SVG Version: 6.00 Build 0)  -->
<svg version="1.1" id="Слой_1" xmlns="http://www.w3.org/2000/svg" xmlns:xlink="http://www.w3.org/1999/xlink" x="0px" y="0px"
	 viewBox="0 0 512 512" style="enable-background:new 0 0 512 512;" xml:space="preserve">
<style type="text/css">
	.st0{fill:#4065D6;}
	.st1{fill:#FFFFFF;}
</style>
<g>
	<g id="_x23_4065d6ff">
		<path class="st0" d="M249.4,0h13.1c21.6,0.8,43.2,3.8,64.1,9.7c27.7,8.4,54.5,20.6,77.9,37.8c23.8,16.9,44.6,37.9,61.2,61.8
			c13.3,18.3,23.3,38.8,31.2,59.9c9.4,25.4,14,52.4,15.1,79.4v11.2c-0.7,43.4-12.3,86.6-34.2,124c-16.4,29-38.9,54.4-65.2,74.8
			c-42.6,33.2-96,52.1-150,53.4h-13c-24.2-0.9-48.5-4.5-71.5-12.1c-18.2-6-35.8-13.9-52.4-23.4c-23.6-14.6-45.6-32.2-63.6-53.6
			c-21.5-24.9-38.2-53.9-48.6-85.1C5,313.6,0.9,288.1,0,262.5v-13.1c1.3-51.9,18.8-103.1,49.5-145c15.3-21.1,34.2-39.5,55-55.1
			c11.5-8.1,23.5-15.6,36.1-21.9C174.2,10.4,211.7,1,249.4,0 M226.4,182.6c-5.5,0.6-11.8,3-13.9,8.5c-0.7,2.7,2.6,2.9,4.4,3.4
			c6.3,1,10.7,7.4,10.4,13.6c0,14,2.1,28.4-2.3,41.9c-0.5,2.6-3.7,4.2-6,2.8c-2.6-1.6-4.9-3.7-6.8-6.1c-11.8-15-21.3-31.9-28.3-49.7
			c-1.9-5.2-7.4-8.7-13-8.4c-12.3,0-24.6-0.6-37-0.3c-2.3-0.2-4.4,1.1-5.4,3.2c-1.9,3.4,0.4,7,1.8,10.1
			c8.8,19.6,17.9,39.2,29.6,57.3c12.3,19.3,24.9,39.5,44.1,52.7c18.8,14.5,43.7,19.2,66.9,16.3c3.7-1,6.8-4.1,7.2-8
			c0.9-6.4,1.8-12.9,3.7-19.1c0.7-2.5,2.4-5.1,5.1-5.7c3.2-0.7,6.1,1.4,8.5,3.4c8.2,7.4,14.9,16.4,23.1,23.7
			c4.8,4.1,11.1,6.5,17.4,6.8c11.7,0.3,23.3,0.3,35,0.2c4.9,0.1,10.8-1.7,12.5-6.8c1.8-5.6-2.2-10.7-5.2-15
			c-9-13.6-21.6-24.3-32.9-36c-2.2-2.2-3.9-5.4-2.9-8.6c1.5-4.9,4.7-8.9,7.7-12.9c8-10.7,15.8-21.4,23.7-32.1
			c4.5-6.3,7.9-13.5,9.9-21c1-3.1-1-6.6-4.1-7.5c-5.1-1.5-10.4-0.9-15.6-1c-11.7,0.1-23.4-0.2-35.1,0.3c-4.7,0.3-6.8,5.1-8.2,9
			c-7.4,19.1-18,37.1-32,52.1c-1.7,2-5,4-7.4,1.8c-2.8-2.8-2.6-7-3.2-10.6c-1.1-15,1.2-30,0.4-45c-0.1-4.7-2.2-9.8-6.8-11.6
			c-7-2.3-14.4-1.7-21.6-1.8C242.2,182.4,234.3,182.1,226.4,182.6z"/>
	</g>
	<g id="_x23_ffffffff">
		<path class="st1" d="M226.4,182.6c7.9-0.4,15.8-0.1,23.6,0.1c7.2,0.2,14.7-0.5,21.6,1.8c4.7,1.8,6.8,6.9,6.8,11.6
			c0.8,15-1.5,30-0.4,45c0.6,3.6,0.5,7.8,3.2,10.6c2.4,2.2,5.7,0.2,7.4-1.8c14-15,24.5-33.1,32-52.1c1.4-3.9,3.5-8.6,8.2-9
			c11.7-0.6,23.4-0.2,35.1-0.3c5.2,0.1,10.6-0.5,15.6,1c3.1,0.8,5.1,4.4,4.1,7.5c-2.1,7.5-5.4,14.7-9.9,21
			c-7.9,10.7-15.7,21.5-23.7,32.1c-3,4-6.2,8.1-7.7,12.9c-1,3.2,0.7,6.4,2.9,8.6c11.3,11.7,23.9,22.3,32.9,36c3,4.3,7,9.4,5.2,15
			c-1.7,5.1-7.6,6.9-12.5,6.8c-11.7,0.1-23.3,0.1-35-0.2c-6.3-0.2-12.6-2.6-17.4-6.8c-8.2-7.4-14.9-16.4-23.1-23.7
			c-2.3-2-5.2-4.1-8.5-3.4c-2.7,0.6-4.4,3.1-5.1,5.7c-1.9,6.2-2.8,12.7-3.7,19.1c-0.4,3.9-3.5,7.1-7.2,8c-23.2,2.9-48-1.9-66.9-16.3
			c-19.2-13.2-31.8-33.4-44.1-52.7c-11.7-18.1-20.8-37.7-29.6-57.3c-1.4-3.1-3.7-6.7-1.8-10.1c1-2,3.1-3.4,5.4-3.2
			c12.3-0.3,24.6,0.3,37,0.3c5.6-0.3,11,3.2,13,8.4c7,17.8,16.4,34.6,28.3,49.7c2,2.3,4.2,4.5,6.8,6.1c2.3,1.4,5.5-0.2,6-2.8
			c4.4-13.6,2.2-28,2.3-41.9c0.3-6.2-4.1-12.6-10.4-13.6c-1.8-0.5-5.1-0.7-4.4-3.4C214.6,185.6,220.9,183.1,226.4,182.6z"/>
	</g>
</g>
</svg>
