<svg xmlns="http://www.w3.org/2000/svg" width="512" height="512" viewBox="0 0 60 57">
    <g fill="#35393E">
        <path d="M55.392 13.69L19.681.69c-3.633-1.312-7.643.56-8.971 4.188L4.276 22.552C1.686 23.649.003 26.187 0 29v21c.004 3.864 3.136 6.996 7 7h38c3.864-.004 6.996-3.136 7-7v-6.739c.15-.28.28-.57.39-.869l7.149-19.618.041-.111c1.314-3.634-.559-7.646-4.188-8.973zm.252 13.918l-4.311-1.572C50.183 23.576 47.715 22.003 45 22h-4.765L10.542 11.192l1.618-4.449.088-.241 45.109 16.415zM9.856 13.071L34.389 22H7c-.136 0-.269.013-.4.02zM50 50c-.003 2.76-2.24 4.997-5 5H7c-2.76-.003-4.997-2.24-5-5V29c.003-2.76 2.24-4.997 5-5h38c2.76.003 4.997 2.24 5 5zm2-12.379V29c0-.2-.013-.4-.031-.6l2.994 1.092zM57.946 21L13.028 4.657c1.246-2.02 3.738-2.892 5.972-2.088l35.71 13c2.228.816 3.58 3.083 3.236 5.431z"/>
        <path d="M14 37c1.657 0 3-1.343 3-3v-4c0-1.657-1.343-3-3-3H8c-1.657 0-3 1.343-3 3v4c0 1.657 1.343 3 3 3zm0-2h-3v-2h4v1c0 .552-.448 1-1 1zm1-5v1h-4v-2h3c.552 0 1 .448 1 1zm-7-1h1v2H7v-1c0-.552.448-1 1-1zm-1 5v-1h2v2H8c-.552 0-1-.448-1-1zM8 43c-.552 0-1 .448-1 1s.448 1 1 1h6c.552 0 1-.448 1-1s-.448-1-1-1zM24 43h-6c-.552 0-1 .448-1 1s.448 1 1 1h6c.552 0 1-.448 1-1s-.448-1-1-1zM34 43h-6c-.552 0-1 .448-1 1s.448 1 1 1h6c.552 0 1-.448 1-1s-.448-1-1-1zM44 43h-6c-.552 0-1 .448-1 1s.448 1 1 1h6c.552 0 1-.448 1-1s-.448-1-1-1zM10 49H8c-.552 0-1 .448-1 1s.448 1 1 1h2c.552 0 1-.448 1-1s-.448-1-1-1zM17 49h-2c-.552 0-1 .448-1 1s.448 1 1 1h2c.552 0 1-.448 1-1s-.448-1-1-1zM43 28c-1.153.004-2.248.508-3 1.382-1.093-1.263-2.856-1.713-4.421-1.13-1.565.583-2.603 2.078-2.603 3.748s1.038 3.165 2.603 3.748c1.565.583 3.328.133 4.421-1.13 1.211 1.387 3.213 1.765 4.847.916 1.634-.848 2.475-2.704 2.037-4.493S44.84 27.997 43 28zm-6 6c-1.105 0-2-.895-2-2s.895-2 2-2 2 .895 2 2-.895 2-2 2zm6 0c-1.105 0-2-.895-2-2s.895-2 2-2 2 .895 2 2-.895 2-2 2z"/>
    </g>
</svg>
