<svg xmlns="http://www.w3.org/2000/svg" enable-background="new 0 0 511 511" viewBox="0 0 511 511">
    <path d="M503.7 331.4c4.2 0 7.6-3.4 7.6-7.6v-234c0-26.3-20.5-48-46.3-49.9C450.9 15.5 424.5-1 394.3-1c-30.1 0-56.5 16.4-70.6 40.8h-75c-11.4-14.7-29.1-24.1-49.1-24.1-34.3 0-62.1 27.9-62.1 62.1V96h-39c-3.9 0-7.1 2.9-7.5 6.8L65.9 344H16.2V89.8c0-19.3 15.7-34.9 34.9-34.9h137.8c4.2 0 7.6-3.4 7.6-7.6 0-4.2-3.4-7.6-7.6-7.6H51.1C23.5 39.8 1 62.2 1 89.8v266.8c0 27.9 22.7 50.5 50.5 50.5h62.8c4.2 0 7.6-3.4 7.6-7.6 0-4.2-3.4-7.6-7.6-7.6H51.5c-18.7 0-34-14.5-35.3-32.9H496c-1.3 18.3-16.6 32.9-35.3 32.9H99.6c-4.2 0-7.6 3.4-7.6 7.6 0 4.2 3.4 7.6 7.6 7.6h60.8l-10.1 42.2h-21c-21.8 0-39.5 17.7-39.5 39.5v13.6c0 4.2 3.4 7.6 7.6 7.6h317.5c4.2 0 7.6-3.4 7.6-7.6v-13.6c0-21.8-17.7-39.5-39.5-39.5h-21l-10-42.1h108.8c27.9 0 50.5-22.7 50.5-50.5v-37.5c0-4.2-3.4-7.6-7.6-7.6-4.2 0-7.6 3.4-7.6 7.6V344H382.4l-17.2-161c-.4-3.9-3.7-6.8-7.5-6.8h-41.8l-7.6-73.4c-.4-3.9-3.7-6.8-7.5-6.8h-39V77.8c0-8.1-1.6-15.8-4.4-22.9h59.4c-2.7 8.1-4.2 16.8-4.2 25.8 0 45 36.6 81.7 81.7 81.7 45 0 81.7-36.6 81.7-81.7 0-8.3-1.3-16.4-3.6-23.9 13.8 4.7 23.8 17.7 23.8 33.1v234c0 4.1 3.4 7.5 7.5 7.5zm-96.4 157.4v6H105v-6c0-13.4 10.9-24.3 24.3-24.3H383c13.4 0 24.3 10.9 24.3 24.3zm-60.9-39.5H165.9l10.1-42.2h160.4l10 42.2zM367.2 344H207.6l16.3-152.7h126.9L367.2 344zm-73.3-232.9l6.8 65h-83.5c-3.9 0-7.1 2.9-7.5 6.8l-17.2 161H81.1l24.2-232.8h32.2v16.7c0 4.2 3.4 7.6 7.6 7.6s7.6-3.4 7.6-7.6v-16.7h94v16.7c0 4.2 3.4 7.6 7.6 7.6 4.2 0 7.6-3.4 7.6-7.6v-16.7h32zm-47.3-33.3V96h-94V77.8c0-25.9 21.1-47 47-47 10.3 0 19.8 3.3 27.5 8.9h-46.8c-4.2 0-7.6 3.4-7.6 7.6 0 4.2 3.4 7.6 7.6 7.6h60.2c3.9 6.8 6.1 14.6 6.1 22.9zm147.7 69.4c-36.7 0-66.5-29.8-66.5-66.5s29.8-66.5 66.5-66.5 66.5 29.8 66.5 66.5-29.8 66.5-66.5 66.5z"/>
    <path d="M287.4 271.9c-13.8 0-25-11.2-25-25v-32.6c0-4.2-3.4-7.6-7.6-7.6s-7.6 3.4-7.6 7.6v32.6c0 22.1 18 40.2 40.2 40.2s40.2-18 40.2-40.2v-32.6c0-4.2-3.4-7.6-7.6-7.6s-7.6 3.4-7.6 7.6v32.6c0 13.8-11.2 25-25 25zM425.2 38.4c-3.8-1.8-8.3-.3-10.1 3.5l-29 59.7L372.9 78c-2-3.7-6.6-5-10.3-2.9-3.7 2-5 6.6-2.9 10.3l20.2 36.4c1.3 2.4 3.9 3.9 6.6 3.9h.2c2.8-.1 5.4-1.7 6.6-4.3l35.4-72.8c1.8-3.8.3-8.3-3.5-10.2zM476 199.4h-72.8c-4.2 0-7.6 3.4-7.6 7.6 0 4.2 3.4 7.6 7.6 7.6H476c4.2 0 7.6-3.4 7.6-7.6 0-4.2-3.4-7.6-7.6-7.6zM476 234.7h-57.6c-4.2 0-7.6 3.4-7.6 7.6 0 4.2 3.4 7.6 7.6 7.6H476c4.2 0 7.6-3.4 7.6-7.6 0-4.2-3.4-7.6-7.6-7.6z"/>
</svg>
