<svg xmlns="http://www.w3.org/2000/svg" width="512" height="512" viewBox="0 0 60 60">
    <path fill="#35393E" d="M.007 56.087v2.107c-.017.468.155.924.477 1.263.323.34.769.536 1.237.543h34.558c.466-.007.91-.2 1.231-.537s.496-.787.483-1.253v-2.168c-.242-5.32-2.873-6.294-3.146-6.38l-.582-.2c.834-1.606.955-3.49.335-5.19-.621-1.7-1.927-3.061-3.6-3.752v-2.071c.628-.482.997-1.227 1-2.019v-4.86c-.003-.792-.372-1.537-1-2.019V24.92C31 18.694 25.841 14 19 14S7 18.694 7 24.92v4.631c-.628.482-.997 1.227-1 2.019v4.86c.003.792.372 1.537 1 2.019v2.071c-1.673.69-2.98 2.052-3.6 3.753s-.5 3.584.335 5.19l-.556.191c-.299.094-2.93 1.068-3.172 6.433zm32.347-7.28L25 46.285v-3.494c.761-1.203 1.413-2.471 1.947-3.791H29v5c0 .552.448 1 1 1s1-.448 1-1v-1.235c1.995 1.328 2.592 3.99 1.354 6.042zM18.214 20h1.572C24.866 20 29 23.656 29 28.149V29h-1.763c-.985-.731-4.973-2.925-7.134-4.608-.65-.503-1.557-.503-2.206 0-2.386 1.856-5.971 3.753-7.133 4.608H9v-.851C9 23.656 13.134 20 18.214 20zm5.728 20.664C21.624 44.878 18.734 46.7 15.628 43H19c.552 0 1-.448 1-1s-.448-1-1-1h-4.747c-.62-1.083-1.155-2.212-1.6-3.377-.825-2.129-.653-1.581-.653-7.054.974-.683 4.784-2.81 7-4.5 2.3 1.76 6.341 4 7 4.5 0 5.026.058 5.023-.175 5.726-.498 1.509-1.129 2.97-1.883 4.369zM8.57 37c-.152.001-.297-.058-.405-.165-.107-.108-.166-.253-.165-.405v-4.86c-.001-.152.058-.297.165-.405.108-.107.253-.166.405-.165H10c0 4.422-.089 4.815.276 5.925.036.108.224.075-1.706.075zm19.155-.077C28.091 35.808 28 35.4 28 31h1.43c.152-.001.297.058.405.165.107.108.166.253.165.405v4.86c.001.152-.058.297-.165.405-.108.107-.253.166-.405.165-1.994 0-1.741.031-1.705-.077zM11.053 39c.258.621.566 1.3.922 2H11c-1.105 0-2-.895-2-2zM15 45.232c2.467 2.289 5.381 2.43 8 0V46.3c.023 1.042-.402 2.043-1.167 2.75S20.037 50.105 19 50c-1.034.093-2.06-.256-2.822-.961-.762-.706-1.19-1.7-1.178-2.739zm13.358-23.613c-2.234-2.34-5.337-3.65-8.572-3.619h-1.572c-3.235-.032-6.338 1.279-8.572 3.619 3.058-7.508 15.652-7.519 18.716 0zM7 42.765V44c0 .552.448 1 1 1s1-.448 1-1v-1.556c1.206.7 2.049.556 4 .556v3.286l-7.354 2.522C4.408 46.756 5.005 44.093 7 42.765zm-3.2 8.79l9.557-3.278C14.166 50.662 16.489 52.195 19 52c2.51.194 4.833-1.339 5.641-3.723l9.548 3.274c.017.007 1.628.7 1.8 4.536V58H2.006v-1.868c.177-3.885 1.794-4.577 1.794-4.577zM56.931 0H36.069C34.375.002 33.002 1.375 33 3.069v20.862c.002 1.668 1.333 3.03 3 3.069v4.482c0 .58.329 1.108.85 1.364.52.255 1.14.191 1.597-.164L45.868 27h11.063c1.694-.002 3.067-1.375 3.069-3.069V3.069C59.998 1.375 58.625.002 56.931 0zM58 23.931c0 .59-.479 1.068-1.069 1.069H42c-.552 0-1 .448-1 1s.448 1 1 1h.578L38 30.5V27c.552 0 1-.448 1-1s-.448-1-1-1h-1.931c-.59 0-1.068-.479-1.069-1.069V3.069c0-.59.479-1.068 1.069-1.069h20.862c.59 0 1.068.479 1.069 1.069z"/>
    <circle cx="47" cy="5" r="1" fill="#35393E"/>
    <path fill="#35393E" d="M45 13c0 .552.448 1 1 1h2c.552 0 1-.448 1-1s-.448-1-1-1V9c0-.552-.448-1-1-1h-1c-.552 0-1 .448-1 1s.448 1 1 1v2c-.552 0-1 .448-1 1zM53 16H40c-.552 0-1 .448-1 1s.448 1 1 1h13c.552 0 1-.448 1-1s-.448-1-1-1zM49 20h-9c-.552 0-1 .448-1 1s.448 1 1 1h9c.552 0 1-.448 1-1s-.448-1-1-1z"/>
</svg>
