<svg xmlns="http://www.w3.org/2000/svg" id="prefix__Capa_1" x="0" y="0" enable-background="new 0 0 512 512" version="1.1" viewBox="0 0 512 512" xml:space="preserve">
    <style>
        .prefix__st0{fill:#35393e}
    </style>
    <path d="M495 142L44.1 69.9v38.2L17.7 106v36H0v300.1h512V142h-17zM61.8 90.6l236.6 37.9-236.6-19V90.6zm-26.5 34.5l8.8.7 59.6 4.8 143 11.4H35.3v-16.9zm459 299.4H17.7V159.7h476.7v264.8z" class="prefix__st0"/>
    <path d="M57.4 230.3c17 0 30.9-13.9 30.9-30.9s-13.9-30.9-30.9-30.9-30.9 13.9-30.9 30.9 13.8 30.9 30.9 30.9zm0-44.2c7.3 0 13.2 5.9 13.2 13.2s-5.9 13.2-13.2 13.2-13.2-5.9-13.2-13.2 5.9-13.2 13.2-13.2zM423.7 199.4c0 17 13.9 30.9 30.9 30.9s30.9-13.9 30.9-30.9-13.9-30.9-30.9-30.9-30.9 13.9-30.9 30.9zm44.2 0c0 7.3-5.9 13.2-13.2 13.2s-13.2-5.9-13.2-13.2 5.9-13.2 13.2-13.2 13.2 5.9 13.2 13.2zM57.4 353.9c-17 0-30.9 13.9-30.9 30.9s13.9 30.9 30.9 30.9 30.9-13.9 30.9-30.9c0-17.1-13.9-30.9-30.9-30.9zm0 44.1c-7.3 0-13.2-5.9-13.2-13.2s5.9-13.2 13.2-13.2 13.2 5.9 13.2 13.2S64.7 398 57.4 398zM454.6 353.9c-17 0-30.9 13.9-30.9 30.9s13.9 30.9 30.9 30.9 30.9-13.9 30.9-30.9c0-17.1-13.8-30.9-30.9-30.9zm0 44.1c-7.3 0-13.2-5.9-13.2-13.2s5.9-13.2 13.2-13.2 13.2 5.9 13.2 13.2-5.9 13.2-13.2 13.2z" class="prefix__st0"/>
    <path d="M278.5 413.5l3.3-.6c3.2-.7 6.5-1.5 9.6-2.5 1.5-.4 2.9-1 4.3-1.4 1.9-.6 3.7-1.3 5.6-2 1.6-.6 3.2-1.3 4.7-2 1.7-.8 3.5-1.6 5.2-2.5 2.4-1.2 4.7-2.5 7.1-3.8.4-.2.7-.4 1.1-.6H416l-.9-9.6c-.1-1.2-.2-2.4-.2-3.6 0-21.9 17.8-39.7 39.7-39.7 1.2 0 2.4.1 3.6.2l9.6.9V238l-9.6.9c-1.2.1-2.4.2-3.6.2-21.9 0-39.7-17.8-39.7-39.7 0-1.2.1-2.4.2-3.6l.9-9.6h-96.6c-18.5-11.1-40.2-17.7-63.3-17.7s-44.8 6.5-63.3 17.7H96l.9 9.6c.1 1.2.2 2.4.2 3.6 0 21.9-17.8 39.7-39.7 39.7-1.2 0-2.4-.1-3.6-.2l-9.6-.9v108.1l9.6-.9c1.2-.1 2.4-.2 3.6-.2 21.9 0 39.7 17.8 39.7 39.7 0 1.2-.1 2.4-.2 3.6L96 398h96.4c1.4.8 2.8 1.7 4.2 2.5.4.2.9.5 1.4.7 2.9 1.5 5.8 2.9 8.7 4.2.7.3 1.4.6 2 .9 3.4 1.4 6.8 2.7 10.2 3.8.1 0 .2.1.3.1 3.6 1.1 7.2 2 10.9 2.8.9.2 1.7.3 2.6.5 2.9.5 5.7 1 8.6 1.3 1.1.1 2.1.3 3.2.4 3.8.3 7.5.6 11.3.6 3.7 0 7.4-.2 11.1-.6 1.1-.1 2.3-.2 3.4-.4 2.9-.4 5.6-.8 8.2-1.3zm63.9-209.7h55c2.2 28.1 24.7 50.6 52.8 52.8v71c-28.1 2.2-50.6 24.7-52.8 52.8h-55c.1-.1.2-.3.4-.4 1.5-1.5 2.9-3.1 4.3-4.7 1.4-1.5 2.8-2.9 4.1-4.5.5-.6.9-1.3 1.4-1.9 14.5-18.1 23.6-39.9 26.2-63.4 0-.3.1-.6.1-.9.4-4.1.6-8.4.6-12.6s-.2-8.4-.6-12.6c0-.3-.1-.6-.1-.9-2.5-23.4-11.7-45.3-26.2-63.4-.5-.6-.9-1.3-1.4-1.9-1.3-1.6-2.7-3-4.1-4.5-1.4-1.6-2.8-3.2-4.3-4.7-.2.1-.3-.1-.4-.2zM114.6 380.3c-2.2-28.1-24.7-50.6-52.8-52.8v-71c28.1-2.2 50.6-24.7 52.8-52.8h55c-.1.1-.2.3-.4.4-1.5 1.5-2.9 3.1-4.3 4.7-1.4 1.5-2.8 2.9-4.1 4.5-.5.6-.9 1.3-1.4 1.9-14.5 18.1-23.6 39.9-26.2 63.4 0 .3-.1.6-.1.9-.4 4.1-.6 8.4-.6 12.6 0 4.2.2 8.4.6 12.6 0 .3.1.6.1.9 2.5 23.4 11.7 45.3 26.2 63.4.5.6.9 1.3 1.4 1.9 1.3 1.6 2.7 3 4.1 4.5 1.4 1.6 2.8 3.2 4.3 4.7.1.1.2.3.4.4l-55-.2zm248-88c0 58.9-47.8 106.7-106.7 106.7s-106.7-47.8-106.7-106.7S197.1 185.7 256 185.7s106.6 47.7 106.6 106.6z" class="prefix__st0"/>
    <path d="M222.6 289.2v-65.4h34c32.3 0 47.3 12.7 47.3 37.8 0 25.1-14.2 38.2-45 38.2h-25v14.9h37.8v10.6H234v35h-11.3v-35h-14.6v-10.6h14.6v-14.9h-14.6v-10.6h14.5zm39.4 0c19.5 0 30.3-10.4 30.3-27.6 0-18.3-11.2-27.2-33.8-27.2H234v54.8h28z" style="fill:#35393e;stroke:#35393e;stroke-width:5;stroke-miterlimit:10"/>
</svg>
