<svg xmlns="http://www.w3.org/2000/svg" id="prefix__Слой_1" x="0" y="0" enable-background="new 0 0 512 512" version="1.1" viewBox="0 0 512 512" xml:space="preserve">
    <style>
        .prefix__st0{fill:#35393e}
    </style>
    <path d="M494.9 409.6V128c0-23.6-19.1-42.6-42.7-42.7H273.1v17.1h179.2c14.1 0 25.6 11.5 25.6 25.6v281.6c0 14.1-11.5 25.6-25.6 25.6h-34.1v17.1h34.1c23.5-.1 42.6-19.1 42.6-42.7zM51.2 221.9v187.7c0 23.6 19.1 42.6 42.7 42.7h76.8v-17.1H93.9c-14.1 0-25.6-11.5-25.6-25.6V221.9H51.2z" class="prefix__st0"/>
    <path d="M366.9 119.5H384v17.1h-17.1v-17.1zM401.1 119.5h17.1v17.1h-17.1v-17.1zM435.2 119.5h17.1v17.1h-17.1v-17.1zM273.1 153.6h179.2v17.1H273.1v-17.1zM59.7 204.8H117l66.2 41.4c2.9 1.8 6.6 1.7 9.4-.2s4.2-5.4 3.5-8.7l-6.5-32.4h23.7c23.6 0 42.6-19.1 42.7-42.7V42.7C256 19.1 236.9 0 213.3 0H59.7C36.2 0 17.1 19.1 17.1 42.7v119.5c0 23.5 19.1 42.6 42.6 42.6zM34.1 42.7c0-14.1 11.5-25.6 25.6-25.6h153.6c14.1 0 25.6 11.5 25.6 25.6v119.5c0 14.1-11.5 25.6-25.6 25.6h-34.1c-2.6 0-5 1.2-6.6 3.1-1.6 2-2.3 4.6-1.8 7.1l4.6 23.3L124 189c-1.4-.8-2.9-1.3-4.5-1.3H59.7c-14.1 0-25.6-11.5-25.6-25.6V42.7zM183.1 277.1c-12.2 12.2-15.8 30.6-9.2 46.5 6.6 15.9 22.2 26.3 39.4 26.3h17.1v-17.1h-17.1c-14.1 0-25.6-11.5-25.6-25.6 0-14.1 11.5-25.6 25.6-25.6h119.5c14.1 0 25.6 11.5 25.6 25.6 0 14.1-11.5 25.6-25.6 25.6h-17.1v17.1h17.1c23.6 0 42.7-19.1 42.7-42.7s-19.1-42.7-42.7-42.7H213.3c-11.3 0-22.2 4.6-30.2 12.6zM332.8 213.3h17.1v34.1h-17.1v-34.1zM369.4 250l25.6-25.6 12.1 12.1-25.6 25.5-12.1-12zM392.5 281.6h34.1v17.1h-34.1v-17.1z" class="prefix__st0"/>
    <path d="M197.6 472.3l53.4 38.2c1.4 1 3.2 1.6 5 1.6h136.5c4.7 0 8.5-3.8 8.5-8.5v-93c.2-12.7-8.8-23.8-21.3-26.2-7.4-1.2-15.1.9-20.8 5.8-.2.1-.3.3-.5.4-9.7-8.7-24.4-8.7-34.1 0-7.1-6.1-16.8-8-25.6-5.1v-52.6c.2-12.7-8.8-23.8-21.3-26.2-7.4-1.3-15 .8-20.8 5.7-5.8 4.9-9.1 12-9.1 19.6v113.8l-22.6-13.6c-6.9-4.2-15.5-4.5-22.7-.9l-1.4.7c-7.4 3.7-12.3 11-13 19.3s3.1 16.2 9.8 21zm10.8-25.1l1.3-.7c2-1 4.4-.9 6.3.2l35.6 21.3c2.6 1.6 5.9 1.6 8.6.1 2.7-1.5 4.3-4.3 4.3-7.4V331.9c0-2.5 1.1-4.9 3-6.5 1.9-1.7 4.5-2.4 7-1.9 4.3 1 7.2 4.9 7 9.3v76.8c0 4.7 3.8 8.5 8.5 8.5s8.5-3.8 8.5-8.5 3.8-8.5 8.5-8.5 8.5 3.8 8.5 8.5 3.8 8.5 8.5 8.5 8.5-3.8 8.5-8.5 3.8-8.5 8.5-8.5 8.5 3.8 8.5 8.5 3.8 8.5 8.5 8.5 8.5-3.8 8.5-8.5c0-2.5 1.1-4.9 3-6.5 1.9-1.7 4.5-2.4 7-1.9 4.3 1 7.2 4.9 7 9.3v84.4H258.7l-51.2-36.6c-1.9-1.3-2.9-3.5-2.7-5.8.2-2.2 1.5-4.3 3.6-5.3z" class="prefix__st0"/>
    <path d="M107.2 99.6V34.1h34c32.3 0 47.3 12.7 47.3 37.8 0 25.1-14.2 38.2-45 38.2h-25V125h37.8v10.6h-37.8v35h-11.3v-35H92.6V125h14.6v-14.9H92.6V99.6h14.6zm39.3 0c19.5 0 30.3-10.4 30.3-27.6 0-18.3-11.2-27.2-33.8-27.2h-24.4v54.8h27.9z" style="fill:#35393e;stroke:#35393e;stroke-width:5;stroke-miterlimit:10"/>
</svg>
