<?xml version="1.0" encoding="UTF-8" ?>
<!DOCTYPE svg PUBLIC "-//W3C//DTD SVG 1.1//EN" "http://www.w3.org/Graphics/SVG/1.1/DTD/svg11.dtd">
<svg width="512pt" height="512pt" viewBox="0 0 512 512" version="1.1" xmlns="http://www.w3.org/2000/svg">
<g id="#0183fcff">
<path fill="#0183fc" opacity="1.00" d=" M 249.36 0.00 L 258.76 0.00 C 296.56 0.39 334.26 9.19 368.22 25.83 C 417.38 49.82 458.45 89.95 483.52 138.57 C 501.82 173.86 511.57 213.45 512.00 253.18 L 512.00 259.83 C 511.37 298.45 502.07 336.94 484.56 371.39 C 467.76 404.41 443.85 433.82 414.75 456.76 C 384.51 480.80 348.76 497.89 310.99 506.06 C 295.11 509.68 278.84 511.31 262.58 512.00 L 249.42 512.00 C 205.79 510.76 162.48 498.43 125.02 475.96 C 86.98 453.23 54.91 420.55 33.14 381.94 C 12.37 345.75 1.23 304.31 0.00 262.66 L 0.00 252.22 C 0.60 210.56 11.46 169.08 31.64 132.62 C 52.17 95.53 81.88 63.51 117.63 40.68 C 156.63 15.21 202.85 1.34 249.36 0.00 M 157.40 133.33 C 132.19 151.52 112.40 177.48 102.80 207.14 C 93.48 235.80 93.77 267.53 103.88 295.95 C 113.59 323.65 132.20 347.81 155.63 365.34 C 155.56 384.16 155.60 402.97 155.61 421.79 C 173.86 411.97 191.92 401.82 210.12 391.92 C 248.00 402.47 289.47 399.47 325.40 383.49 C 349.08 372.93 370.29 356.68 386.15 336.12 C 399.59 318.81 409.08 298.42 413.28 276.90 C 418.77 249.92 415.82 221.30 404.96 196.00 C 392.07 165.12 367.91 139.51 338.84 123.22 C 312.54 108.44 282.18 101.12 252.04 101.89 C 218.31 102.62 184.71 113.40 157.40 133.33 Z" />
<path fill="#0183fc" opacity="1.00" d=" M 152.00 301.03 C 181.05 270.36 209.97 239.57 238.94 208.83 C 239.73 209.42 240.47 210.06 241.18 210.75 C 254.25 224.37 267.38 237.93 280.42 251.57 C 281.51 252.09 282.52 251.02 283.48 250.65 C 308.60 236.70 333.72 222.77 358.89 208.93 C 329.86 239.60 300.92 270.37 271.96 301.12 C 258.19 286.82 244.88 272.04 231.02 257.85 C 204.69 272.27 178.36 286.66 152.00 301.03 Z" />
</g>
<g id="#fcfcfcff">
<path fill="#fcfcfc" opacity="1.00" d=" M 157.40 133.33 C 184.71 113.40 218.31 102.62 252.04 101.89 C 282.18 101.12 312.54 108.44 338.84 123.22 C 367.91 139.51 392.07 165.12 404.96 196.00 C 415.82 221.30 418.77 249.92 413.28 276.90 C 409.08 298.42 399.59 318.81 386.15 336.12 C 370.29 356.68 349.08 372.93 325.40 383.49 C 289.47 399.47 248.00 402.47 210.12 391.92 C 191.92 401.82 173.86 411.97 155.61 421.79 C 155.60 402.97 155.56 384.16 155.63 365.34 C 132.20 347.81 113.59 323.65 103.88 295.95 C 93.77 267.53 93.48 235.80 102.80 207.14 C 112.40 177.48 132.19 151.52 157.40 133.33 M 152.00 301.03 C 178.36 286.66 204.69 272.27 231.02 257.85 C 244.88 272.04 258.19 286.82 271.96 301.12 C 300.92 270.37 329.86 239.60 358.89 208.93 C 333.72 222.77 308.60 236.70 283.48 250.65 C 282.52 251.02 281.51 252.09 280.42 251.57 C 267.38 237.93 254.25 224.37 241.18 210.75 C 240.47 210.06 239.73 209.42 238.94 208.83 C 209.97 239.57 181.05 270.36 152.00 301.03 Z" />
</g>
</svg>
