<?xml version="1.0" encoding="UTF-8" ?>
<!DOCTYPE svg PUBLIC "-//W3C//DTD SVG 1.1//EN" "http://www.w3.org/Graphics/SVG/1.1/DTD/svg11.dtd">
<svg width="512pt" height="512pt" viewBox="0 0 512 512" version="1.1" xmlns="http://www.w3.org/2000/svg">
<g id="#1c89d9ff">
<path fill="#1c89d9" opacity="1.00" d=" M 248.88 0.00 L 262.23 0.00 C 303.79 1.13 345.15 12.16 381.31 32.76 C 429.47 59.73 468.51 102.73 490.54 153.36 C 504.07 183.89 511.14 217.14 512.00 250.49 L 512.00 260.48 C 511.18 302.60 500.09 344.57 479.25 381.23 C 460.52 414.65 434.15 443.73 402.77 465.71 C 361.89 494.66 312.29 510.74 262.25 512.00 L 249.87 512.00 C 205.60 510.85 161.66 498.22 123.78 475.22 C 70.95 443.38 30.21 391.97 11.81 333.05 C 4.55 310.20 0.77 286.32 0.00 262.38 L 0.00 252.36 C 0.51 218.37 7.71 184.46 21.42 153.34 C 43.72 102.23 83.28 58.97 132.04 31.97 C 167.67 12.10 208.14 1.29 248.88 0.00 M 396.27 132.11 C 298.53 167.35 200.75 202.53 103.01 237.79 C 98.06 239.16 94.88 244.76 96.40 249.70 C 97.32 252.96 100.08 255.56 103.37 256.35 C 128.26 263.17 153.17 269.90 178.03 276.83 C 187.22 303.70 196.38 330.57 205.51 357.46 C 207.95 366.09 219.85 369.54 226.48 363.48 C 239.65 351.36 252.45 338.84 265.61 326.70 C 290.95 343.94 316.31 361.15 341.71 378.30 C 350.04 383.79 363.24 379.47 365.60 369.46 C 382.28 296.02 398.84 222.54 415.50 149.09 C 416.48 145.41 415.96 141.35 413.82 138.17 C 410.19 132.53 402.60 130.08 396.27 132.11 Z" />
<path fill="#1c89d9" opacity="1.00" d=" M 353.67 176.70 C 355.60 175.10 359.01 175.37 359.81 178.04 C 360.65 179.95 358.74 181.35 357.51 182.45 C 312.70 219.01 267.95 255.63 223.22 292.28 C 221.75 293.39 220.67 295.01 220.49 296.87 C 218.44 311.62 216.95 326.43 215.07 341.20 C 214.54 341.20 213.47 341.21 212.94 341.21 C 205.61 320.58 199.03 299.66 191.90 278.94 C 191.09 276.48 189.90 273.74 191.18 271.22 C 192.04 269.13 194.18 268.11 196.01 267.03 C 248.60 236.99 301.05 206.70 353.67 176.70 Z" />
</g>
<g id="#fdfdfdff">
<path fill="#fdfdfd" opacity="1.00" d=" M 396.27 132.11 C 402.60 130.08 410.19 132.53 413.82 138.17 C 415.96 141.35 416.48 145.41 415.50 149.09 C 398.84 222.54 382.28 296.02 365.60 369.46 C 363.24 379.47 350.04 383.79 341.71 378.30 C 316.31 361.15 290.95 343.94 265.61 326.70 C 252.45 338.84 239.65 351.36 226.48 363.48 C 219.85 369.54 207.95 366.09 205.51 357.46 C 196.38 330.57 187.22 303.70 178.03 276.83 C 153.17 269.90 128.26 263.17 103.37 256.35 C 100.08 255.56 97.32 252.96 96.40 249.70 C 94.88 244.76 98.06 239.16 103.01 237.79 C 200.75 202.53 298.53 167.35 396.27 132.11 M 353.67 176.70 C 301.05 206.70 248.60 236.99 196.01 267.03 C 194.18 268.11 192.04 269.13 191.18 271.22 C 189.90 273.74 191.09 276.48 191.90 278.94 C 199.03 299.66 205.61 320.58 212.94 341.21 C 213.47 341.21 214.54 341.20 215.07 341.20 C 216.95 326.43 218.44 311.62 220.49 296.87 C 220.67 295.01 221.75 293.39 223.22 292.28 C 267.95 255.63 312.70 219.01 357.51 182.45 C 358.74 181.35 360.65 179.95 359.81 178.04 C 359.01 175.37 355.60 175.10 353.67 176.70 Z" />
</g>
</svg>
