<?xml version="1.0" encoding="UTF-8" ?>
<!DOCTYPE svg PUBLIC "-//W3C//DTD SVG 1.1//EN" "http://www.w3.org/Graphics/SVG/1.1/DTD/svg11.dtd">
<svg width="512pt" height="512pt" viewBox="0 0 512 512" version="1.1" xmlns="http://www.w3.org/2000/svg">
<g id="#6e3ea8ff">
<path fill="#6e3ea8" opacity="1.00" d=" M 249.58 0.00 L 262.41 0.00 C 303.92 1.16 345.22 12.20 381.35 32.78 C 429.51 59.77 468.56 102.78 490.57 153.44 C 503.97 183.66 510.97 216.55 512.00 249.55 L 512.00 260.62 C 511.16 302.71 500.05 344.66 479.22 381.30 C 462.69 410.74 440.25 436.85 413.65 457.64 C 383.85 481.04 348.79 497.74 311.77 505.89 C 295.58 509.61 278.99 511.33 262.40 512.00 L 249.62 512.00 C 205.66 510.80 162.04 498.30 124.36 475.57 C 98.15 459.75 74.72 439.28 55.67 415.30 C 32.26 385.98 15.37 351.45 6.82 314.90 C 2.71 297.72 0.64 280.11 0.00 262.48 L 0.00 249.61 C 1.24 203.50 14.88 157.67 39.87 118.83 C 59.84 87.35 86.76 60.32 118.20 40.29 C 157.17 15.05 203.23 1.27 249.58 0.00 M 245.21 96.28 C 222.63 96.94 200.07 99.27 177.95 103.85 C 157.15 109.55 139.29 123.31 125.68 139.72 C 117.78 149.52 111.09 160.65 108.16 172.99 C 98.95 214.98 99.00 259.00 108.38 300.96 C 111.57 312.63 117.67 323.36 125.25 332.73 C 138.46 349.10 156.06 362.17 176.07 368.85 C 176.56 377.53 176.14 386.25 176.27 394.94 C 176.38 400.06 175.46 405.82 178.80 410.20 C 183.24 416.70 193.50 417.76 199.08 412.14 C 210.18 400.88 221.02 389.36 232.01 378.00 C 232.84 377.30 233.59 376.05 234.87 376.36 C 263.34 377.91 291.99 376.39 320.12 371.70 C 327.17 370.49 334.35 369.63 341.05 366.99 C 356.65 361.06 370.34 350.81 381.64 338.64 C 391.00 328.34 399.00 316.42 402.99 302.98 C 413.18 259.70 413.21 214.12 403.36 170.77 C 398.23 152.81 386.21 137.70 372.53 125.37 C 362.42 116.49 350.79 109.12 337.96 104.90 C 332.76 103.12 327.26 102.55 321.88 101.59 C 296.59 97.27 270.85 95.51 245.21 96.28 Z" />
<path fill="#6e3ea8" opacity="1.00" d=" M 189.14 129.76 C 233.29 121.65 278.96 121.69 323.11 129.81 C 332.91 131.41 341.75 136.48 349.53 142.46 C 361.33 151.70 371.86 163.62 376.52 178.10 C 385.11 215.24 385.08 254.25 377.31 291.54 C 375.84 298.94 372.13 305.69 367.75 311.75 C 361.46 320.34 353.65 327.81 344.85 333.79 C 339.05 337.65 332.75 340.95 325.92 342.50 C 299.29 347.69 272.10 349.70 244.99 349.17 C 227.71 366.84 210.51 384.60 193.20 402.24 C 191.43 404.72 187.25 403.06 187.66 400.04 C 187.55 382.01 187.65 363.98 187.63 345.96 C 187.67 344.51 187.49 342.60 185.64 342.53 C 173.36 339.47 162.96 331.61 153.96 323.02 C 144.88 313.93 136.66 303.02 134.31 290.10 C 127.19 254.25 126.98 216.91 134.71 181.13 C 136.13 173.79 139.86 167.14 144.20 161.13 C 150.10 153.11 157.33 146.08 165.42 140.29 C 172.52 135.28 180.46 131.09 189.14 129.76 M 252.29 157.38 C 249.75 158.23 248.33 161.83 250.19 163.96 C 251.93 165.82 254.71 165.73 257.04 166.09 C 263.08 166.56 269.17 167.14 275.00 168.89 C 291.95 173.61 306.68 185.45 315.24 200.79 C 320.18 209.70 322.83 219.76 323.46 229.91 C 324.12 234.13 323.37 238.72 325.23 242.67 C 327.12 245.86 332.43 244.53 332.93 240.98 C 332.56 225.44 330.30 209.36 322.20 195.78 C 308.56 171.25 280.31 155.57 252.29 157.38 M 199.34 166.45 C 189.50 170.51 180.50 178.00 176.43 188.03 C 174.13 193.17 175.98 198.68 178.27 203.43 C 188.75 229.90 203.38 255.20 223.97 275.10 C 243.79 293.44 267.34 307.59 292.52 317.25 C 295.25 318.12 298.01 319.52 300.93 319.40 C 312.50 317.13 321.47 307.72 326.39 297.40 C 328.60 293.34 327.92 287.83 324.25 284.84 C 315.74 277.48 306.42 271.09 297.01 264.93 C 293.30 262.33 288.18 261.89 284.18 264.09 C 278.56 267.02 276.83 274.55 270.56 276.53 C 264.91 277.53 259.65 274.60 254.71 272.30 C 238.83 264.98 227.08 250.65 220.39 234.76 C 218.84 230.88 216.41 226.54 218.34 222.34 C 220.90 217.01 227.45 215.23 230.22 210.05 C 232.24 206.31 232.26 201.59 230.12 197.89 C 224.41 187.64 217.52 178.04 209.67 169.32 C 207.18 166.45 202.96 165.25 199.34 166.45 M 258.32 177.53 C 255.06 179.12 255.58 184.86 259.30 185.48 C 264.64 186.37 270.10 186.80 275.22 188.69 C 289.49 193.26 300.85 206.05 303.28 220.89 C 304.31 225.26 303.63 229.87 304.77 234.20 C 306.32 237.85 312.34 236.86 312.76 232.96 C 313.40 224.38 311.54 215.67 308.16 207.78 C 302.44 193.93 289.81 183.71 275.57 179.57 C 270.00 178.16 264.02 176.39 258.32 177.53 M 264.24 198.35 C 261.22 199.70 261.13 204.45 264.12 205.90 C 267.29 207.10 270.85 206.69 274.00 208.00 C 279.00 209.96 282.62 214.68 283.73 219.88 C 284.37 222.44 284.35 225.17 285.35 227.64 C 286.90 230.57 292.23 230.54 292.94 226.98 C 293.44 222.11 292.20 217.15 290.49 212.62 C 287.46 204.94 279.91 199.88 271.96 198.49 C 269.44 198.20 266.67 197.19 264.24 198.35 Z" />
</g>
<g id="#fcfcfcff">
<path fill="#fcfcfc" opacity="1.00" d=" M 245.21 96.28 C 270.85 95.51 296.59 97.27 321.88 101.59 C 327.26 102.55 332.76 103.12 337.96 104.90 C 350.79 109.12 362.42 116.49 372.53 125.37 C 386.21 137.70 398.23 152.81 403.36 170.77 C 413.21 214.12 413.18 259.70 402.99 302.98 C 399.00 316.42 391.00 328.34 381.64 338.64 C 370.34 350.81 356.65 361.06 341.05 366.99 C 334.35 369.63 327.17 370.49 320.12 371.70 C 291.99 376.39 263.34 377.91 234.87 376.36 C 233.59 376.05 232.84 377.30 232.01 378.00 C 221.02 389.36 210.18 400.88 199.08 412.14 C 193.50 417.76 183.24 416.70 178.80 410.20 C 175.46 405.82 176.38 400.06 176.27 394.94 C 176.14 386.25 176.56 377.53 176.07 368.85 C 156.06 362.17 138.46 349.10 125.25 332.73 C 117.67 323.36 111.57 312.63 108.38 300.96 C 99.00 259.00 98.95 214.98 108.16 172.99 C 111.09 160.65 117.78 149.52 125.68 139.72 C 139.29 123.31 157.15 109.55 177.95 103.85 C 200.07 99.27 222.63 96.94 245.21 96.28 M 189.14 129.76 C 180.46 131.09 172.52 135.28 165.42 140.29 C 157.33 146.08 150.10 153.11 144.20 161.13 C 139.86 167.14 136.13 173.79 134.71 181.13 C 126.98 216.91 127.19 254.25 134.31 290.10 C 136.66 303.02 144.88 313.93 153.96 323.02 C 162.96 331.61 173.36 339.47 185.64 342.53 C 187.49 342.60 187.67 344.51 187.63 345.96 C 187.65 363.98 187.55 382.01 187.66 400.04 C 187.25 403.06 191.43 404.72 193.20 402.24 C 210.51 384.60 227.71 366.84 244.99 349.17 C 272.10 349.70 299.29 347.69 325.92 342.50 C 332.75 340.95 339.05 337.65 344.85 333.79 C 353.65 327.81 361.46 320.34 367.75 311.75 C 372.13 305.69 375.84 298.94 377.31 291.54 C 385.08 254.25 385.11 215.24 376.52 178.10 C 371.86 163.62 361.33 151.70 349.53 142.46 C 341.75 136.48 332.91 131.41 323.11 129.81 C 278.96 121.69 233.29 121.65 189.14 129.76 Z" />
<path fill="#fcfcfc" opacity="1.00" d=" M 252.29 157.38 C 280.31 155.57 308.56 171.25 322.20 195.78 C 330.30 209.36 332.56 225.44 332.93 240.98 C 332.43 244.53 327.12 245.86 325.23 242.67 C 323.37 238.72 324.12 234.13 323.46 229.91 C 322.83 219.76 320.18 209.70 315.24 200.79 C 306.68 185.45 291.95 173.61 275.00 168.89 C 269.17 167.14 263.08 166.56 257.04 166.09 C 254.71 165.73 251.93 165.82 250.19 163.96 C 248.33 161.83 249.75 158.23 252.29 157.38 Z" />
<path fill="#fcfcfc" opacity="1.00" d=" M 199.34 166.45 C 202.96 165.25 207.18 166.45 209.67 169.32 C 217.52 178.04 224.41 187.64 230.12 197.89 C 232.26 201.59 232.24 206.31 230.22 210.05 C 227.45 215.23 220.90 217.01 218.34 222.34 C 216.41 226.54 218.84 230.88 220.39 234.76 C 227.08 250.65 238.83 264.98 254.71 272.30 C 259.65 274.60 264.91 277.53 270.56 276.53 C 276.83 274.55 278.56 267.02 284.18 264.09 C 288.18 261.89 293.30 262.33 297.01 264.93 C 306.42 271.09 315.74 277.48 324.25 284.84 C 327.92 287.83 328.60 293.34 326.39 297.40 C 321.47 307.72 312.50 317.13 300.93 319.40 C 298.01 319.52 295.25 318.12 292.52 317.25 C 267.34 307.59 243.79 293.44 223.97 275.10 C 203.38 255.20 188.75 229.90 178.27 203.43 C 175.98 198.68 174.13 193.17 176.43 188.03 C 180.50 178.00 189.50 170.51 199.34 166.45 Z" />
<path fill="#fcfcfc" opacity="1.00" d=" M 258.32 177.53 C 264.02 176.39 270.00 178.16 275.57 179.57 C 289.81 183.71 302.44 193.93 308.16 207.78 C 311.54 215.67 313.40 224.38 312.76 232.96 C 312.34 236.86 306.32 237.85 304.77 234.20 C 303.63 229.87 304.31 225.26 303.28 220.89 C 300.85 206.05 289.49 193.26 275.22 188.69 C 270.10 186.80 264.64 186.37 259.30 185.48 C 255.58 184.86 255.06 179.12 258.32 177.53 Z" />
<path fill="#fcfcfc" opacity="1.00" d=" M 264.24 198.35 C 266.67 197.19 269.44 198.20 271.96 198.49 C 279.91 199.88 287.46 204.94 290.49 212.62 C 292.20 217.15 293.44 222.11 292.94 226.98 C 292.23 230.54 286.90 230.57 285.35 227.64 C 284.35 225.17 284.37 222.44 283.73 219.88 C 282.62 214.68 279.00 209.96 274.00 208.00 C 270.85 206.69 267.29 207.10 264.12 205.90 C 261.13 204.45 261.22 199.70 264.24 198.35 Z" />
</g>
</svg>
