<?xml version="1.0" encoding="UTF-8" ?>
<!DOCTYPE svg PUBLIC "-//W3C//DTD SVG 1.1//EN" "http://www.w3.org/Graphics/SVG/1.1/DTD/svg11.dtd">
<svg width="512pt" height="512pt" viewBox="0 0 512 512" version="1.1" xmlns="http://www.w3.org/2000/svg">
<g id="#4068dfff">
<path fill="#4068df" opacity="1.00" d=" M 249.47 0.00 L 262.46 0.00 C 303.93 1.18 345.19 12.19 381.28 32.75 C 429.70 59.85 468.88 103.15 490.87 154.11 C 504.40 184.98 511.44 218.60 512.00 252.29 L 512.00 262.40 C 510.77 304.38 499.53 346.17 478.47 382.58 C 443.58 444.40 381.87 490.46 312.48 505.73 C 296.08 509.56 279.26 511.31 262.45 512.00 L 249.54 512.00 C 205.13 510.77 161.07 498.02 123.14 474.83 C 85.93 452.15 54.56 419.93 33.15 381.95 C 12.36 345.73 1.21 304.23 0.00 262.53 L 0.00 250.39 C 0.56 231.61 2.87 212.86 7.41 194.62 C 22.66 131.73 63.07 75.49 117.60 40.70 C 156.64 15.20 202.91 1.31 249.47 0.00 M 215.52 173.70 C 210.18 174.52 204.92 177.37 202.19 182.16 C 201.02 183.92 201.68 186.78 203.98 187.12 C 208.50 188.22 213.40 189.62 216.34 193.53 C 220.55 198.72 220.06 205.78 220.39 212.07 C 220.70 227.07 222.12 242.52 217.42 257.05 C 216.73 259.77 213.84 262.10 210.98 261.01 C 207.55 259.77 204.87 257.09 202.40 254.52 C 186.96 235.46 174.90 213.79 165.92 191.00 C 163.72 184.88 157.53 180.62 151.06 180.51 C 136.03 180.14 121.00 179.91 105.97 180.05 C 103.28 180.25 100.00 179.68 98.06 182.03 C 95.21 185.18 95.62 190.05 97.45 193.61 C 109.59 220.39 122.30 247.01 137.95 271.95 C 147.72 287.27 157.97 302.40 170.14 315.94 C 184.34 330.74 201.34 343.58 221.08 349.86 C 236.76 355.24 253.56 356.22 270.00 355.44 C 276.20 355.65 282.87 351.70 283.65 345.15 C 284.67 337.03 285.97 328.92 288.17 321.03 C 289.11 317.38 291.99 313.65 296.06 313.59 C 300.03 313.61 303.24 316.33 306.09 318.78 C 316.42 328.17 324.75 339.59 335.41 348.63 C 341.59 353.31 349.23 356.15 357.02 356.17 C 371.54 356.43 386.06 356.92 400.57 356.43 C 405.66 356.28 411.35 354.73 414.30 350.23 C 416.94 346.26 416.20 341.00 414.01 337.01 C 402.41 317.25 384.95 302.06 369.01 285.93 C 366.38 283.24 363.57 279.98 363.81 275.96 C 364.26 271.28 367.09 267.31 369.52 263.44 C 377.51 252.44 385.71 241.60 393.71 230.61 C 402.49 218.28 412.36 205.94 415.63 190.81 C 416.58 187.52 414.94 183.74 411.87 182.24 C 408.18 180.49 403.99 180.41 399.99 180.38 C 384.32 180.39 368.66 180.38 352.99 180.39 C 349.43 180.48 345.49 180.32 342.46 182.51 C 339.93 184.43 338.67 187.48 337.47 190.32 C 327.94 215.13 314.54 238.78 295.96 257.94 C 294.38 259.51 292.28 260.78 289.98 260.57 C 287.04 259.80 285.56 256.86 284.92 254.13 C 283.61 248.54 283.23 242.78 283.27 237.05 C 283.49 223.70 284.03 210.35 284.37 197.00 C 284.46 193.02 284.18 189.02 283.44 185.11 C 282.66 180.59 279.30 176.66 275.00 175.11 C 270.48 173.70 265.70 173.29 261.00 173.08 C 245.84 173.22 230.62 171.81 215.52 173.70 Z" />
</g>
<g id="#fcfcfcff">
<path fill="#fcfcfc" opacity="1.00" d=" M 215.52 173.70 C 230.62 171.81 245.84 173.22 261.00 173.08 C 265.70 173.29 270.48 173.70 275.00 175.11 C 279.30 176.66 282.66 180.59 283.44 185.11 C 284.18 189.02 284.46 193.02 284.37 197.00 C 284.03 210.35 283.49 223.70 283.27 237.05 C 283.23 242.78 283.61 248.54 284.92 254.13 C 285.56 256.86 287.04 259.80 289.98 260.57 C 292.28 260.78 294.38 259.51 295.96 257.94 C 314.54 238.78 327.94 215.13 337.47 190.32 C 338.67 187.48 339.93 184.43 342.46 182.51 C 345.49 180.32 349.43 180.48 352.99 180.39 C 368.66 180.38 384.32 180.39 399.99 180.38 C 403.99 180.41 408.18 180.49 411.87 182.24 C 414.94 183.74 416.58 187.52 415.63 190.81 C 412.36 205.94 402.49 218.28 393.71 230.61 C 385.71 241.60 377.51 252.44 369.52 263.44 C 367.09 267.31 364.26 271.28 363.81 275.96 C 363.57 279.98 366.38 283.24 369.01 285.93 C 384.95 302.06 402.41 317.25 414.01 337.01 C 416.20 341.00 416.94 346.26 414.30 350.23 C 411.35 354.73 405.66 356.28 400.57 356.43 C 386.06 356.92 371.54 356.43 357.02 356.17 C 349.23 356.15 341.59 353.31 335.41 348.63 C 324.75 339.59 316.42 328.17 306.09 318.78 C 303.24 316.33 300.03 313.61 296.06 313.59 C 291.99 313.65 289.11 317.38 288.17 321.03 C 285.97 328.92 284.67 337.03 283.65 345.15 C 282.87 351.70 276.20 355.65 270.00 355.44 C 253.56 356.22 236.76 355.24 221.08 349.86 C 201.34 343.58 184.34 330.74 170.14 315.94 C 157.97 302.40 147.72 287.27 137.95 271.95 C 122.30 247.01 109.59 220.39 97.45 193.61 C 95.62 190.05 95.21 185.18 98.06 182.03 C 100.00 179.68 103.28 180.25 105.97 180.05 C 121.00 179.91 136.03 180.14 151.06 180.51 C 157.53 180.62 163.72 184.88 165.92 191.00 C 174.90 213.79 186.96 235.46 202.40 254.52 C 204.87 257.09 207.55 259.77 210.98 261.01 C 213.84 262.10 216.73 259.77 217.42 257.05 C 222.12 242.52 220.70 227.07 220.39 212.07 C 220.06 205.78 220.55 198.72 216.34 193.53 C 213.40 189.62 208.50 188.22 203.98 187.12 C 201.68 186.78 201.02 183.92 202.19 182.16 C 204.92 177.37 210.18 174.52 215.52 173.70 Z" />
</g>
</svg>
