<?xml version="1.0" encoding="UTF-8" ?>
<!DOCTYPE svg PUBLIC "-//W3C//DTD SVG 1.1//EN" "http://www.w3.org/Graphics/SVG/1.1/DTD/svg11.dtd">
<svg width="512pt" height="512pt" viewBox="0 0 512 512" version="1.1" xmlns="http://www.w3.org/2000/svg">
<g id="#28a51aff">
<path fill="#28a51a" opacity="1.00" d=" M 249.50 0.00 L 262.47 0.00 C 303.71 1.17 344.74 12.08 380.70 32.41 C 429.13 59.38 468.43 102.51 490.54 153.37 C 504.07 183.87 511.11 217.08 512.00 250.39 L 512.00 262.44 C 510.78 303.91 499.78 345.17 479.23 381.27 C 460.63 414.47 434.47 443.38 403.37 465.30 C 375.67 484.89 344.05 498.90 310.89 506.08 C 294.99 509.69 278.72 511.33 262.45 512.00 L 249.58 512.00 C 205.18 510.79 161.14 498.03 123.20 474.88 C 71.84 443.70 31.93 394.04 13.07 336.95 C 5.02 312.96 0.82 287.77 0.00 262.51 L 0.00 250.45 C 1.13 196.11 19.99 142.28 53.49 99.45 C 75.75 70.53 104.37 46.59 136.60 29.52 C 171.27 11.07 210.27 1.14 249.50 0.00 M 225.15 99.14 C 189.82 105.98 157.17 125.48 134.16 153.11 C 113.70 177.53 100.93 208.26 98.06 239.98 C 95.04 269.71 101.09 300.12 114.54 326.75 C 109.21 352.80 103.80 378.84 98.47 404.88 C 98.15 407.18 97.11 409.61 98.00 411.90 C 99.11 415.00 102.72 416.62 105.82 415.64 C 132.31 409.44 158.79 403.18 185.25 396.83 C 212.85 410.35 244.31 416.16 274.87 412.23 C 300.38 409.21 325.13 399.91 346.24 385.26 C 367.28 370.75 384.66 351.03 396.54 328.41 C 408.59 305.58 414.73 279.74 414.68 253.94 C 414.60 224.35 405.94 194.86 390.13 169.86 C 372.62 142.25 346.46 120.07 316.07 107.88 C 287.51 96.05 255.44 93.09 225.15 99.14 Z" />
<path fill="#28a51a" opacity="1.00" d=" M 185.46 152.36 C 209.09 136.02 238.50 128.32 267.11 130.97 C 292.40 133.06 316.86 143.39 336.19 159.80 C 359.99 179.75 375.85 208.99 379.35 239.87 C 382.47 265.53 377.36 292.13 364.80 314.73 C 352.86 336.63 334.04 354.65 311.69 365.72 C 284.47 379.43 252.15 382.53 222.80 374.35 C 211.11 371.19 200.29 365.68 189.51 360.31 C 173.12 364.15 156.78 368.20 140.36 371.93 C 143.88 355.25 147.31 338.55 150.72 321.84 C 147.31 315.05 143.65 308.36 140.80 301.29 C 129.96 274.91 128.87 244.74 137.41 217.55 C 145.52 191.24 162.77 167.93 185.46 152.36 M 200.47 178.68 C 197.91 179.39 195.93 181.25 194.00 182.97 C 188.36 188.09 183.16 193.86 179.68 200.69 C 174.64 210.13 175.61 221.43 177.65 231.56 C 183.01 253.88 197.74 272.49 213.82 288.25 C 228.21 302.20 244.06 315.06 262.38 323.48 C 277.17 330.20 293.92 334.03 310.09 330.69 C 320.53 328.82 328.63 321.05 334.88 312.96 C 337.43 309.27 340.87 305.72 341.19 301.01 C 341.68 295.78 338.07 290.63 333.07 289.14 C 323.76 286.42 314.38 283.95 305.09 281.15 C 301.56 280.00 297.57 279.26 294.11 281.04 C 288.18 284.23 285.14 291.27 278.75 293.75 C 272.73 295.74 267.22 291.61 262.33 288.68 C 248.19 279.21 235.38 267.74 224.13 254.98 C 220.55 250.39 215.54 245.33 217.00 238.96 C 218.78 232.51 225.07 228.58 227.54 222.45 C 228.74 219.19 228.03 215.61 226.51 212.59 C 222.25 203.42 218.33 194.10 214.14 184.90 C 211.95 179.80 205.75 176.97 200.47 178.68 Z" />
</g>
<g id="#fcfcfcff">
<path fill="#fcfcfc" opacity="1.00" d=" M 225.15 99.14 C 255.44 93.09 287.51 96.05 316.07 107.88 C 346.46 120.07 372.62 142.25 390.13 169.86 C 405.94 194.86 414.60 224.35 414.68 253.94 C 414.73 279.74 408.59 305.58 396.54 328.41 C 384.66 351.03 367.28 370.75 346.24 385.26 C 325.13 399.91 300.38 409.21 274.87 412.23 C 244.31 416.16 212.85 410.35 185.25 396.83 C 158.79 403.18 132.31 409.44 105.82 415.64 C 102.72 416.62 99.11 415.00 98.00 411.90 C 97.11 409.61 98.15 407.18 98.47 404.88 C 103.80 378.84 109.21 352.80 114.54 326.75 C 101.09 300.12 95.04 269.71 98.06 239.98 C 100.93 208.26 113.70 177.53 134.16 153.11 C 157.17 125.48 189.82 105.98 225.15 99.14 M 185.46 152.36 C 162.77 167.93 145.52 191.24 137.41 217.55 C 128.87 244.74 129.96 274.91 140.80 301.29 C 143.65 308.36 147.31 315.05 150.72 321.84 C 147.31 338.55 143.88 355.25 140.36 371.93 C 156.78 368.20 173.12 364.15 189.51 360.31 C 200.29 365.68 211.11 371.19 222.80 374.35 C 252.15 382.53 284.47 379.43 311.69 365.72 C 334.04 354.65 352.86 336.63 364.80 314.73 C 377.36 292.13 382.47 265.53 379.35 239.87 C 375.85 208.99 359.99 179.75 336.19 159.80 C 316.86 143.39 292.40 133.06 267.11 130.97 C 238.50 128.32 209.09 136.02 185.46 152.36 Z" />
<path fill="#fcfcfc" opacity="1.00" d=" M 200.47 178.68 C 205.75 176.97 211.95 179.80 214.14 184.90 C 218.33 194.10 222.25 203.42 226.51 212.59 C 228.03 215.61 228.74 219.19 227.54 222.45 C 225.07 228.58 218.78 232.51 217.00 238.96 C 215.54 245.33 220.55 250.39 224.13 254.98 C 235.38 267.74 248.19 279.21 262.33 288.68 C 267.22 291.61 272.73 295.74 278.75 293.75 C 285.14 291.27 288.18 284.23 294.11 281.04 C 297.57 279.26 301.56 280.00 305.09 281.15 C 314.38 283.95 323.76 286.42 333.07 289.14 C 338.07 290.63 341.68 295.78 341.19 301.01 C 340.87 305.72 337.43 309.27 334.88 312.96 C 328.63 321.05 320.53 328.82 310.09 330.69 C 293.92 334.03 277.17 330.20 262.38 323.48 C 244.06 315.06 228.21 302.20 213.82 288.25 C 197.74 272.49 183.01 253.88 177.65 231.56 C 175.61 221.43 174.64 210.13 179.68 200.69 C 183.16 193.86 188.36 188.09 194.00 182.97 C 195.93 181.25 197.91 179.39 200.47 178.68 Z" />
</g>
</svg>
