<?xml version="1.0" encoding="utf-8"?>
<!-- Generator: Adobe Illustrator 25.0.0, SVG Export Plug-In . SVG Version: 6.00 Build 0)  -->
<svg version="1.2" baseProfile="tiny" id="Слой_1"
	 xmlns="http://www.w3.org/2000/svg" xmlns:xlink="http://www.w3.org/1999/xlink" x="0px" y="0px" viewBox="0 0 1535 51"
	 overflow="visible" xml:space="preserve">
<g>
	<path fill="#F0F0F0" d="M15.4,44.9h4.8V0.4h-4.8V19c-0.5,3.4-2.3,5.2-5.2,5.2c-3.4,0-5.4-2.7-5.4-6.4V0.4H0v17.7
		c0,6,2.8,10.5,8.7,10.5c2.6,0,5.2-1.2,6.8-3.5V44.9z"/>
	<path fill="#F0F0F0" d="M29.5,0.4v44.5h4.9V27.4h4.3c6.9,0,10.2-3.7,10.2-10.7v-5.3c0-6.7-2.9-10.9-9.8-10.9H29.5z M34.3,22.9V5H39
		c3.5,0,5,2,5,6.1V17c0,4.3-1.7,6-5.4,6H34.3z"/>
	<path fill="#F0F0F0" d="M61.6,20.1V5h13.1V0.4H56.7v44.5h17.9v-4.5H61.6V24.6h10.6v-4.4H61.6z"/>
	<path fill="#F0F0F0" d="M92.8,0c-6.7,0-9.7,4.3-9.7,11.1v2.8h4.5v-3c0-4,1.6-6.4,5.1-6.4c3.5,0,5.1,2.3,5.1,6.9v2
		c0,3.9-2.1,6.1-5.4,6.1h-2.3v4.4h2.1c3.7,0,5.6,2.3,5.6,6.6V34c0,4.4-1.6,6.8-5.1,6.8c-3.5,0-5.1-2.4-5.1-6.4v-4.6h-4.5v4.3
		c0,6.7,3.1,11.2,9.8,11.2c6.7,0,9.8-4.4,9.8-11.2v-3.5c0-4.4-1.7-7.9-5.4-9.1c3.5-1.3,5.4-4.6,5.4-9.2v-1.1
		C102.7,4.4,99.6,0,92.8,0z"/>
	<path fill="#F0F0F0" d="M134.5,9.1v35.8h4.6V0.4h-6.8l-6.9,35.5l-7.2-35.5h-6.8v44.5h4.2V9.5l7.2,35.4h4.7L134.5,9.1z"/>
	<path fill="#F0F0F0" d="M153.2,20.1V5h13.1V0.4h-17.9v44.5h17.9v-4.5h-13.1V24.6h10.6v-4.4H153.2z"/>
	<path fill="#F0F0F0" d="M174.9,0.4v44.5h4.9V27.4h4.3c6.9,0,10.2-3.7,10.2-10.7v-5.3c0-6.7-2.9-10.9-9.8-10.9H174.9z M179.8,22.9V5
		h4.7c3.6,0,5,2,5,6.1V17c0,4.3-1.7,6-5.4,6H179.8z"/>
	<path fill="#F0F0F0" d="M217.7,24.9v20h4.9V0.4h-4.9v20H207v-20h-4.9v44.5h4.9v-20H217.7z"/>
	<path fill="#F0F0F0" d="M231.4,34.2c0,6.7,3.3,11.2,10,11.2c6.7,0,10-4.4,10-11.2v-23c0-6.8-3.3-11.2-10-11.2
		c-6.7,0-10,4.4-10,11.2V34.2z M236.2,10.9c0-4,1.7-6.4,5.2-6.4c3.6,0,5.2,2.4,5.2,6.4v23.5c0,4.1-1.6,6.4-5.2,6.4
		c-3.5,0-5.2-2.3-5.2-6.4V10.9z"/>
	<path fill="#F0F0F0" d="M265,20.1V5H278V0.4h-17.9v44.5H278v-4.5H265V24.6h10.6v-4.4H265z"/>
	<path fill="#F0F0F0" d="M322.9,0.4h-5L314,15.9l-2.6,11.2l-3-11.2L304,0.4h-4.9l10,32.8l-1,2.9c-0.8,3.4-2.5,4.6-6.2,4.4V45
		c7.9,0.4,10.2-3.2,11.6-9.8L322.9,0.4z"/>
	<path fill="#F0F0F0" d="M346.2,5v39.9h4.9V0.4h-20.4v44.5h4.9V5H346.2z"/>
	<path fill="#F0F0F0" d="M359.8,34.2c0,6.7,3.3,11.2,10,11.2c6.7,0,10-4.4,10-11.2v-23c0-6.8-3.3-11.2-10-11.2
		c-6.7,0-10,4.4-10,11.2V34.2z M364.6,10.9c0-4,1.7-6.4,5.2-6.4c3.6,0,5.2,2.4,5.2,6.4v23.5c0,4.1-1.6,6.4-5.2,6.4
		c-3.5,0-5.2-2.3-5.2-6.4V10.9z"/>
	<path fill="#F0F0F0" d="M400.1,44.9V5h8V0.4h-20.9V5h8v39.9H400.1z"/>
	<path fill="#F0F0F0" d="M415.9,0.4v44.5h4.9V27.4h4.3c6.9,0,10.2-3.7,10.2-10.7v-5.3c0-6.7-2.9-10.9-9.8-10.9H415.9z M420.8,22.9V5
		h4.7c3.6,0,5,2,5,6.1V17c0,4.3-1.7,6-5.4,6H420.8z"/>
	<path fill="#F0F0F0" d="M448,20.1V5h13.1V0.4h-17.9v44.5h17.9v-4.5H448V24.6h10.6v-4.4H448z"/>
	<path fill="#F0F0F0" d="M474.6,18.8V5h13.6V0.4h-18.4v44.5H480c6.9,0,10-3.9,10-10.8v-4.9c0-7.1-3.5-10.4-10.3-10.4H474.6z
		 M474.6,40.4V23.2h5.1c3.6,0,5.4,1.3,5.4,5.7v5.5c0,4.1-1.6,6-5.2,6H474.6z"/>
	<path fill="#F0F0F0" d="M516.5,5v39.9h4.9V0.4h-17.7l-1.2,33.7c-0.1,4.3-0.8,6.4-4.9,6.4V45h0.8c6.7-0.1,8.5-4.1,8.8-11.1l1-28.9
		H516.5z"/>
	<path fill="#F0F0F0" d="M535.6,20.1V5h13.1V0.4h-17.9v44.5h17.9v-4.5h-13.1V24.6h10.7v-4.4H535.6z"/>
	<path fill="#F0F0F0" d="M572.9,24.9v20h4.9V0.4h-4.9v20h-10.7v-20h-4.9v44.5h4.9v-20H572.9z"/>
	<path fill="#F0F0F0" d="M603.1,9.5v35.4h4.4V0.4H602l-7,20.9l-3.9,12.3V0.4h-4.3v44.5h5l6.4-20.5L603.1,9.5z"/>
	<path fill="#F0F0F0" d="M621.4,20.1V5h13.1V0.4h-17.9v44.5h17.9v-4.5h-13.1V24.6H632v-4.4H621.4z"/>
	<path fill="#F0F0F0" d="M672.9,35.9l1.7,9h4.9l-8.3-44.5h-7l-8.3,44.5h4.5l1.7-9H672.9z M667.3,6l4.9,25.7h-9.7L667.3,6z"/>
	<path fill="#F0F0F0" d="M705,5v39.9h4.9V0.4h-17.8l-1.2,33.7c-0.1,4.3-0.8,6.4-4.9,6.4V45h0.8c6.7-0.1,8.5-4.1,8.8-11.1l1-28.9H705
		z"/>
	<path fill="#F0F0F0" d="M736,44.9h5l-11.4-24.2l11-20.3h-4.9l-11.6,21.5V0.4h-4.9v44.5h4.9V30l2.6-4.4L736,44.9z"/>
	<path fill="#F0F0F0" d="M748.5,34.2c0,6.7,3.3,11.2,10,11.2c6.7,0,10-4.4,10-11.2v-23c0-6.8-3.3-11.2-10-11.2
		c-6.7,0-10,4.4-10,11.2V34.2z M753.3,10.9c0-4,1.7-6.4,5.2-6.4c3.6,0,5.2,2.4,5.2,6.4v23.5c0,4.1-1.6,6.4-5.2,6.4
		c-3.5,0-5.2-2.3-5.2-6.4V10.9z"/>
	<path fill="#F0F0F0" d="M794.6,5V0.4h-17.4v44.5h4.8V5H794.6z"/>
	<path fill="#F0F0F0" d="M803.2,34.2c0,6.7,3.3,11.2,10,11.2c6.7,0,10-4.4,10-11.2v-23c0-6.8-3.3-11.2-10-11.2
		c-6.7,0-10,4.4-10,11.2V34.2z M808,10.9c0-4,1.7-6.4,5.2-6.4c3.5,0,5.2,2.4,5.2,6.4v23.5c0,4.1-1.6,6.4-5.2,6.4
		c-3.5,0-5.2-2.3-5.2-6.4V10.9z"/>
	<path fill="#F0F0F0" d="M849.5,5v39.9h4.9V0.4h-17.8l-1.2,33.7c-0.1,4.3-0.8,6.4-4.9,6.4V45h0.8c6.7-0.1,8.5-4.1,8.8-11.1l1-28.9
		H849.5z"/>
	<path fill="#F0F0F0" d="M878.4,25.9v19h4.9V0.4h-9.7c-6.9,0-9.7,3.6-9.7,10.2v3.6c0,4.9,1.7,7.9,5.4,9.1c-3.9,1.2-5.4,4.5-5.4,9.3
		v6.9c0,2-0.1,3.8-0.9,5.3h4.9c0.6-1.3,0.8-2.4,0.8-5.4v-7c0-5,2.3-6.6,6.4-6.6H878.4z M878.4,5v16.4h-3.7c-3.8,0-6.1-1.3-6.1-6.1
		v-4.3c0-4,1.4-6.1,5-6.1H878.4z"/>
	<path fill="#F0F0F0" d="M906.2,0.4v44.5h10c6.8,0,10-3.7,10-10.4v-3.7c0-4.9-1.6-8.3-5.9-9.5c3.8-1.2,5.1-4.1,5.1-8.8v-2.1
		c0-6.5-2.7-9.8-9.5-9.8H906.2z M911.1,19.3V5h4.8c3.5,0,4.8,1.9,4.8,5.8v2.6c0,4.6-2,5.9-5.9,5.9H911.1z M911.1,40.4V23.8h4.2
		c4.2,0,6.1,1.7,6.1,6.6v3.9c0,4.1-1.6,6-5.2,6H911.1z"/>
	<path fill="#F0F0F0" d="M934.8,0.4v44.5h4.9V27.4h4.3c6.9,0,10.2-3.7,10.2-10.7v-5.3c0-6.7-2.9-10.9-9.8-10.9H934.8z M939.6,22.9V5
		h4.7c3.5,0,5,2,5,6.1V17c0,4.3-1.7,6-5.4,6H939.6z"/>
	<path fill="#F0F0F0" d="M966.9,20.1V5H980V0.4H962v44.5H980v-4.5h-13.1V24.6h10.7v-4.4H966.9z"/>
	<path fill="#F0F0F0" d="M1014.8,51V40.5h-3.3V0.4H994L992.3,34c-0.1,2.7-0.4,4.8-1.9,6.5h-2.8V51h4.7v-6.1h17.8V51H1014.8z
		 M998.5,5h8.1v35.6h-11.5c1.4-1.5,1.8-3.4,2-6.5L998.5,5z"/>
	<path fill="#F0F0F0" d="M1039.4,9.5v35.4h4.4V0.4h-5.4l-7,20.9l-3.9,12.3V0.4h-4.3v44.5h5.1l6.4-20.5L1039.4,9.5z"/>
	<path fill="#F0F0F0" d="M1064.4,44.9V5h8V0.4h-20.9V5h8v39.9H1064.4z"/>
	<path fill="#F0F0F0" d="M1094,0.4v44.5h10c6.8,0,10-3.7,10-10.4v-3.7c0-4.9-1.6-8.3-5.8-9.5c3.8-1.2,5.1-4.1,5.1-8.8v-2.1
		c0-6.5-2.7-9.8-9.5-9.8H1094z M1098.9,19.3V5h4.8c3.5,0,4.8,1.9,4.8,5.8v2.6c0,4.6-2,5.9-5.8,5.9H1098.9z M1098.9,40.4V23.8h4.2
		c4.2,0,6.1,1.7,6.1,6.6v3.9c0,4.1-1.6,6-5.2,6H1098.9z"/>
	<path fill="#F0F0F0" d="M1138.5,35.9l1.7,9h4.9l-8.4-44.5h-7l-8.3,44.5h4.5l1.7-9H1138.5z M1132.9,6l4.9,25.7h-9.7L1132.9,6z"/>
	<path fill="#F0F0F0" d="M1153,0.4v44.5h31.2V0.4h-4.8v39.9h-8.3V0.4h-4.9v39.9h-8.3V0.4H1153z"/>
	<path fill="#F0F0F0" d="M1198.2,20.1V5h13.1V0.4h-17.9v44.5h17.9v-4.5h-13.1V24.6h10.6v-4.4H1198.2z"/>
	<path fill="#F0F0F0" d="M1242.9,9.1v35.8h4.6V0.4h-6.8l-6.9,35.5l-7.2-35.5h-6.8v44.5h4.2V9.5l7.2,35.4h4.7L1242.9,9.1z"/>
	<path fill="#F0F0F0" d="M1279.1,0.4h-5l-3.9,15.4l-2.6,11.2l-3-11.2l-4.4-15.4h-4.9l10,32.8l-1,2.9c-0.8,3.4-2.5,4.6-6.2,4.4V45
		c7.9,0.4,10.2-3.2,11.6-9.8L1279.1,0.4z"/>
	<path fill="#F0F0F0" d="M1310.1,0c-6.7,0-9.7,4.3-9.7,11.1v2.8h4.5v-3c0-4,1.6-6.4,5.1-6.4c3.6,0,5.1,2.3,5.1,6.9v2
		c0,3.9-2.1,6.1-5.4,6.1h-2.3v4.4h2.1c3.7,0,5.6,2.3,5.6,6.6V34c0,4.4-1.6,6.8-5.1,6.8c-3.5,0-5.1-2.4-5.1-6.4v-4.6h-4.6v4.3
		c0,6.7,3.1,11.2,9.8,11.2c6.7,0,9.8-4.4,9.8-11.2v-3.5c0-4.4-1.7-7.9-5.4-9.1c3.6-1.3,5.4-4.6,5.4-9.2v-1.1
		C1320,4.4,1316.9,0,1310.1,0z"/>
	<path fill="#F0F0F0" d="M1355.1,51V40.5h-3.3V0.4h-17.5l-1.7,33.6c-0.1,2.7-0.4,4.8-1.9,6.5h-2.8V51h4.7v-6.1h17.8V51H1355.1z
		 M1338.8,5h8.1v35.6h-11.5c1.4-1.5,1.8-3.4,2-6.5L1338.8,5z"/>
	<path fill="#F0F0F0" d="M1363.1,34.2c0,6.7,3.3,11.2,10,11.2c6.7,0,10-4.4,10-11.2v-23c0-6.8-3.3-11.2-10-11.2
		c-6.7,0-10,4.4-10,11.2V34.2z M1367.9,10.9c0-4,1.7-6.4,5.2-6.4c3.5,0,5.2,2.4,5.2,6.4v23.5c0,4.1-1.6,6.4-5.2,6.4
		c-3.5,0-5.2-2.3-5.2-6.4V10.9z"/>
	<path fill="#F0F0F0" d="M1391.8,0.4v44.5h4.9V27.4h4.3c6.9,0,10.2-3.7,10.2-10.7v-5.3c0-6.7-2.9-10.9-9.8-10.9H1391.8z
		 M1396.7,22.9V5h4.7c3.6,0,5,2,5,6.1V17c0,4.3-1.8,6-5.4,6H1396.7z"/>
	<path fill="#F0F0F0" d="M1418.7,34.2c0,6.7,3.3,11.2,10,11.2c6.7,0,10-4.4,10-11.2v-23c0-6.8-3.3-11.2-10-11.2
		c-6.7,0-10,4.4-10,11.2V34.2z M1423.5,10.9c0-4,1.7-6.4,5.2-6.4c3.5,0,5.2,2.4,5.2,6.4v23.5c0,4.1-1.6,6.4-5.2,6.4
		c-3.5,0-5.2-2.3-5.2-6.4V10.9z"/>
	<path fill="#F0F0F0" d="M1447.4,0.4v44.5h10c6.8,0,10-3.7,10-10.4v-3.7c0-4.9-1.6-8.3-5.8-9.5c3.8-1.2,5.1-4.1,5.1-8.8v-2.1
		c0-6.5-2.7-9.8-9.5-9.8H1447.4z M1452.3,19.3V5h4.8c3.5,0,4.8,1.9,4.8,5.8v2.6c0,4.6-2,5.9-5.9,5.9H1452.3z M1452.3,40.4V23.8h4.2
		c4.2,0,6.1,1.7,6.1,6.6v3.9c0,4.1-1.6,6-5.2,6H1452.3z"/>
	<path fill="#F0F0F0" d="M1480.8,18V0.4h-4.9v44.5h9.5c6.8,0,9.8-4.1,9.8-10.9v-5.3c0-7-3.2-10.7-10.2-10.7H1480.8z M1480.8,40.4
		v-18h4.3c3.6,0,5.4,1.7,5.4,6v5.9c0,4.1-1.4,6.1-5,6.1H1480.8z"/>
	<path fill="#F0F0F0" d="M1525,0c-6.7,0-10,4.4-10,11.2v9.3h-6.3v-20h-4.9v44.5h4.9v-20h6.3v9.3c0,6.7,3.3,11.2,10,11.2
		c6.7,0,10-4.4,10-11.2v-23C1535,4.4,1531.7,0,1525,0z M1525,4.5c3.5,0,5.2,2.3,5.2,6.4v23.5c0,4-1.7,6.4-5.2,6.4
		c-3.6,0-5.2-2.4-5.2-6.4V10.9C1519.9,6.9,1521.5,4.5,1525,4.5z"/>
</g>
</svg>
