<?xml version="1.0" encoding="utf-8"?>
<!-- Generator: Adobe Illustrator 25.0.0, SVG Export Plug-In . SVG Version: 6.00 Build 0)  -->
<svg version="1.2" baseProfile="tiny" id="Слой_1"
	 xmlns="http://www.w3.org/2000/svg" xmlns:xlink="http://www.w3.org/1999/xlink" x="0px" y="0px" viewBox="0 0 512 512"
	 overflow="visible" xml:space="preserve">
<g id="_x23_000000ff">
	<path fill="#EC5C2A" d="M167.5,20.4c2-3.8,7-5.7,10.9-3.6c4.1,2,5.7,7.8,3,11.6c-26.6,41.2-53.2,82.4-79.9,123.6
		c102.2,0,204.3,0,306.4,0c-25.9-40-51.8-80.1-77.7-120.1c-1.7-2.7-4.1-5.4-3.5-8.9c0.5-4.7,5.7-8.3,10.2-6.7
		c3.4,0.9,5.1,4.2,6.9,6.9c27.7,42.9,55.5,85.8,83.2,128.7c12,0.1,24-0.2,36.1,0c7.7,0.1,15.3,3,20.9,8.2
		c8.1,7.1,12.1,18.5,10.2,29.1c-2.1,13.4-13.7,24.5-27.1,26.3C452.3,298,437.7,380.5,423,463c-1.2,7.7-3.4,15.4-8.4,21.6
		c-5.8,7.5-15.2,11.6-24.6,11.4c-90.3,0.2-180.6,0.2-270.9,0.4c-9.5,0.2-19.1-4.1-24.6-12c-5.9-7.9-7.4-17.9-9-27.3
		c-1.9-10.2-3.5-20.5-5.6-30.6C62.6,423.3,46.6,414.1,35,401c-13.8-15.3-21.2-36.3-20-56.9c1.1-26.1,16.3-51,38.8-64.3
		c-3.7-21.4-7.6-42.8-11.4-64.2c-10.4-1.4-19.8-8.1-24.5-17.6c-5.5-10.8-3.9-24.8,3.9-34.1c5.8-7.2,14.8-11.8,24.1-11.9
		c12.2-0.2,24.4,0.2,36.5-0.2C110.7,107.9,139.2,64.2,167.5,20.4 M42.4,168.5c-7.9,1.9-13.2,10.6-11.4,18.6
		c1.3,7.9,9.2,13.6,17.1,12.9c135.6,0.1,271.3,0,406.9,0c5.8-0.1,12.1,0.8,17-2.9c7.8-5.2,8.9-17.6,2.2-24.3
		c-3.8-4.2-9.8-5.2-15.2-4.9c-135.4,0-270.7,0-406.1,0C49.5,168,45.9,167.7,42.4,168.5 M58.8,216c3.3,18.9,6.8,37.8,10.1,56.7
		c11-3.5,22.6-5.1,34.1-3.9c17.9,1.8,35,9.9,47.8,22.6c0.1-9.2-0.1-18.3,0-27.4c0-4.3,3.9-8.1,8.2-7.9c4.1,0,7.8,3.7,7.7,7.9
		c0.1,14.7,0,29.4,0,44.1c0.1,2.5-0.4,5.2,0.7,7.5c4,8.9,6.5,18.6,7,28.4c0.8,13.4-2.4,26.8-7.7,39c-0.2,13.7,0.1,27.3,0.1,41
		c-0.1,3.5,0.3,7.1-0.3,10.6c-1.1,4.3-6.1,6.5-10.2,5.2c-3.4-0.9-5.7-4.3-5.5-7.8c-0.1-9-0.1-18-0.1-27
		c-14.3,14.1-34,22.5-54.1,22.9c2,11.5,4.1,23.1,6.2,34.6c1.2,5.5,2.8,11.6,7.4,15.3c3,2.5,7.2,2.5,10.9,2.5c89-0.1,178-0.1,267-0.4
		c3.6,0,7.6,0.1,10.7-2.2c5.5-3.8,7.4-10.7,8.4-16.9c14.6-81.6,29.1-163.3,43.6-244.9C320.1,216,189.4,216,58.8,216 M84.2,285.2
		c-16.4,2.6-31.6,12.1-41.3,25.7c-15.6,21-16,51.8-0.9,73.1c9.5,14.2,25.1,24.3,42.1,27.1c15.9,2.7,32.8-0.8,46.2-9.9
		c13.1-8.7,22.8-22.5,26.4-37.8c2.7-11.2,2.4-23.2-1-34.2c-4.8-15.7-16.1-29.4-30.6-37.1C112.7,285.2,98,283,84.2,285.2z"/>
	<path fill="#EC5C2A" d="M220.3,256.5c4.9-1.8,10.6,2.4,10.4,7.5c0.1,55.3,0,110.7,0.1,166c0,2.4-0.1,5.1-1.8,7.1
		c-3,3.7-9.3,3.8-12.4,0.1c-1.6-1.7-1.9-4.1-1.9-6.3c0-55.4,0-110.7,0-166C214.5,261.3,216.7,257.5,220.3,256.5z"/>
	<path fill="#EC5C2A" d="M284.3,256.5c3.5-1.2,7.8,0.5,9.5,3.8c1,1.7,1,3.8,1,5.8c-0.1,55.4,0,110.7,0,166.1
		c0.4,4.4-3.4,8.4-7.8,8.2c-4.6,0.4-8.6-3.8-8.2-8.4c0-55.9,0-111.9,0-167.8C278.7,260.8,281,257.5,284.3,256.5z"/>
	<path fill="#EC5C2A" d="M348.3,256.5c4.9-1.8,10.6,2.3,10.4,7.5c0.1,56,0,112,0,168c0.3,4.1-2.9,8-7,8.3c-4.3,0.7-9-2.7-8.9-7.2
		c-0.1-56.4,0-112.7,0-169C342.8,260.6,345.1,257.4,348.3,256.5z"/>
	<path fill="#EC5C2A" d="M86.7,316.2c-0.2-4.1,3.2-7.8,7.3-8.1c4.5-0.5,8.8,3.4,8.6,7.9c0.1,8.1,0,16.1,0,24.2
		c8.4,0.1,16.9-0.1,25.4,0.1c5.8,0.3,8.6,7.7,5.6,12.3c-1.5,2.7-4.7,3.7-7.7,3.6c-7.8,0-15.5,0-23.3,0c-0.1,8.3,0.1,16.6-0.1,24.8
		c0,4-3.6,7.3-7.6,7.3c-4.2,0.4-8.3-3-8.3-7.3c-0.2-8.3,0-16.5-0.1-24.8c-8.6-0.1-17.1,0.2-25.7-0.1c-4.8-0.2-7.9-5.6-6.6-10
		c0.8-3.5,4.2-5.9,7.7-5.9c8.2-0.1,16.4,0,24.6,0C86.7,332.2,86.6,324.2,86.7,316.2z"/>
</g>
</svg>
