<?xml version="1.0" encoding="utf-8"?>
<!-- Generator: Adobe Illustrator 25.0.0, SVG Export Plug-In . SVG Version: 6.00 Build 0)  -->
<svg version="1.1" id="Слой_1" xmlns="http://www.w3.org/2000/svg" xmlns:xlink="http://www.w3.org/1999/xlink" x="0px" y="0px"
	 viewBox="0 0 512 512" style="enable-background:new 0 0 512 512;" xml:space="preserve">
<style type="text/css">
	.st0{fill:#35393E;}
</style>
<g id="_x23_000000ff">
	<path class="st0" d="M351.7,125.9c0.6,7.1-2.7,14.2-8.3,18.5c-43.3,37-86.6,74.2-129.9,111.2c44.2,38.1,88.6,75.9,132.9,113.9
		c5.8,5.6,7.9,14.5,5.2,22.1c-2.5,7.3-9.1,12.9-16.7,14.1c-5.9,0.9-12.2-0.6-16.8-4.4c-49.6-42.5-99.3-85-148.9-127.5
		c-4.1-3.3-7.7-7.6-9-12.8c-2.2-7.9,0.8-16.7,7.1-21.9c49.6-42.4,99.1-84.9,148.7-127.3c5.3-4.9,13.1-7,20.1-5
		C344.7,108.9,351.4,117,351.7,125.9z"/>
</g>
</svg>
