<svg xmlns="http://www.w3.org/2000/svg" viewBox="0 0 193.28 299.91"><defs><style>.cls-1{fill:#ec5c2a;}</style></defs><g id="Слой_2" data-name="Слой 2"><g id="Слой_1-2" data-name="Слой 1"><g id="_000000ff" data-name="#000000ff"><path class="cls-1" d="M16.66.75a21.46,21.46,0,0,1,20.1,5q74.4,63.6,148.7,127.3a21.48,21.48,0,0,1,7.1,21.9c-1.3,5.2-4.9,9.5-9,12.8q-74.4,63.75-148.9,127.5a21.33,21.33,0,0,1-33.5-9.7,21.31,21.31,0,0,1,5.2-22.1c44.3-38,88.7-75.8,132.9-113.9Q74.31,94,9.36,38.35a21.42,21.42,0,0,1-8.3-18.5A20.91,20.91,0,0,1,16.66.75Z"/></g></g></g></svg>