<?xml version="1.0" encoding="utf-8"?>
<!-- Generator: Adobe Illustrator 25.0.0, SVG Export Plug-In . SVG Version: 6.00 Build 0)  -->
<svg version="1.1" id="Слой_1" xmlns="http://www.w3.org/2000/svg" xmlns:xlink="http://www.w3.org/1999/xlink" x="0px" y="0px"
	 viewBox="0 0 512 512" style="enable-background:new 0 0 512 512;" xml:space="preserve">
<style type="text/css">
	.st0{fill:#FFFFFF;}
</style>
<g id="_x23_000000ff">
	<path class="st0" d="M342,142.9c2.2-7.6,9-13.8,16.9-14.9c6.8-1.2,14.1,1.1,18.9,6.1c35.3,35.4,70.7,70.7,106,106.1
		c8.7,7.7,9.2,22.3,0.9,30.5c-34.9,35.1-69.9,70-104.9,105.1c-3.9,4.2-8.9,8-14.9,8.5c-12.1,1.4-23.8-9.3-24-21.4
		c-0.2-5.8,2.6-11.4,6.7-15.4c23.4-23.4,46.8-46.8,70.1-70.1c-125.3-0.1-250.5,0-375.8,0c-5.9,0.1-11.9-2-15.8-6.5
		c-7.1-7.9-7.3-21-0.3-29c4.2-4.9,10.8-7.3,17.1-7.2c125,0,250,0,375,0c-23.6-23.6-47.3-47.2-70.9-70.8
		C341.7,158.5,339.6,150.2,342,142.9z"/>
</g>
</svg>
