<?xml version="1.0" encoding="utf-8"?>
<!-- Generator: Adobe Illustrator 25.0.0, SVG Export Plug-In . SVG Version: 6.00 Build 0)  -->
<svg version="1.1" id="Слой_1" xmlns="http://www.w3.org/2000/svg" xmlns:xlink="http://www.w3.org/1999/xlink" x="0px" y="0px"
	 viewBox="0 0 512 512" style="enable-background:new 0 0 512 512;" xml:space="preserve">
<style type="text/css">
	.st0{fill:#35393E;}
</style>
<g id="_x23_000000ff">
	<path class="st0" d="M176.1,106.8c7-2,14.8,0.1,20.1,5c49.6,42.4,99.1,84.9,148.7,127.3c6.3,5.2,9.3,14,7.1,21.9
		c-1.3,5.2-4.9,9.5-9,12.8c-49.6,42.5-99.3,85-148.9,127.5c-4.6,3.8-10.9,5.3-16.8,4.4c-7.6-1.2-14.2-6.8-16.7-14.1
		c-2.7-7.6-0.6-16.5,5.2-22.1c44.3-38,88.7-75.8,132.9-113.9c-43.3-37-86.6-74.2-129.9-111.2c-5.6-4.3-8.9-11.4-8.3-18.5
		C160.8,117,167.5,108.9,176.1,106.8z"/>
</g>
</svg>
