<?xml version="1.0" encoding="utf-8"?>
<!-- Generator: Adobe Illustrator 25.0.0, SVG Export Plug-In . SVG Version: 6.00 Build 0)  -->
<svg version="1.1" id="Слой_1" xmlns="http://www.w3.org/2000/svg" xmlns:xlink="http://www.w3.org/1999/xlink" x="0px" y="0px"
	 viewBox="0 0 512 512" style="enable-background:new 0 0 512 512;" xml:space="preserve">
<style type="text/css">
	.st0{fill:#BBBBBB;}
</style>
<g id="_x23_000000ff">
	<path class="st0" d="M121,161.1c5.9-2,12.7-1.1,18,2.2c3.4,2.1,5.8,5.4,8.4,8.3c36.2,42.1,72.2,84.5,108.5,126.5
		c37.5-43.7,74.9-87.4,112.3-131.1c5.8-7,16.3-9.4,24.5-5.7c8,3.3,13.4,11.9,12.9,20.6c-0.2,4.9-2.2,9.6-5.4,13.3
		c-42.8,49.9-85.5,99.9-128.3,149.7c-5.1,5.9-13.5,8.7-21.1,6.8c-4.5-1-8.5-3.7-11.5-7.2c-42.4-49.5-84.8-99-127.1-148.6
		c-4.7-5-6.9-12.2-5.4-19C108.2,169.7,113.8,163.3,121,161.1z"/>
</g>
</svg>
