<svg xmlns="http://www.w3.org/2000/svg" viewBox="0 0 299.3 192.72"><defs><style>.cls-1{fill:#bbb;}</style></defs><g id="Слой_2" data-name="Слой 2"><g id="Слой_1-2" data-name="Слой 1"><g id="_000000ff" data-name="#000000ff"><path class="cls-1" d="M14.67,1.53a21.55,21.55,0,0,1,18,2.2c3.4,2.1,5.8,5.4,8.4,8.3,36.2,42.1,72.2,84.5,108.5,126.5Q205.82,73,261.87,7.43a21.28,21.28,0,0,1,37.4,14.9,21.86,21.86,0,0,1-5.4,13.3q-64.2,74.85-128.3,149.7a21.31,21.31,0,0,1-32.6-.4Q69.37,110.68,5.87,36.33a21.36,21.36,0,0,1-5.4-19A21.08,21.08,0,0,1,14.67,1.53Z"/></g></g></g></svg>