<?xml version="1.0" encoding="utf-8"?>
<!-- Generator: Adobe Illustrator 25.0.0, SVG Export Plug-In . SVG Version: 6.00 Build 0)  -->
<svg version="1.2" baseProfile="tiny" id="Слой_1"
	 xmlns="http://www.w3.org/2000/svg" xmlns:xlink="http://www.w3.org/1999/xlink" x="0px" y="0px" viewBox="0 0 512 512"
	 overflow="visible" xml:space="preserve">
<g>
	<path fill="#EC5C2A" d="M361.1,207c-2.3-13.2-15.7-23.1-29-21.3c-13.7,1.3-24.7,14.5-23.4,28.2c0.6,10.9,8.7,20.5,19,23.7
		c-0.1,10.4,0,20.9-0.1,31.4c-0.1,9.3,0.6,18.8-1.6,27.9c-4.4,21.2-19.1,39.9-38.7,49.4c-16.7,8.2-36.7,9.4-54.3,3.5
		c-15.6-5.3-29.2-16.1-37.8-30.1c-6.9-10.9-10.7-23.8-10.8-36.7c-0.1-15.2,0-30.3,0-45.4c12.3-3.6,21-16.8,18.6-29.6
		c-1.8-13.2-14.7-23.6-28-22.3c-14.2,0.6-26,14.2-24.6,28.3c0.6,10.9,8.7,20.4,19,23.7c-0.2,14.5,0,28.9,0,43.4
		c-0.1,11.1,1.9,22.3,6,32.6c7.3,18.6,21.3,34.5,38.9,44.1c15.3,8.5,33.3,12.1,50.7,10.3c20.8-2.1,40.6-12.1,54.7-27.5
		c13.9-15,22.2-35.1,22.9-55.5c0.3-15.9-0.1-31.8,0.2-47.6C355.4,233.9,364,220,361.1,207z M166.1,215.9c-2.1-5.5,0.8-12.2,6.2-14.4
		c6.1-2.8,14,0.9,15.6,7.4c1.9,5.9-1.9,12.6-7.8,14.2C174.5,224.9,167.9,221.5,166.1,215.9z M337,223.4c-6,1.2-12.3-3.3-13.2-9.4
		c-1.1-5.3,2.3-11.1,7.4-12.8c6-2.3,13.4,1.5,14.9,7.8C348.1,215.3,343.5,222.5,337,223.4z"/>
	<path fill="#EC5C2A" d="M442.1,475.7c-6-71.2-12.1-142.5-18.2-213.7l-7.7-90.4c-0.9-9.9-7.5-19-16.7-22.7c-4-1.7-8.5-2.2-12.8-2.1
		c-12.2,0-24.5,0-36.7,0c1.2-5.2,2.4-10.4,3.5-15.6c2-11-1.7-22.8-9.7-30.5c-4.3-4.5-10-7.9-12.4-13.9c-2-4.4-1.6-9.4-0.5-14
		c3.4-15.4,7-30.9,10.3-46.3c1.9-9.1-4.4-18.8-13.5-20.7c-7.8-1.8-15.5-3.6-23.4-5.1h-3.9c-7.1,1.3-13.5,6.6-15,13.8
		c-3.6,16.1-7.3,32.1-10.8,48.2c-1.2,5.8-5.2,10.9-10.6,13.3c-1.3,0.5-2.5,1-3.8,1.4c-0.2-1.1-0.4-2.2-0.5-3.3
		c-1.4-7.5-6.9-38.9-9.4-46.2c-3.8-9.5-14.4-15.8-24.6-14.2c-21.6,3.2-43.3,6.5-64.9,9.8c-12.1,1.7-21.2,14.1-19.2,26.2
		c4.8,32.4,9.8,64.8,14.5,97.2c-17.1,0.1-34.3-0.1-51.4,0.1c-13.1,0.5-24.6,11.7-25.5,24.8l-22.4,263c0,0-2.7,32-4.1,48
		c-0.9,9,3,18.3,10.1,23.9c4.1,3.5,9.4,5.3,14.6,6.2H418c9.8-1.3,19-7.7,22.6-17C443.5,489.3,442.8,482.3,442.1,475.7z M300.1,17.8
		c0.4-2,2.8-2.5,4.5-1.9c6.5,1.5,13,2.8,19.4,4.3c1.5,0.2,2.8,1.8,2.4,3.4c-1.1,5.9-2.7,11.7-3.8,17.6c-8.9-1.9-17.8-3.7-26.6-6
		C297.6,29.4,298.6,23.5,300.1,17.8z M271.7,88.8c8.3-4.3,14.6-12.2,17-21.2c1.5-5.8,2.7-11.7,4-17.6c8.9,2,17.8,3.7,26.6,6
		c-1.5,6.8-3.4,13.5-4.3,20.5c-0.8,9.3,2.4,19,8.8,25.8c3.9,4.4,9.1,7.6,12.4,12.6c2.7,4.3,3.5,9.7,2.3,14.7
		c-1.3,5.7-2.5,11.4-3.8,17.1c-33,0-66.1,0-99.2,0c2.9-12.9,5.8-25.8,8.7-38.8c1.3-6,5.8-11.3,11.6-13.5
		C261,92.5,266.7,91.4,271.7,88.8z M158.3,41.1c2.2-2.9,6.1-3.1,9.4-3.6c19.7-3,39.4-5.9,59-8.9c4.2-1.1,9.1,1.6,10.1,5.9
		c1.7,8.3,6.8,36.3,9.1,48c-0.1,0-0.1,0.1-0.2,0.1c-7.8,4.5-13.7,12.1-15.9,20.9c-3.4,14.4-6.3,28.9-9.8,43.2
		c-16.2-0.1-32.3-0.1-48.5,0c-5.2-32-9.6-64.1-14.6-96.1C156.3,47.5,155.9,43.7,158.3,41.1z M426.5,490.5c-2.1,4.4-6.9,7.3-11.8,7.1
		c-109,0-218,0-327.1,0c-4.5-0.2-9.3,0.7-13.4-1.5c-4.5-2.3-7.2-7.6-6.6-12.6c1.2-14.5,3.7-43.4,3.7-43.4l22.7-266.6
		c0.3-4.4,2.9-8.6,7-10.5c3.6-1.8,7.7-1.2,11.6-1.3c92,0,184,0,276,0c7.4-0.4,13.1,6.7,12.8,13.8l25.7,302
		C427.5,481.8,428.6,486.5,426.5,490.5z"/>
</g>
</svg>
