<svg xmlns="http://www.w3.org/2000/svg" width="50" height="50" viewBox="0 0 50 50">
  <defs>
    <style>
      .cls-1 {
        fill: #006cff;
        fill-rule: evenodd;
      }
    </style>
  </defs>
  <path id="Фигура_1557" data-name="Фигура 1557" class="cls-1" d="M285,2859a25,25,0,1,1-25,25A25,25,0,0,1,285,2859Zm1.453,3.05a22.563,22.563,0,0,1,7.358,1.8,21.9,21.9,0,0,1,5.372,3.34c0.348,0.28.654,0.6,0.986,0.89a22.2,22.2,0,0,1,5.8,9.28,22.594,22.594,0,0,1,.721,3,21.572,21.572,0,0,1,.287,4.49,22.54,22.54,0,0,1-1.621,7.49,22.039,22.039,0,0,1-21.79,13.61,24.449,24.449,0,0,1-3.989-.65,24.947,24.947,0,0,1-2.913-.95c-0.2-.1-0.416-0.18-0.622-0.27a22.007,22.007,0,0,1-12.735-16.52c-0.1-.66-0.2-1.32-0.238-1.98a23.783,23.783,0,0,1-.012-3.02,22.826,22.826,0,0,1,1.6-6.9,22.02,22.02,0,0,1,16.788-13.37A22.109,22.109,0,0,1,286.453,2862.05Zm-1.051,1.87a19.969,19.969,0,0,0-7.263,1.2,20.036,20.036,0,0,0-11.319,10.33,20.059,20.059,0,0,0,17.875,28.64,17.67,17.67,0,0,0,2.622-.13,20.127,20.127,0,0,0,15.871-11.42,19.832,19.832,0,0,0,1.906-8.23c0-.17,0-0.33,0-0.5A20.082,20.082,0,0,0,285.4,2863.92Zm2.013,7.17a1.046,1.046,0,0,1,.659-0.39,0.937,0.937,0,0,1,1.053.86,2.344,2.344,0,0,1-.1.57c-0.3,1.11-.648,2.21-0.923,3.33-0.245.61-.34,1.26-0.539,1.89-0.237.65-.365,1.33-0.558,1.99l-0.052.06c-0.1.44-.228,0.87-0.349,1.31,2.492,0.57,4.987,1.17,7.478,1.72a0.957,0.957,0,0,1,.28,1.37c-0.508.61-1.058,1.19-1.591,1.78-1.279,1.44-2.584,2.84-3.861,4.28q-2.379,2.61-4.744,5.24c-0.582.62-1.12,1.27-1.717,1.87a0.953,0.953,0,0,1-1.519-.28,1.15,1.15,0,0,1,0-.74c0.357-1.33.763-2.65,1.1-3.99,0.249-.61.338-1.26,0.539-1.89,0.3-.92.5-1.87,0.794-2.79q-3.6-.825-7.2-1.67a1.07,1.07,0,0,1-.742-0.88,1.256,1.256,0,0,1,.273-0.69c0.5-.56,1-1.11,1.5-1.66,1.3-1.44,2.622-2.88,3.921-4.33q2.38-2.625,4.744-5.25C286.384,2872.24,286.889,2871.65,287.415,2871.09Zm-3.4,6.61c-0.32.39-.689,0.73-1.008,1.12-0.291.33-.593,0.64-0.883,0.97-1.268,1.39-2.516,2.79-3.795,4.17-0.034.07-.067,0.14-0.1,0.22q3.246,0.735,6.49,1.5a0.892,0.892,0,0,1,.747.8c0.02,0.12-.072.29,0.07,0.36l-0.105.04c-0.226.73-.345,1.48-0.612,2.2-0.284,1.23-.719,2.42-0.976,3.66a9.262,9.262,0,0,1,.935-1.08c0.734-.83,1.489-1.65,2.227-2.48,0.29-.32.594-0.64,0.881-0.97,1.3-1.44,2.628-2.86,3.9-4.32-2.134-.51-4.274-0.99-6.408-1.49a1.109,1.109,0,0,1-.812-0.58,2.225,2.225,0,0,1,.2-1.49c0.2-.63.3-1.28,0.537-1.89,0.238-1.04.594-2.04,0.836-3.08C285.422,2876.14,284.72,2876.92,284.012,2877.7Z" transform="translate(-260 -2859)"/>
</svg>
