<?xml version="1.0" encoding="utf-8"?>
<!-- Generator: Adobe Illustrator 25.0.0, SVG Export Plug-In . SVG Version: 6.00 Build 0)  -->
<svg version="1.1" id="Слой_1" xmlns="http://www.w3.org/2000/svg" xmlns:xlink="http://www.w3.org/1999/xlink" x="0px" y="0px"
	 viewBox="0 0 512 512" style="enable-background:new 0 0 512 512;" xml:space="preserve">
<style type="text/css">
	.st0{fill:#EC5C2A;}
</style>
<g id="_x23_000000ff">
	<path class="st0" d="M140.9,278.1c-8.7-5.4-17.8-10-26-16.1c-19.5-15.4-24-61.3-43-74.7c8.3-30.9,21.7-61,27-92.4
		c-1.2-21.6-32.8-27-41.4-7.3c-15.1,28.2-30.2,56.4-45.3,84.6c-3.3,6-5.3,12.8-5.9,19.6c-2.1,24.4-4.1,48.8-6.1,73.1
		c-0.5,6.7,0,13.7,2.6,20c2.2,4.4,7.3,13.5,12.6,19.3C29.1,322,59.9,361.7,71.6,377c7.8,5.5-15.7,50.2-18.2,61.7
		c-4.2,6.6,1.6,15.8,9.3,12.2c2.4-1.1,3.5-3.6,4.4-5.9c6.3-16.9,12.6-33.9,19-50.8c4.2-9.1,3.1-19.7-3.4-27.4
		c-10.8-14.1-38.6-50-52.9-68.4c-6.5-9.7-16.8-18.6-14.7-31.4c4.4-29.1,0.7-60.5,10.7-88.2C41,150.6,56,122.4,71.2,94.3
		c1.3-2.9,4.5-4.8,7.7-3.9c4,0.7,6.4,5.3,4.8,9.1c-8.8,28.4-17.7,56.8-26.6,85.1c-14.5,2.3-23.4,18.6-17.6,32
		c10.7,29.9,21.3,59.9,32.1,89.8c1.4,4.3,6.9,6.5,10.8,4.1c3.6-1.9,4.5-6.6,2.9-10.1c-2.8-14.9-39.9-94.9-29.9-98.9
		c3.7-3.5,10.5-2.2,12.4,2.6c11.3,21.6,16.9,47.2,33.4,65.7c13.2,12.8,31.6,18.5,45.1,30.9c19.3,17.4,21.1,45.4,12,68.5
		c-7.5,25.7-15.2,51.3-22.6,77c-1.6,4.6,2.3,10,7.2,9.7c3.6,0.1,6.5-2.8,7.3-6.2c8.5-29.2,17.2-58.4,25.7-87.6
		C185.9,330.1,170.3,293.7,140.9,278.1z"/>
	<path class="st0" d="M154,64.3c12.7-7.1,27.8-9.6,42.2-7.3c13.2,2,25.7,8.3,35.2,17.7c8.2,8.2,16.4,16.4,24.6,24.5
		c6.6-6.5,13.2-13.2,19.8-19.7c3.1-3.1,6.1-6.3,9.6-9c11.1-8.9,25.1-14,39.2-14.2c15.7-0.4,31.4,4.9,43.4,14.9
		c12.4,10.3,20.9,25.2,23.2,41.2c3,19.6-3.6,40.5-17.3,54.8c-12.8,13.1-25.9,25.8-38.7,38.9c-24,24.7-48,49.4-72,74.1
		c-2.7,2.9-6.9,3-10.5,2.3c-3.1-0.8-5-3.6-7.2-5.7c-34.9-35.6-69.2-71.8-104.7-106.8c-7-6.8-12.8-14.9-16.3-24.1
		c-6.1-15.7-6-33.6,0.5-49.2C130.6,83.1,141,71.5,154,64.3 M179.8,73.1c-11.4,1.4-22.3,6.8-30.1,15.3c-8.6,9.1-13.4,21.8-13.2,34.4
		c0.2,12.4,5.2,24.7,14,33.6c13.6,13.8,27.5,27.3,41,41.3c21.5,22.1,43,44.3,64.4,66.3c32.9-33.6,65.2-67.7,98.6-100.8
		c4-4.1,8.3-7.9,11.6-12.6c6.3-8.8,9.5-19.6,9.1-30.4c-0.3-12.1-5.4-24.1-13.9-32.6c-8.9-9.2-21.6-14.5-34.3-14.7
		c-13-0.2-26,4.8-35.2,14c-9.9,9.9-19.9,19.9-29.8,29.8c-3,3.2-8.5,3.5-11.6,0.4C240.1,107,230,96.5,219.8,86.5
		C209.2,76.3,194.2,71.4,179.8,73.1z"/>
	<path class="st0" d="M503.2,295.2c6.2-8,9.5-18.1,8.6-28.2c-1.9-24.4-4.1-48.7-6-73.1c-0.4-7.3-2.2-14.6-5.8-21
		c-15.3-28.7-30.7-57.3-46.1-85.9c-3.4-6.7-10.3-11.5-17.9-11.8c-8.8-0.7-17.7,4.5-21.2,12.6c-2.4,5-2.5,10.9-0.8,16.2
		c8.7,27.8,17.3,55.6,26,83.4c-3.9,2.5-7.4,5.9-9.4,10.3c-7.6,16.8-14.9,33.7-22.5,50.4c-4.1,8.9-11.6,15.5-20.1,20
		c-11.7,7.5-24.9,13.2-34.4,23.6c-18.1,17.9-24.9,46-17.7,70.4c8.6,29,17,57.9,25.5,86.9c0.7,2.7,2.2,5.5,5,6.4
		c3.7,1.6,8.4-0.6,9.6-4.5c0.9-2.2,0.2-4.5-0.4-6.7c-7.7-26.2-15.4-52.4-23.1-78.6c-2.2-7.3-4.4-14.8-4.5-22.6
		c-0.6-15.8,6-31.6,17.5-42.4c6.4-6.2,14.4-10.3,22-14.9c8.2-5,16.9-9.4,23.6-16.5c6.1-6.1,10.1-13.8,13.5-21.6
		c6.1-13.9,12.3-27.7,18.4-41.6c1-2.1,2.1-4.5,4.3-5.6c3.9-2.3,9.6-0.4,11.2,3.9c1.2,2.5,0.4,5.3-0.4,7.8
		c-5.1,14.1-10.2,28.3-15.2,42.4c-6.5,16.1-15.6,44.3-16.8,47.4c-2.1,5.6,4.3,11.4,9.7,9.1c5-2.1,21.5-52.1,24-59.3
		c4.3-12,8.6-24,12.9-36c2.3-6.2,2-13.4-1.2-19.3c-3.2-6.4-9.7-10.6-16.6-12c-8.3-26.5-16.5-53.1-24.8-79.6c-0.9-3-2.2-5.9-2.2-9.1
		c0.4-4.1,5-6.8,8.8-5.5c2.4,0.7,3.7,3,4.9,5.1c14.8,27.8,29.7,55.5,44.6,83.2c2.6,4.8,4.2,10.2,4.6,15.7
		c2.1,24.8,4.2,49.7,6.2,74.5c0.9,9.2-5.1,16.8-10.5,23.5c-18.8,24.5-37.7,49-56.5,73.5c-3.5,4.6-7.6,9.2-9.1,14.9
		c-1.6,5.3-0.7,11,1.3,16c6.5,17.4,13,34.8,19.5,52.2c0.8,2.1,1.7,4.3,3.8,5.5c3.5,2.3,8.7,0.9,10.6-2.9c1.1-2,1-4.5,0.2-6.6
		c-6.8-18.5-13.9-36.8-20.7-55.3c-1.4-3.5,0.2-7.3,2.6-9.9C459.8,351.7,481.5,323.5,503.2,295.2z"/>
</g>
</svg>
