<svg xmlns="http://www.w3.org/2000/svg" viewBox="0 0 281.76 286.9"><defs><style>.cls-1{fill:#111;}</style></defs><g id="Слой_2" data-name="Слой 2"><g id="Слой_1-2" data-name="Слой 1"><g id="_000000ff" data-name="#000000ff"><path class="cls-1" d="M.49,7.42A10.62,10.62,0,0,1,11.39,0c13.3.1,26.6,0,39.9.1a10.37,10.37,0,0,1,10.1,8.3c3.2,14.3,6.3,28.5,9.4,42.8,66.9.1,133.8-.1,200.6.1,6.9-.3,12.3,7.3,9.7,13.7-13.5,37.4-27.2,74.8-40.8,112.2a10.29,10.29,0,0,1-9.9,7.1c-49.7.1-99.4-.1-149.1.1a15.34,15.34,0,0,0-13.1,8.8c-5.1,9.7,3.4,22.4,14.2,21.8h145.1c6-.5,11.5,5.2,10.8,11.2a10.48,10.48,0,0,1-10.7,9.3c-48.7-.1-97.4,0-146.1-.1a35.5,35.5,0,0,1-26.6-12.7,35.88,35.88,0,0,1-4.4-39.6c4.8-9.5,14.1-16.2,24.4-18.8-10.7-47.9-21-95.9-31.6-143.9-10.9-.1-21.8.1-32.6-.1-6.9.4-12.4-6.6-10.2-12.9m74.7,64.4q10.05,46.05,20.2,92.1h127.9q16.65-46,33.5-92.1Z"/><path class="cls-1" d="M83.49,256.52c8.1-2.2,17.1,3.5,18.6,11.7,2.1,8.4-4.4,17.4-13,18.5-8.6,1.4-17.1-5.8-17.4-14.4A15.79,15.79,0,0,1,83.49,256.52Z"/><path class="cls-1" d="M196.39,256.42c8.1-2.1,16.9,3.9,18.4,12,1.9,8.2-4.3,16.9-12.6,18.1-8.6,1.7-17.5-5.5-17.8-14.2C183.79,265,189.29,257.92,196.39,256.42Z"/></g></g></g></svg>