<?xml version="1.0" encoding="utf-8"?>
<!-- Generator: Adobe Illustrator 25.0.0, SVG Export Plug-In . SVG Version: 6.00 Build 0)  -->
<svg version="1.1" id="Слой_1" xmlns="http://www.w3.org/2000/svg" xmlns:xlink="http://www.w3.org/1999/xlink" x="0px" y="0px"
	 viewBox="0 0 512 512" style="enable-background:new 0 0 512 512;" xml:space="preserve">
<style type="text/css">
	.st0{fill:#EC5C2A;}
</style>
<g id="_x23_000000ff">
	<path class="st0" d="M16,47c0.1-16.7,15.2-31.3,31.9-31c136.7,0,273.4,0,410.1,0c5,0,10.1-0.2,14.9,1.3c13.7,3.8,23.6,17.5,23,31.7
		c0,93.7,0,187.3,0,281c0.1,5.7,0.1,11.6-2,17c-4.3,12-16.2,20.7-29,21c-14.4,0.2-28.7,0-43.1,0.1c-1.9,5.3-4.3,10.4-7.3,15.1
		c15.2,25.7,31,51.2,46.3,76.9c2.1,3.4,0.9,8.2-2.4,10.5c-2.4,1.8-5.9,1.9-8.5,0.4c-9.8-5.1-19.5-10.4-29.3-15.4
		c0,10.9,0.1,21.7,0.1,32.6c0.7,5.8-5.8,10.5-11.1,8.1c-2.6-1-3.9-3.5-5.3-5.8c-14.6-24.3-29.4-48.4-43.9-72.8
		c-6.9,0.5-13.9,0.5-20.7-0.8c-15.7,25.4-30.8,51.2-46.5,76.7c-3.6,5.7-13.6,3.3-14.2-3.4c-0.4-11.6,0-23.1-0.1-34.7
		c-10,5.2-19.9,10.6-29.9,15.7c-4.1,2.1-9.4-0.3-10.8-4.6c-1-2.4-0.4-5.1,0.9-7.2c16-26.5,32.1-52.9,48-79.4
		c-2.1-3.9-3.8-7.9-5.4-12c-76.4,0.1-152.7-0.1-229.1,0c-6.4,0.2-13-0.3-18.7-3.2C23,359.6,15.5,347.4,16,335C16,239,15.9,143,16,47
		 M32,48c0,93.7,0,187.3,0,281c0.1,4.6-0.6,9.4,1.4,13.7c2.5,5.6,8.4,9.4,14.5,9.3c76.8,0,153.6,0,230.5,0
		c-1.7-16,1.8-32.6,10.3-46.4c8-13.1,20.1-23.8,34.3-29.8c16.9-7.3,36.6-7.8,54-1.6c16.1,5.8,30.1,17.3,38.7,32.1
		c8.1,13.6,11.6,29.9,9.9,45.6c12.8,0,25.6,0.1,38.4,0c5.9,0.1,11.7-3.3,14.2-8.7c2.4-4.4,1.6-9.6,1.7-14.4c0-93.7,0-187.4,0-281.1
		c0.2-8.5-7.5-16.2-16-15.9c-138.7,0-277.4,0-416.1,0C39.4,31.7,31.7,39.5,32,48 M342.5,286.7c-20.2,3.1-37.9,17.8-44.9,37
		c-5,13.5-4.8,28.8,0.6,42.2c6.2,15.3,19.2,27.7,34.9,33c15,5.2,32.1,3.9,46.1-3.6c9.5-5,17.5-12.8,22.9-22
		c7.8-13.2,9.9-29.5,5.9-44.2c-4.1-15.6-15.1-29.2-29.4-36.6C367.6,286.7,354.7,284.7,342.5,286.7 M267.9,443.2
		c5.5-2.5,10.6-5.7,16-8.3c4.5-2.3,10.7,1,11.1,6.1c0.4,6.3,0,12.5,0.1,18.8c9.7-15.7,19-31.5,28.7-47.2
		c-9.8-4.4-18.9-10.5-26.2-18.5C287.8,410.5,277.8,426.8,267.9,443.2 M377,413.6c9,15.5,18.5,30.9,27.8,46.2
		c0.1-6.3-0.3-12.5,0.1-18.8c0.5-5.1,6.6-8.4,11.2-6c5.4,2.6,10.6,5.6,15.9,8.3c-9.3-15.5-18.7-31-28.1-46.5
		C396.2,404,387.1,410,377,413.6z"/>
	<path class="st0" d="M134.1,88.2c1.6-0.2,3.2-0.2,4.9-0.2c89.7,0,179.4-0.1,269,0c4.4-0.3,8.2,3.6,7.9,8c0.2,4.3-3.6,8.2-7.9,7.9
		c-90.4,0.1-180.7,0-271.1,0.1c-2.9,0.1-6.1-0.8-7.6-3.4C126.3,96.3,128.6,89,134.1,88.2z"/>
	<path class="st0" d="M102.1,136.2c5.6-0.6,11.2-0.1,16.9-0.2c96,0,192.1,0,288.1,0c3.9-0.4,7.9,2,8.7,5.9c1.4,4.8-2.5,10.4-7.7,10
		c-100.7,0.1-201.4,0-302.1,0.1c-2.9,0.1-6.3-0.3-8.1-2.9C94.3,144.9,96.3,137,102.1,136.2z"/>
	<path class="st0" d="M102.2,184.2c2.6-0.4,5.2-0.2,7.9-0.2c97.6,0,195.3,0,293,0c3.2,0.1,6.8-0.5,9.6,1.4c4.4,3,4.4,10.4-0.1,13.3
		c-3.1,2-7,1.2-10.5,1.4c-99-0.1-198,0-297-0.1c-3.1,0.1-6.6-1-8.1-4C94.3,191.6,96.9,185,102.2,184.2z"/>
	<path class="st0" d="M100.4,232.6c4.1-1.2,8.4-0.5,12.6-0.7c98.3,0,196.7,0,295,0c5-0.7,9.5,4.1,8.6,9.1c-0.3,3.8-3.7,7-7.5,6.8
		c-101.7,0-203.4,0-305.1,0C95.9,248.5,92.9,235.6,100.4,232.6z"/>
	<path class="st0" d="M100.4,280.6c1.5-0.6,3.1-0.6,4.7-0.6c46.3,0,92.7,0,139,0c2.9,0.1,6.1-0.4,8.6,1.5c4.1,2.8,4.3,9.5,0.5,12.7
		c-1.9,1.7-4.6,1.9-7,1.9c-46.4,0-92.7,0-139.1,0c-2.8-0.1-6,0.2-8.3-1.7C94.3,290.9,95.1,282.8,100.4,280.6z"/>
	<path class="st0" d="M345.5,312.7c15.3-3.6,32.1,6.1,36.8,21.1c5.3,14.5-2,32-15.8,38.8c-12.8,6.9-30,3.3-39.1-8
		c-9.4-10.8-9.9-28-1.2-39.4C330.8,318.8,337.8,314.2,345.5,312.7 M347.4,328.6c-6.3,1.8-11.1,7.8-11.4,14.4
		c-0.8,8.9,7.1,17.3,16,17.1c9.4,0.4,17.5-8.9,15.9-18.2C366.9,332.4,356.4,325.6,347.4,328.6z"/>
</g>
</svg>
