<svg xmlns="http://www.w3.org/2000/svg" viewBox="0 0 276.37 286.88"><defs><style>.cls-1{fill:#111;}</style></defs><g id="Слой_2" data-name="Слой 2"><g id="Слой_1-2" data-name="Слой 1"><g id="_000000ff" data-name="#000000ff"><path class="cls-1" d="M270.75,163.81a40.61,40.61,0,0,1,1.7,38,41.57,41.57,0,0,1-26.8,22.3c0,17.4.1,34.8,0,52.3a10.41,10.41,0,0,1-8.5,10.3c-5.6,1.1-11.5-3.4-11.8-9.1-.3-17.8.2-35.7-.3-53.5a41.22,41.22,0,0,1-26.2-21.2,40.57,40.57,0,0,1-1.2-33.9,41,41,0,0,1,24.8-23.1c1-.6,3.2-.5,2.8-2.1V10.61a10.27,10.27,0,0,1,10-10.2c5.6-.3,10.7,4.8,10.5,10.5,0,44.7.1,89.5,0,134.2a39.64,39.64,0,0,1,25,18.7m-15,17.9a20.48,20.48,0,1,0-39,11,20.49,20.49,0,0,0,39-11Z"/><path class="cls-1" d="M174.35,78.21a40.67,40.67,0,0,1,1,36.3,41.42,41.42,0,0,1-27.5,22.6c.9,5.1.5,10.2.6,15.3-.1,41,0,82,0,123a11.14,11.14,0,0,1-4.1,9.3,10.24,10.24,0,0,1-12.9-.5,10.91,10.91,0,0,1-3.5-8.7V149.41c0-4.1-.3-8.2.6-12.2a41.47,41.47,0,0,1-25.7-19.3,40.64,40.64,0,0,1-1.1-39,41.52,41.52,0,0,1,26.5-21.2c-.6-15.4-.1-30.8-.2-46.1-.5-5.5,3.7-11,9.3-11.3a10.33,10.33,0,0,1,11.2,10.3c.2,15.7-.1,31.5.1,47.2a41.58,41.58,0,0,1,25.7,20.4m-16.8,12.6a20.42,20.42,0,0,0-19.4-13.9,20.47,20.47,0,0,0-15.9,33.4,20.5,20.5,0,0,0,34.1-3.7A20.22,20.22,0,0,0,157.55,90.81Z"/><path class="cls-1" d="M76.45,159a40.36,40.36,0,0,1,2.5,35.2,41.25,41.25,0,0,1-28.4,24.7,33.87,33.87,0,0,1,.6,6.4c-.1,17,0,34.1,0,51.1.2,5.7-5.2,10.9-10.9,10.3a10.29,10.29,0,0,1-9.5-10.4c-.1-14,0-27.9,0-41.9.1-5.2-.3-10.3.4-15.5a40.93,40.93,0,0,1-28.7-25.8,40.48,40.48,0,0,1,2.1-32.5A41.44,41.44,0,0,1,31,139.51c-.1-2.4-.3-4.8-.3-7.2.1-40.6,0-81.3.1-121.9A10.35,10.35,0,0,1,41.25,0c5.8,0,10.5,5.6,9.9,11.3-.1,42.7.2,85.5-.2,128.2A41.73,41.73,0,0,1,76.45,159m-15.8,14.8A20.58,20.58,0,0,0,44.15,159a20.45,20.45,0,1,0,16.5,14.8Z"/></g></g></g></svg>