<svg xmlns="http://www.w3.org/2000/svg" viewBox="0 0 336.64 280.81"><defs><style>.cls-1{fill:#fff;}</style></defs><g id="Слой_2" data-name="Слой 2"><g id="Слой_1-2" data-name="Слой 1"><g id="_000000ff" data-name="#000000ff"><path class="cls-1" d="M42,10.1A81.6,81.6,0,0,1,94.15,1a79.73,79.73,0,0,1,43.6,21.9c10.2,10.1,20.3,20.3,30.5,30.4,8.2-8.1,16.3-16.3,24.5-24.4,3.9-3.8,7.6-7.8,11.9-11.2A80.56,80.56,0,0,1,253.25.1a81.45,81.45,0,0,1,61.1,137.4c-15.9,16.2-32.1,31.9-47.9,48.2q-44.55,45.9-89.2,91.8c-3.3,3.6-8.6,3.7-13,2.9-3.9-1-6.2-4.4-8.9-7-43.2-44.1-85.7-88.9-129.6-132.3a83,83,0,0,1-20.2-29.8,82.18,82.18,0,0,1,.6-60.9A81.32,81.32,0,0,1,42,10.1M74,21a61,61,0,0,0-36.3,103.1c16.9,17.1,34.1,33.8,50.8,51.2q39.9,41.1,79.8,82.1c40.7-41.6,80.8-83.8,122.1-124.8,4.9-5.1,10.3-9.8,14.4-15.6a61.19,61.19,0,0,0,11.3-37.7A60.84,60.84,0,0,0,212.75,38l-36.9,36.9a10.33,10.33,0,0,1-14.4.5c-12.8-12.5-25.3-25.4-38-37.9A61.36,61.36,0,0,0,74,21Z"/></g></g></g></svg>