<svg width="22" height="20" viewBox="0 0 22 20" fill="none" xmlns="http://www.w3.org/2000/svg">
<path fill-rule="evenodd" clip-rule="evenodd" d="M7.94347 6.20515C8.61795 6.2044 9.2738 5.98374 9.81156 5.57661C10.3493 5.16949 10.7396 4.59811 10.9234 3.94912L21.1555 3.94912C21.2664 3.94912 21.3762 3.92728 21.4787 3.88484C21.5811 3.8424 21.6742 3.78019 21.7527 3.70177C21.8311 3.62335 21.8933 3.53026 21.9357 3.4278C21.9782 3.32534 22 3.21552 22 3.10462C22 2.99372 21.9782 2.8839 21.9357 2.78144C21.8933 2.67898 21.8311 2.58589 21.7527 2.50747C21.6742 2.42905 21.5811 2.36684 21.4787 2.3244C21.3762 2.28196 21.2664 2.26012 21.1555 2.26012L10.9234 2.26012C10.7413 1.60986 10.3515 1.03701 9.81349 0.628944C9.27547 0.220878 8.61873 -5.84914e-07 7.94347 -6.14431e-07C7.2682 -6.43947e-07 6.61147 0.220878 6.07345 0.628944C5.53543 1.03701 5.14565 1.60986 4.96358 2.26012L3.15393 2.26012C2.92996 2.26012 2.71516 2.34909 2.55678 2.50747C2.39841 2.66584 2.30943 2.88064 2.30943 3.10462C2.30943 3.32859 2.39841 3.5434 2.55678 3.70177C2.71516 3.86015 2.92996 3.94912 3.15393 3.94912L4.96358 3.94912C5.14729 4.59811 5.53762 5.16949 6.07538 5.57661C6.61314 5.98374 7.26898 6.2044 7.94347 6.20515ZM6.52591 3.10462C6.52591 2.82545 6.6087 2.55254 6.7638 2.32042C6.9189 2.08829 7.13935 1.90737 7.39727 1.80054C7.65519 1.6937 7.939 1.66575 8.21281 1.72022C8.48662 1.77468 8.73813 1.90911 8.93554 2.10652C9.13294 2.30392 9.26738 2.55543 9.32184 2.82924C9.3763 3.10305 9.34835 3.38686 9.24152 3.64479C9.13468 3.90271 8.95376 4.12316 8.72164 4.27826C8.48951 4.43336 8.21661 4.51614 7.93744 4.51614C7.56308 4.51614 7.20405 4.36743 6.93934 4.10272C6.67463 3.83801 6.52591 3.47898 6.52591 3.10462ZM7.94347 19.5841C8.61795 19.5834 9.2738 19.3627 9.81156 18.9556C10.3493 18.5484 10.7396 17.9771 10.9234 17.3281L21.1555 17.3281C21.3795 17.3281 21.5943 17.2391 21.7527 17.0807C21.911 16.9223 22 16.7075 22 16.4836C22 16.2596 21.911 16.0448 21.7527 15.8864C21.5943 15.728 21.3795 15.6391 21.1555 15.6391L10.9234 15.6391C10.7413 14.9888 10.3515 14.416 9.81349 14.0079C9.27547 13.5998 8.61873 13.3789 7.94347 13.3789C7.2682 13.3789 6.61147 13.5998 6.07345 14.0079C5.53543 14.416 5.14566 14.9888 4.96358 15.6391L3.15393 15.6391C2.92996 15.6391 2.71516 15.728 2.55678 15.8864C2.39841 16.0448 2.30943 16.2596 2.30943 16.4836C2.30943 16.7075 2.39841 16.9223 2.55678 17.0807C2.71516 17.2391 2.92996 17.3281 3.15393 17.3281L4.96358 17.3281C5.14729 17.9771 5.53762 18.5484 6.07538 18.9556C6.61313 19.3627 7.26898 19.5834 7.94347 19.5841ZM6.52591 16.4836C6.52591 16.2044 6.6087 15.9315 6.7638 15.6994C6.9189 15.4672 7.13935 15.2863 7.39727 15.1795C7.65519 15.0727 7.939 15.0447 8.21281 15.0992C8.48662 15.1536 8.73813 15.2881 8.93554 15.4855C9.13294 15.6829 9.26738 15.9344 9.32184 16.2082C9.3763 16.482 9.34835 16.7658 9.24152 17.0237C9.13468 17.2817 8.95376 17.5021 8.72164 17.6572C8.48951 17.8123 8.21661 17.8951 7.93744 17.8951C7.75207 17.8951 7.56852 17.8586 7.39727 17.7876C7.22601 17.7167 7.07041 17.6127 6.93934 17.4817C6.80827 17.3506 6.70429 17.195 6.63336 17.0237C6.56242 16.8525 6.52591 16.6689 6.52591 16.4836ZM12.4849 7.31948C13.0226 6.91235 13.6785 6.69169 14.353 6.69095C15.0275 6.69169 15.6833 6.91235 16.2211 7.31948C16.7588 7.72661 17.1492 8.29799 17.3329 8.94697L19.1425 8.94697C19.3665 8.94697 19.5813 9.03595 19.7397 9.19432C19.898 9.3527 19.987 9.5675 19.987 9.79148C19.987 10.0155 19.898 10.2303 19.7397 10.3886C19.5813 10.547 19.3665 10.636 19.1425 10.636L17.3329 10.636C17.1508 11.2862 16.761 11.8591 16.223 12.2671C15.685 12.6752 15.0282 12.8961 14.353 12.8961C13.6777 12.8961 13.021 12.6752 12.483 12.2671C11.9449 11.8591 11.5552 11.2862 11.3731 10.636L1.14095 10.636C0.916973 10.636 0.702171 10.547 0.543796 10.3886C0.385421 10.2303 0.296447 10.0154 0.296447 9.79147C0.296447 9.5675 0.385421 9.3527 0.543796 9.19432C0.702171 9.03595 0.916973 8.94697 1.14095 8.94697L11.3731 8.94697C11.5568 8.29799 11.9471 7.72661 12.4849 7.31948ZM15.5327 10.5757C15.6878 10.3436 15.7705 10.0706 15.7705 9.79148C15.7705 9.41711 15.6218 9.05809 15.3571 8.79337C15.0924 8.52866 14.7334 8.37995 14.359 8.37995C14.0798 8.37995 13.8069 8.46273 13.5748 8.61783C13.3427 8.77293 13.1618 8.99338 13.0549 9.25131C12.9481 9.50923 12.9201 9.79304 12.9746 10.0668C13.0291 10.3407 13.1635 10.5922 13.3609 10.7896C13.5583 10.987 13.8098 11.1214 14.0836 11.1759C14.3574 11.2303 14.6413 11.2024 14.8992 11.0956C15.1571 10.9887 15.3775 10.8078 15.5327 10.5757Z" fill="#263238"/>
</svg>
