<svg xmlns="http://www.w3.org/2000/svg" width="50" height="50" viewBox="0 0 50 50">
  <defs>
    <style>
      .cls-1 {
        fill: #0da205;
        fill-rule: evenodd;
      }
    </style>
  </defs>
  <path id="Фигура_1555" data-name="Фигура 1555" class="cls-1" d="M1005,2859a25,25,0,1,1-25,25A25,25,0,0,1,1005,2859Zm-3.4,2.79a27.269,27.269,0,0,1,2.84-.27,24.041,24.041,0,0,1,4.24.27,22.81,22.81,0,0,1,2.94.69c0.64,0.19,1.26.43,1.88,0.68a22.087,22.087,0,0,1,11.98,11.98c0.19,0.51.41,0.99,0.56,1.51a23.5,23.5,0,0,1,.81,3.31,23.928,23.928,0,0,1,.26,4.14,26.488,26.488,0,0,1-.26,2.95,22.472,22.472,0,0,1-1.37,4.82,21.966,21.966,0,0,1-28.7,11.98c-0.575-.22-1.124-0.5-1.678-0.77-0.4-.19-0.77-0.43-1.158-0.64a22.229,22.229,0,0,1-7.741-7.74c-0.208-.39-0.45-0.76-0.637-1.16a21.9,21.9,0,0,1-2.423-9.84,25.9,25.9,0,0,1,.276-3.74c0.052-.22.081-0.44,0.123-0.66A22.032,22.032,0,0,1,1001.6,2861.79Zm-0.69,2.06a20.011,20.011,0,0,0-6.358,2.57,20.006,20.006,0,0,0-9.062,12.86,19.863,19.863,0,0,0,0,8.46,19.476,19.476,0,0,0,1.4,4.21,20.179,20.179,0,0,0,9.891,9.84,18.769,18.769,0,0,0,4.128,1.37,19.784,19.784,0,0,0,8.46,0,18.891,18.891,0,0,0,4.13-1.37,20.165,20.165,0,0,0,9.88-9.84,20.2,20.2,0,0,0,0-16.88,20.23,20.23,0,0,0-9.81-9.82,19.717,19.717,0,0,0-3.81-1.31,2.744,2.744,0,0,1-.39-0.09A19.944,19.944,0,0,0,1000.91,2863.85Zm2.4,10.76a2.218,2.218,0,0,1,2.32-.85,2.448,2.448,0,0,1,1.25.94c0.45,0.86.85,1.75,1.29,2.62,0.21,0.51.52,0.98,0.7,1.51a2.958,2.958,0,0,0,.89.14c1.24,0.21,2.48.35,3.72,0.57a2.222,2.222,0,0,1,1.7,1.59,2.427,2.427,0,0,1-.74,2.35c-0.99.99-2,1.96-2.98,2.96,0.24,1.45.49,2.9,0.75,4.34a2.292,2.292,0,0,1-2.26,2.61,2.472,2.472,0,0,1-1.24-.38c-1.19-.63-2.36-1.31-3.57-1.91-0.25.08-.46,0.24-0.71,0.33-0.8.41-1.62,0.8-2.42,1.22a3.873,3.873,0,0,1-1.87.61,2.285,2.285,0,0,1-2.131-2.5c0.136-1.05.39-2.09,0.538-3.14,0.044-.22.065-0.45,0.117-0.67,0.031-.2.053-0.39,0.072-0.59-0.88-.88-1.785-1.74-2.668-2.62a4.286,4.286,0,0,1-.976-1.19,2.324,2.324,0,0,1,0-1.72,2.238,2.238,0,0,1,1.192-1.18,33.432,33.432,0,0,1,3.449-.56c0.5-.1,1.022-0.11,1.512-0.24,0.33-.75.71-1.47,1.05-2.22C1002.65,2875.97,1002.89,2875.24,1003.31,2874.61Zm1.69,0.97a12.166,12.166,0,0,0-.88,1.63c-0.22.51-.51,0.98-0.73,1.49-0.18.4-.4,0.79-0.59,1.19a1.056,1.056,0,0,1-.79.75c-0.86.15-1.72,0.29-2.581,0.4-0.282.06-.577,0.05-0.859,0.12-0.468.05-.935,0.12-1.4,0.2a0.372,0.372,0,0,0-.241.62c1.147,1.15,2.315,2.28,3.48,3.4a1.378,1.378,0,0,1,.2,1.36c-0.16,1.12-.4,2.23-0.57,3.36-0.048.22-.065,0.45-0.127,0.67a3.851,3.851,0,0,0-.014.6,0.855,0.855,0,0,0,.441.14c1.33-.72,2.67-1.41,4-2.13a1.266,1.266,0,0,1,1.21-.2c0.99,0.48,1.94,1.02,2.92,1.52,0.47,0.22.9,0.5,1.37,0.71a0.719,0.719,0,0,0,.5-0.04,1.281,1.281,0,0,0,.01-0.7c-0.05-.2-0.06-0.4-0.09-0.6-0.19-1.21-.42-2.41-0.6-3.62a1.725,1.725,0,0,1-.05-0.6,1.624,1.624,0,0,1,.27-0.44l3.48-3.42a0.387,0.387,0,0,0-.18-0.64c-0.71-.14-1.43-0.18-2.14-0.31-0.9-.09-1.79-0.25-2.68-0.38a1.018,1.018,0,0,1-.82-0.65c-0.68-1.4-1.39-2.78-2.07-4.19A0.464,0.464,0,0,0,1005,2875.58Z" transform="translate(-980 -2859)"/>
</svg>
