<?xml version="1.0" encoding="utf-8"?>
<!-- Generator: Adobe Illustrator 25.0.0, SVG Export Plug-In . SVG Version: 6.00 Build 0)  -->
<svg version="1.1" id="Слой_1" xmlns="http://www.w3.org/2000/svg" xmlns:xlink="http://www.w3.org/1999/xlink" x="0px" y="0px"
	 viewBox="0 0 142 20" style="enable-background:new 0 0 142 20;" xml:space="preserve">
<style type="text/css">
	.st0{fill:#FFFFFF;}
</style>
<path class="st0" d="M136.4,4.7v0.8h0.1c0.7,0,1.5,0.1,1.5,0.5v0.4c0,0.2-0.1,0.3-0.1,0.4l-2.6,4.6l-2.8-4.7
	c-0.1-0.2-0.2-0.3-0.2-0.4s-0.1-0.2-0.1-0.3c0-0.4,0.5-0.6,1.4-0.6h0.1V4.7h-5.8v0.8h0.1c0.8,0,1.5,0.6,2.2,1.7l3.4,5.7v4
	c0,0.6-0.7,0.8-2,0.8h-0.1v0.8h6.4v-0.8h-0.1c-1.3,0-1.9-0.3-1.9-0.8v-4.1l3.8-6.5c0.4-0.5,0.9-0.7,1.5-0.7h0.1V4.7L136.4,4.7
	L136.4,4.7z M62.4,14.1c-0.5,1.6-1,2.5-1.5,2.8c-0.3,0.2-0.7,0.3-1.2,0.4s-1,0.1-1.6,0.1h-0.9c-0.8,0-1.2-0.2-1.2-0.8V6.9
	c0-1,0.6-1.5,1.8-1.5h0.1V4.7h-6.1v0.8h0.1c1.3,0,1.9,0.5,1.9,1.5v9.7c0,0.7-0.6,1-1.7,1H52v0.8h10.7l0.6-4.4
	C63.3,14.1,62.4,14.1,62.4,14.1z M94.6,15.9c0,0.1-0.1,0.2-0.3,0.4c-0.1,0.2-0.3,0.3-0.5,0.4L93.2,17c-0.2,0.1-0.4,0.1-0.6,0.1
	c-0.3,0-0.6-0.2-1-0.5s-0.8-0.7-1.3-1.1c0.3-0.3,0.6-0.6,0.8-0.9c0.2-0.3,0.4-0.6,0.5-0.9c0.1-0.3,0.2-0.5,0.4-0.8
	c0.1-0.3,0.2-0.5,0.3-0.7c0.3-0.4,0.5-0.8,0.8-1.1s0.6-0.4,1.1-0.4h0.1V9.9h-5.1v0.8h0.1c1.2,0,1.7,0.5,1.7,1.4
	c0,0.4-0.1,0.9-0.4,1.4c-0.2,0.4-0.6,0.9-1,1.4c-0.6-0.7-1.2-1.5-1.8-2.2c-0.5-0.7-1.1-1.4-1.5-2.1c0.7-0.4,1.4-0.9,1.9-1.4
	C88.7,8.6,89,8,89,7.3c0-1.8-1.1-2.7-3.2-2.7s-3.2,1.1-3.2,3.2c0,0.4,0.1,0.8,0.3,1.3c0.2,0.4,0.4,0.9,0.6,1.3
	c-1.1,0.6-1.9,1.3-2.4,2c-0.5,0.8-0.7,1.6-0.7,2.6c0,2.6,1.6,3.8,4.6,3.8c1.5,0,2.8-0.5,3.8-1.6c1,1,2.1,1.6,3.3,1.6
	c0.5,0,0.9-0.1,1.3-0.2c0.4-0.2,0.7-0.4,1-0.6s0.5-0.5,0.6-0.8c0.2-0.3,0.3-0.6,0.3-0.9v-0.1L94.6,15.9L94.6,15.9z M85.7,5.3
	c1.1,0,1.6,0.6,1.6,1.9c0,0.7-0.5,1.5-1.6,2.6c-0.9-1.2-1.4-2.1-1.4-2.8C84.3,5.9,84.8,5.3,85.7,5.3z M87,17.1
	c-0.4,0.1-0.9,0.2-1.3,0.2c-2.3,0-3.4-1.3-3.4-4c0-1,0.5-1.7,1.5-2.3c0.6,0.9,1.3,1.8,2,2.7c0.7,0.8,1.5,1.7,2.4,2.7
	C87.8,16.8,87.4,17,87,17.1z M74.7,14.1c-0.2,0.6-0.4,1.1-0.6,1.5s-0.4,0.8-0.8,1c-0.3,0.3-0.7,0.5-1.2,0.6s-1.2,0.2-2.1,0.2h-0.6
	c-1,0-1.5-0.3-1.5-1.1v-3.9c0-0.2,0.1-0.6,0.8-0.6H69c0.4,0,0.8,0,1.1,0.1c0.3,0,0.5,0.1,0.7,0.3c0.2,0.1,0.3,0.4,0.4,0.6
	c0.1,0.2,0.2,0.6,0.2,0.9v0.1h1v-5h-1v0.1c-0.1,0.4-0.1,0.7-0.3,0.9c-0.1,0.3-0.3,0.5-0.5,0.6s-0.5,0.2-0.7,0.3
	c-0.3,0-0.6,0.1-0.9,0.1h-0.7c-0.2,0-0.4-0.1-0.4-0.5V6.6c0-0.6,0.5-0.8,1.5-0.8H70c0.5,0,1,0,1.5,0.1c0.4,0,0.8,0.1,1.2,0.3
	c0.3,0.2,0.6,0.5,0.9,0.9c0.2,0.3,0.3,0.7,0.4,1.2v0.1h0.9V4.8H63.6v0.8h0.1c1.3,0,1.9,0.5,1.9,1.6v9.3c0,0.8-0.6,1.2-1.8,1.2h-0.1
	v0.8h11.1l0.6-4.4C75.4,14.1,74.7,14.1,74.7,14.1z M127,14c-0.2,0.6-0.4,1.1-0.6,1.6c-0.2,0.4-0.4,0.8-0.8,1
	c-0.3,0.3-0.7,0.5-1.2,0.6s-1.2,0.2-2.1,0.2h-0.6c-1,0-1.5-0.3-1.5-1.1v-3.9c0-0.2,0.1-0.6,0.8-0.6h0.2c0.4,0,0.8,0,1.1,0.1
	c0.3,0,0.5,0.1,0.7,0.3c0.2,0.1,0.3,0.4,0.4,0.6c0.1,0.2,0.2,0.6,0.2,0.9v0.1h1v-5h-1v0.1c-0.1,0.4-0.1,0.7-0.3,0.9
	c-0.1,0.3-0.3,0.5-0.5,0.6s-0.5,0.2-0.7,0.3c-0.3,0-0.6,0.1-0.9,0.1h-0.7c-0.2,0-0.4-0.1-0.4-0.5V6.6c0-0.6,0.5-0.8,1.5-0.8h0.6
	c0.5,0,1,0,1.5,0.1c0.4,0,0.8,0.1,1.2,0.3c0.3,0.2,0.6,0.5,0.9,0.9c0.2,0.3,0.3,0.7,0.4,1.2v0.1h0.9V4.8H116v0.8h0.1
	c1.3,0,1.9,0.5,1.9,1.6v9.3c0,0.8-0.6,1.2-1.8,1.2H116v0.8h11.1l0.6-4.4L127,14z M38.6,4.6v3.6h0.9V8.1c0.3-0.8,0.6-1.1,1.1-1.6
	c0.5-0.6,1.3-0.8,2.1-0.8s0.9,0.4,0.9,0.7v9.4c0,1.2-0.7,1.8-2.1,1.8h-0.1v0.8H48v-0.8h-0.1c-1.4,0-2.1-0.6-2.1-1.8V6.4
	c0-0.1,0-0.6,0.9-0.6c1.9,0,2.8,0.7,3.1,2.4v0.1h0.8V4.7L38.6,4.6L38.6,4.6z M113.8,17.2c-0.2-0.2-0.4-0.3-0.6-0.6
	c-0.2-0.2-0.4-0.5-0.7-0.7l-5.7-7.4l3.5-3.4l1.2-1.2c0.3-0.3,0.6-0.5,0.9-0.7s0.6-0.3,0.9-0.4c0.3-0.1,0.7-0.2,1.2-0.2V1.9H108v0.8
	c1.2,0,1.7,0.2,1.7,0.7c0,0.4-0.1,0.7-0.2,0.9c-0.1,0.2-0.4,0.5-0.8,0.8l-5.8,5.5V4.4c0-1.2,0.7-1.8,2.2-1.8V1.9H98v0.8
	c1.7,0,2.5,0.6,2.5,1.8V16c0,1.2-0.8,1.7-2.3,1.7v0.8h7.3v-0.8c-1.7,0-2.5-0.6-2.5-1.7v-3.3c0.1-0.3,0.1-0.6,0.3-0.8
	c0.1-0.2,0.3-0.4,0.5-0.6l1.1-1l4.5,5.8c0.4,0.6,0.7,1,0.7,1.2c0,0.3-0.5,0.4-1.4,0.4v0.8h6.4v-0.8c-0.2,0-0.4-0.1-0.6-0.1
	C114.2,17.5,114,17.4,113.8,17.2z M36.9,11.3c-0.5-0.3-1.1-0.6-1.8-0.8s-1.4-0.5-2.3-0.9c-0.6-0.3-1.1-0.6-1.5-0.9
	C31.1,8.3,31,7.9,31,7.4c0-0.6,0.2-1.1,0.7-1.5c0.3-0.2,0.6-0.4,0.9-0.5c0.1,0,0.1,0,0.2-0.1H34c0.5,0.1,1,0.4,1.4,0.7
	c0.2,0.3,0.5,0.7,0.5,1.9V8H37V4.8h-0.1c-0.1,0-0.3-0.1-0.4-0.1c-0.6-0.1-1.1-0.2-1.4-0.3c-0.5-0.1-1-0.1-1.5-0.1h-0.3
	c-0.4,0-0.9,0-1.2,0.1H32c-0.1,0-0.3,0.1-0.4,0.1c-0.5,0.2-0.9,0.5-1.2,0.8c-0.4,0.3-0.6,0.8-0.8,1.2c-0.2,0.5-0.3,1-0.3,1.6
	c0,0.8,0.2,1.5,0.5,2s0.8,0.9,1.3,1.2s1.1,0.6,1.8,0.8s1.4,0.5,2.1,0.8c0.6,0.2,1.1,0.5,1.3,0.9c0.3,0.4,0.4,0.8,0.4,1.4
	c0,0.4-0.1,0.8-0.3,1.1s-0.5,0.5-0.7,0.7l-0.6,0.3H35c-0.2,0.1-0.5,0.2-0.9,0.2h-0.2c-0.4,0-0.9-0.1-1.3-0.3
	c-0.5-0.2-0.9-0.5-1.3-0.8l-0.2-0.2c-0.3-0.3-0.5-0.6-0.7-1l-0.1-0.1h-0.8v3h0.2c0.2,0.1,0.4,0.1,0.6,0.1c0.5,0.1,1,0.2,1.3,0.2
	c0.5,0.1,1.1,0.1,1.7,0.1c0.5,0,1.3,0,1.8-0.1h0.1c0.4-0.1,0.7-0.2,1-0.3c0.5-0.2,1-0.6,1.3-1s0.6-0.8,0.7-1.3
	c0.2-0.5,0.2-1,0.2-1.5c0-0.8-0.1-1.5-0.4-2C37.8,12,37.4,11.6,36.9,11.3z M27.6,17.1c-0.3-0.2-0.5-0.6-0.6-0.8l-0.4-1L22.3,4.7V4.6
	h-0.9l-4.9,11.7c-0.1,0.2-0.3,0.5-0.6,0.8c-0.3,0.2-0.6,0.4-1,0.4h-0.1v0.9h4.8v-0.9h-0.1c-1.1,0-1.7-0.3-1.7-0.8
	c0-0.2,0-0.4,0.1-0.5l0.7-2.1c0.1-0.3,0.4-0.5,0.8-0.5h3.1c0.6,0,1,0.2,1.2,0.5l0.7,2.1c0,0.1,0.1,0.3,0.1,0.5
	c0,0.6-0.6,0.8-1.7,0.8h-0.1v0.9h5.9v-0.9h-0.1C28.1,17.5,27.8,17.4,27.6,17.1z M22.6,12.5H20c-0.2,0-0.7,0-0.7-0.2
	c0-0.1,0-0.3,0.2-0.7l1.7-4.1l1.6,4.2c0.2,0.5,0.2,0.6,0.2,0.6C23.1,12.5,22.9,12.5,22.6,12.5z M14.3,14.1c-0.2,0.5-0.5,0.9-0.7,1.3
	c-0.4,0.6-0.8,1-1.2,1.4c-0.2,0.2-0.5,0.3-0.8,0.5c-0.2,0.1-0.4,0.2-0.6,0.2c-0.5,0.1-1.1,0.2-1.7,0.2c-1,0-1.9-0.2-2.6-0.7
	c-0.7-0.4-1.3-1-1.8-1.8s-0.8-1.7-1-2.7c0-0.2-0.1-0.5-0.1-0.7v-0.2v-0.1C3.6,11,3.5,10.4,3.5,9.9c0-1,0.1-2,0.3-2.9
	C4,6.1,4.3,5.2,4.7,4.5l0.6-0.9C5.6,3.3,6,3,6.3,2.8C7,2.4,7.8,2.2,8.7,2.2c1.3,0,2.4,0.4,3.4,1.2s1.7,2.1,2,3.7H15
	c0-0.7,0-1.5-0.1-2.1s-0.1-1.1-0.2-1.5V3.2c-0.1-0.5-0.2-1-0.3-1.3s-0.2-0.5-0.2-0.6c-0.5,0.1-1.7,1-1.8,1.1c-1-0.7-2-1-3.1-1.1H8.7
	C7.6,1.3,6.6,1.5,5.6,2C4.6,2.3,3.8,2.9,3,3.7C2.3,4.5,1.7,5.5,1.3,6.6C1.1,7.2,0.9,7.7,0.8,8.4v0.5c-0.1,0.4-0.1,0.8-0.1,1.2v0.1
	c0,1.2,0.2,2.3,0.6,3.4c0.4,1,0.9,2,1.6,2.7c0.7,0.8,1.5,1.4,2.5,1.8c0.7,0.3,1.4,0.5,2.2,0.6c0.3,0,0.7,0.1,1.1,0.1
	c0.8,0,1.6-0.1,2.4-0.3c0.8-0.2,1.4-0.5,2-1c0.6-0.4,1.1-1,1.5-1.6c0.3-0.5,0.6-1.1,0.7-1.8C15.3,14.1,14.3,14.1,14.3,14.1z"/>
</svg>
