<?xml version="1.0" encoding="utf-8"?>
<!-- Generator: Adobe Illustrator 25.0.0, SVG Export Plug-In . SVG Version: 6.00 Build 0)  -->
<svg version="1.1" id="Слой_1" xmlns="http://www.w3.org/2000/svg" xmlns:xlink="http://www.w3.org/1999/xlink" x="0px" y="0px"
	 viewBox="0 0 512 512" style="enable-background:new 0 0 512 512;" xml:space="preserve">
<style type="text/css">
	.st0{fill:#111111;}
</style>
<g id="_x23_000000ff">
	<path class="st0" d="M107.4,22.5c5.5-3.5,11.8-7.4,18.7-6.1c10.3,1.5,19.5,7.8,25.2,16.4c18,25.8,35.4,52.1,50.1,79.9
		c5.5,10.7,11,21.6,13.5,33.5c1.6,6.8-0.4,14-4.2,19.6c-3.6,5.3-8.3,9.7-13.1,13.9c-8,6.9-16.1,13.7-24,20.7
		c11.9,36.1,33.6,68.9,62,94.2c22.1,19.7,48.2,34.8,76.2,44.2c8.2-8.8,15.6-18.3,23.7-27.3c5.5-5.9,11.7-11.8,19.7-13.9
		c8.1-2.3,16.4,0.8,23.9,3.5c16.8,6.7,32.5,15.8,48,25.1c18.3,11.2,36.1,23.1,53.5,35.5c8.8,6.2,14.9,16.5,15.4,27.4
		c-0.2,5.8-3.4,10.9-6.4,15.6c-8.5,12.5-19.5,23.2-30.5,33.6c-15,13.8-30.9,26.6-47.5,38.4c-8.6,5.9-17.2,11.8-26.6,16.4
		c-3.7,1.8-7.8,3.5-12,2.9c-18.8-1.6-37.2-6.5-55.1-12.6c-38.5-13.5-74.3-33.9-107.2-57.9c-23.7-17.2-45.9-36.6-66.8-57
		c-18.8-19.3-36.7-39.6-52.9-61.2c-24.3-32.4-45.2-67.6-59.5-105.5c-6.8-18.3-12.2-37.3-14.7-56.7c-0.5-4.8-1.4-9.8,0.8-14.3
		c4.4-10.1,10.6-19.2,16.8-28.3c11-15.8,23-30.8,35.9-45.2C81.6,44.6,93.4,32.1,107.4,22.5z"/>
</g>
</svg>
