<svg xmlns="http://www.w3.org/2000/svg" width="50" height="50" viewBox="0 0 50 50">
  <defs>
    <style>
      .cls-1 {
        fill: #ed1c24;
        fill-rule: evenodd;
      }
    </style>
  </defs>
  <path id="Фигура_1556" data-name="Фигура 1556" class="cls-1" d="M645,2859a25,25,0,1,1-25,25A25,25,0,0,1,645,2859Zm-3.507,3.24a22.171,22.171,0,0,1,7.087.03c0.166,0.02.332,0.05,0.5,0.08a21.207,21.207,0,0,1,4.267,1.29c0.545,0.2,1.055.48,1.58,0.73a21.89,21.89,0,0,1,9.445,9.44c0.234,0.48.472,0.96,0.686,1.45a22,22,0,0,1,1.325,4.4,22.256,22.256,0,0,1,.115,7.58c-0.063.22-.069,0.44-0.119,0.66a21.841,21.841,0,0,1-17.212,17.21c-0.218.05-.443,0.06-0.657,0.12a22.918,22.918,0,0,1-7.015,0c-0.215-.06-0.441-0.07-0.657-0.12a21.139,21.139,0,0,1-4.113-1.24,21.8,21.8,0,0,1-11.864-11.86c-0.245-.61-0.482-1.22-0.671-1.85a22.749,22.749,0,0,1-.564-2.26c-0.05-.22-0.057-0.44-0.119-0.66a22.822,22.822,0,0,1,0-7.01c0.062-.22.068-0.44,0.119-0.66a21.837,21.837,0,0,1,17.212-17.21C641.052,2862.31,641.278,2862.3,641.493,2862.24Zm-0.588,2.04-0.555.12a19.906,19.906,0,0,0-14.807,23.53c0.047,0.18.087,0.37,0.126,0.55a19.2,19.2,0,0,0,1.954,4.96,19.885,19.885,0,0,0,13.094,9.74,19.659,19.659,0,0,0,8.467,0c0.157-.04.317-0.07,0.478-0.11a19.648,19.648,0,0,0,6.17-2.66,20.03,20.03,0,0,0,7.173-8.21,20.442,20.442,0,0,0,1.336-3.8c0.032-.16.065-0.33,0.109-0.48,0.082-.48.183-0.96,0.252-1.45a19.271,19.271,0,0,0-.25-6.92c-0.041-.16-0.081-0.32-0.112-0.48a17.53,17.53,0,0,0-.6-2.03,19.925,19.925,0,0,0-14.09-12.63c-0.186-.04-0.37-0.08-0.553-0.13-0.192-.03-0.382-0.06-0.572-0.1A19.54,19.54,0,0,0,640.905,2864.28Zm-2.538,11.46a3.571,3.571,0,0,1,4.963,4.68,3.527,3.527,0,0,1-2.167,1.83,3.592,3.592,0,0,1-2.5-.14,3.639,3.639,0,0,1-1.931-2.17A3.573,3.573,0,0,1,638.367,2875.74Zm1.077,1.55a1.76,1.76,0,0,0-.893,2.28,1.708,1.708,0,1,0,2.53-2.11,1.813,1.813,0,0,0-1.344-.26Zm1.1,9.57c3.775-3.77,7.529-7.55,11.314-11.3,0.441,0.43.879,0.87,1.315,1.31-4.415,4.45-8.868,8.87-13.295,13.31-0.589.57-1.151,1.18-1.754,1.73-0.436-.43-0.867-0.87-1.305-1.3C638.035,2889.34,639.308,2888.11,640.544,2886.86Zm8.3-1.64a3.587,3.587,0,0,1,2.576.18,3.551,3.551,0,0,1,1.633,4.85,3.722,3.722,0,0,1-1.226,1.38,3.6,3.6,0,0,1-1.581.54A3.56,3.56,0,0,1,648.84,2885.22Zm-0.675,3.38a1.746,1.746,0,0,0,1.3,1.67,3.03,3.03,0,0,0,.8,0,1.841,1.841,0,0,0,1.278-1.27,3.4,3.4,0,0,0,0-.8A1.71,1.71,0,0,0,648.165,2888.6Z" transform="translate(-620 -2859)"/>
</svg>
