<?xml version="1.0" encoding="utf-8"?>
<!-- Generator: Adobe Illustrator 25.0.0, SVG Export Plug-In . SVG Version: 6.00 Build 0)  -->
<svg version="1.1" id="Слой_1" xmlns="http://www.w3.org/2000/svg" xmlns:xlink="http://www.w3.org/1999/xlink" x="0px" y="0px"
	 viewBox="0 0 512 512" style="enable-background:new 0 0 512 512;" xml:space="preserve">
<style type="text/css">
	.st0{fill:#111111;}
</style>
<g id="_x23_000000ff">
	<path class="st0" d="M274.2,82.3c5.5-1,11.1-0.3,16.6,0.8c27.4,5.1,54.7,10.2,82.1,15.4c13.6,2.6,25.1,13.9,27.7,27.5
		c5.5,28.7,10.9,57.4,16.2,86.1c2.3,11.7-1.7,24.2-10.2,32.5c-56,56-112,112-168,168c-12.8,13-35.7,13.3-49,0.7
		c-34.1-34-68-68-102.1-102c-6.8-6.6-11-15.9-11-25.4c-0.2-9.9,4-19.6,11.1-26.4c55.5-55.5,111-111,166.4-166.4
		C259.5,87.5,266.6,83.6,274.2,82.3 M277.4,102.5c-3.2,0.6-6.1,2.2-8.3,4.5c-55.8,55.8-111.6,111.7-167.5,167.5
		c-6,5.6-6,16.1-0.1,21.8c33.7,33.7,67.3,67.4,101,101c5.6,6.2,16.3,6.4,22,0.3c55.8-55.8,111.7-111.7,167.5-167.6
		c3.8-3.6,5.6-9.2,4.5-14.3c-5.3-28.3-10.5-56.6-15.9-84.8c-1-6.1-5.9-11.3-11.9-12.4c-27.6-5.3-55.2-10.3-82.8-15.6
		C283.2,102.5,280.3,102,277.4,102.5z"/>
	<path class="st0" d="M293.4,151.6c10.3-2,21.3-0.5,30.5,4.5c12.7,6.7,22,19.6,24,33.9c1.9,12-1.3,24.8-8.7,34.4
		c-7.4,9.9-19,16.7-31.3,18.1c-14.3,1.8-29.4-3.6-39.1-14.2c-10.6-11.1-14.8-27.7-11.1-42.5C261.8,168.7,276.3,154.9,293.4,151.6
		 M299.3,171.4c-11.8,1.2-21.8,11.8-22.4,23.7c-1,11,6.2,21.9,16.5,25.6c9,3.5,19.9,1.3,26.7-5.5c6.9-6.5,9.6-17.1,6.7-26.1
		C323.5,177.5,311.2,169.6,299.3,171.4z"/>
</g>
</svg>
