<?xml version="1.0" encoding="utf-8"?>
<!-- Generator: Adobe Illustrator 25.0.0, SVG Export Plug-In . SVG Version: 6.00 Build 0)  -->
<svg version="1.1" id="Слой_1" xmlns="http://www.w3.org/2000/svg" xmlns:xlink="http://www.w3.org/1999/xlink" x="0px" y="0px"
	 viewBox="0 0 512 512" style="enable-background:new 0 0 512 512;" xml:space="preserve">
<style type="text/css">
	.st0{fill:#EC5C2A;}
</style>
<g id="_x23_000000ff">
	<path class="st0" d="M17.6,46.4C22,29.5,38.5,16.8,56,17.1c83,0,166,0,249,0c7.7-0.2,15.6-0.1,22.7,3.2c14.5,6,24.6,21.1,24.4,36.8
		c0.1,62.5-0.1,124.9,0.1,187.4c3.4,0.9,6.9,1.9,10.2,3c6.2-6.1,12.1-12.6,18.2-18.8c3-3.2,8.5-3,11.4,0.2
		c6.1,6.1,11.9,12.4,18,18.6c8.2-2.3,16.3-4.8,24.5-7.1c2.8-0.9,6-0.2,8.1,1.8c2,1.8,2.4,4.6,3,7.1c1.7,7.3,3.6,14.5,5.3,21.8
		c8.5,2.3,17.2,4.1,25.6,6.5c3.9,1.1,6.5,5.5,5.4,9.4c-2.2,8.4-4.7,16.8-7.1,25.1c6.1,6.2,12.5,12,18.7,18.2c3.1,2.9,3.1,8.4,0,11.3
		c-6.1,6-12.3,12-18.6,17.9c2.1,8.6,4.9,16.9,7.1,25.5c1.1,4-1.5,8.4-5.4,9.5c-8.5,2.4-17.1,4.2-25.6,6.5
		c-1.7,7.3-3.6,14.5-5.3,21.8c-0.7,2.4-1.1,5.2-3,7c-2.1,2.1-5.4,2.8-8.2,1.9c-8.2-2.3-16.3-4.8-24.4-7.1
		c-5.9,6-11.6,12.1-17.5,18.1c-1.9,2.1-4.8,3.4-7.6,2.8c-2.6-0.3-4.5-2.4-6.2-4.2c-5.3-5.6-10.7-11-16-16.7
		c-3.6,0.9-7.1,1.9-10.6,2.9c0,9.5-0.1,18.9-0.1,28.4c0,5.5-0.9,11.1-3,16.2c-5.9,14.8-21.2,25-37.1,24.8c-84.3,0.1-168.6,0-253,0
		c-6.4,0.1-12.9-0.7-18.7-3.4c-14.4-6-24.3-21.1-24.1-36.7c-0.1-131.7,0-263.4,0-395C16.1,56.7,16.1,51.4,17.6,46.4 M32.1,57
		c0,133.3,0,266.7,0,400c-0.4,12.8,11,24.4,23.8,24c85,0.1,170,0,255,0c5.5,0.1,11.1-1.4,15.5-4.7c6.1-4.4,9.7-11.9,9.6-19.4
		c0-8.3,0-16.5,0-24.8c-3.6-0.2-7.4-2.2-8.3-5.9c-2.3-8.5-4.1-17-6.4-25.5c-8.3-2.1-16.6-4.1-24.9-6.2c-4.5-0.9-7.4-5.9-5.9-10.2
		c2.3-8.3,4.8-16.5,7.1-24.7c-6-5.8-12-11.6-18-17.4c-3.4-2.8-4.2-8.4-1-11.6c6.2-6.3,12.7-12.3,19-18.5c-2.4-8.2-4.8-16.5-7.1-24.7
		c-1.5-4.3,1.4-9.3,5.9-10.2c8.3-2.1,16.6-4.1,24.9-6.2c2.2-8.5,4.1-17,6.4-25.5c0.9-3.8,4.7-5.8,8.3-6c0-60.9,0-121.8,0-182.7
		c0.3-12.1-9.9-23.3-22.1-23.9c-23-0.1-46-0.1-69-0.1c-4.6,9.1-9.1,18.2-13.7,27.3c-1.4,3.2-4.9,4.9-8.4,4.7c-26,0-52,0.1-78,0
		c-3.4,0.2-6.8-1.6-8.2-4.7c-4.6-9.1-9-18.2-13.7-27.2c-22.7,0-45.5-0.1-68.2,0C42.5,33.3,31.8,44.6,32.1,57 M141.1,33.1
		c2.7,5.3,5.3,10.7,8,16c23.4,0,46.7,0,70.1,0c2.7-5.3,5.4-10.7,8-16C198.5,33.1,169.8,33,141.1,33.1 M386.2,245.9
		c-5.1,5.4-10.2,10.7-15.3,16c-2.2,2.4-5.8,3.1-8.8,2.1c-6.9-2-13.9-4.1-20.8-6c-1.8,7.3-3.5,14.6-5.5,21.8c-0.7,3-3.3,5.3-6.3,5.9
		c-7,1.8-14.1,3.5-21.2,5.3c2,7.2,4.1,14.3,6.1,21.5c0.9,3-0.2,6.3-2.5,8.4c-5.2,5.1-10.5,10.1-15.7,15.2
		c5.4,5.2,10.8,10.3,16.1,15.6c2.3,2.2,2.9,5.7,1.9,8.7c-2,6.9-4,13.8-5.9,20.8c7,1.8,14.1,3.5,21.1,5.3c2.9,0.6,5.6,2.8,6.3,5.8
		c1.9,7.3,3.6,14.6,5.5,22c7.2-2,14.4-4.2,21.6-6.2c2.9-0.9,6,0.1,8.1,2.2c5.2,5.3,10.2,10.9,15.5,16c4.3-4.6,8.7-9.1,13-13.7
		c2.4-2.7,5.5-5.7,9.5-4.7c7.5,1.9,14.9,4.3,22.4,6.3c1.8-7,3.5-14.1,5.3-21.2c0.6-2.9,2.8-5.5,5.7-6.2c7.3-1.9,14.7-3.6,22-5.5
		c-2-7.1-4.1-14.2-6.1-21.4c-0.9-2.9,0-6.2,2.2-8.2c5.3-5.2,10.7-10.3,16-15.5c-5.3-5.2-10.7-10.2-16-15.4c-2.2-2.1-3.1-5.4-2.2-8.3
		c2-7.1,4.1-14.3,6.1-21.4c-7.1-1.8-14.2-3.5-21.3-5.3c-3.1-0.6-5.7-3.1-6.4-6.2c-1.8-7.1-3.6-14.3-5.4-21.4
		c-7.1,2-14.2,4.1-21.4,6.1c-2.8,0.9-6,0.1-8-2C396.6,256.7,391.6,251.1,386.2,245.9z"/>
	<path class="st0" d="M149.3,147.6c4.3-2,9.7,0.9,10.8,5.4c1,3.4-1.1,6.5-2.5,9.4c-8.1,16.2-16.1,32.3-24.2,48.5
		c34,0.1,68,0,101.9,0.1c-8.7-17.4-17.4-34.9-26.1-52.3c-2.2-3.8-0.5-9.2,3.6-11c3.8-2,9-0.1,10.7,3.8c9.9,19.8,19.9,39.6,29.8,59.4
		c7.6,0.1,15.3-0.1,22.9,0.1c4.2-0.1,8.1,3.6,8,7.9c-0.2,3.1-1,6.1-1.6,9.1c-7.6,36.3-15.1,72.5-22.6,108.8
		c-1.8,8.6-5.7,17-12.4,22.8c-5.6,5-13.1,7.6-20.6,7.4c-29-0.2-58.1-0.1-87.1-0.2c-9.5,0-18.6-5.1-24-12.8
		c-4.6-6.2-6.8-13.7-8.2-21.2c-7.8-37.3-15.6-74.5-23.3-111.8c-1.5-4.8,2.5-10.3,7.6-10.2c7.8-0.2,15.7,0.1,23.6-0.1
		c9.7-19.4,19.4-38.8,29.1-58.2C145.6,150.5,147,148.4,149.3,147.6 M102,226.9c7.2,35,14.6,70,21.8,105c1.2,6,3.4,12.1,8.1,16.2
		c2.5,2.2,5.8,3,9.1,2.9c29,0,58,0.1,87,0.2c3,0,6-0.7,8.3-2.7c4.6-3.9,6.9-9.7,8.1-15.5c7.3-35.2,14.5-70.5,21.9-105.8
		C211.6,227,156.8,227,102,226.9z"/>
	<path class="st0" d="M149.3,249.4c5-2.1,11,2.2,10.8,7.6c0.1,20.3-0.1,40.6,0,61c-0.1,2.8,0.2,6.1-1.7,8.4
		c-3.1,3.8-9.6,3.8-12.6-0.1c-1.7-2-1.6-4.8-1.7-7.3c0.1-20.7-0.1-41.4,0.1-62C144.1,253.7,146.2,250.5,149.3,249.4z"/>
	<path class="st0" d="M181.3,249.4c5-2.1,11.1,2.2,10.8,7.6c0.1,20.7-0.1,41.3,0.1,62c0.1,3.2-0.5,7-3.6,8.8
		c-4.6,3.1-12.2,0.2-12.4-5.7c-0.3-21.3,0-42.7-0.1-64.1C175.8,254.4,177.8,250.6,181.3,249.4z"/>
	<path class="st0" d="M213.3,249.4c5-2.1,11,2.1,10.8,7.5c0.1,21.4,0.1,42.7,0,64.1c0.3,5.1-5.2,8.9-10,7.5c-3.4-0.7-6-4-5.9-7.5
		c-0.1-21.1,0-42.1-0.1-63.1C207.8,254.4,209.8,250.6,213.3,249.4z"/>
	<path class="st0" d="M354.4,280.6c6.8-1.6,14.2,0.2,19.5,4.7c6.3,5.2,9.4,13.9,7.9,21.9c-1.1,6.5-5.3,12.5-11.1,15.8
		c-7.7,4.5-18,3.9-25-1.6c-6.5-4.8-9.9-13.3-8.8-21.3C337.9,290.7,345.3,282.5,354.4,280.6 M357.2,296.4c-4.8,1.5-6.2,8.5-2.3,11.7
		c3.4,3.5,9.9,1.5,11.2-3.1C367.9,299.8,362.2,294.4,357.2,296.4z"/>
	<path class="st0" d="M411.3,297.5c3.8-1.5,8.5,0.4,10.1,4.1c1.5,3,0.7,6.8-1.6,9.2c-18.1,20.2-36.2,40.5-54.3,60.7
		c-1.5,1.6-3.2,3.1-5.4,3.4c-4.9,0.8-9.9-3.9-9.3-8.9c0.2-2.1,1.6-3.9,2.9-5.4c17.9-20,35.9-40,53.8-60.1
		C408.6,299.3,409.7,298.1,411.3,297.5z"/>
	<path class="st0" d="M410.3,346.4c7.1-0.9,14.6,1.7,19.4,7c5.9,6.2,7.7,15.8,4.7,23.8c-2.2,6.3-7.5,11.4-13.8,13.6
		c-7.9,2.8-17.4,0.8-23.3-5.1c-5.9-5.6-8.2-14.4-6.2-22.2C393.3,354.4,401.3,347.4,410.3,346.4 M412.3,362.2
		c-5.4,0.4-8,7.9-4.1,11.6c3.1,3.7,9.6,2.3,11.3-2.1C421.6,367.1,417.2,361.4,412.3,362.2z"/>
	<path class="st0" d="M165.3,449.4c2.8-0.6,5.8-0.3,8.7-0.4c9.3,0.1,18.5-0.2,27.8,0.1c6.2,0.5,8.6,8.9,4.7,13.2
		c-2.8,3.4-7.6,2.5-11.4,2.7c-9.7-0.2-19.4,0.4-29.1-0.3C158.4,463.5,158,451.3,165.3,449.4z"/>
</g>
</svg>
