<?xml version="1.0" encoding="utf-8"?>
<!-- Generator: Adobe Illustrator 25.0.0, SVG Export Plug-In . SVG Version: 6.00 Build 0)  -->
<svg version="1.1" id="Слой_1" xmlns="http://www.w3.org/2000/svg" xmlns:xlink="http://www.w3.org/1999/xlink" x="0px" y="0px"
	 viewBox="0 0 512 512" style="enable-background:new 0 0 512 512;" xml:space="preserve">
<style type="text/css">
	.st0{fill:#FFFFFF;}
</style>
<g id="_x23_000000ff">
	<path class="st0" d="M186.1,128.2c22.5-12.1,48.6-16.9,73.9-14.1c30,3.2,58.5,17.8,79,39.9c20.7,22.1,33,51.7,34,82
		c1.3,32.1-10.3,64.4-31.5,88.6c16.6,16.4,33,33,49.5,49.4c2.2,2.1,4.3,4.8,4.4,8c0.5,5-3.4,10-8.4,10.8c-3.3,0.7-6.8-0.5-9.1-2.9
		c-17.2-17-34.1-34.2-51.3-51.1C304.3,357.6,275.2,368,246,368c-23.1,0.1-46.1-6.3-65.8-18.2c-26.2-15.7-46.4-41.1-55.7-70.1
		c-9.2-28.6-8-60.6,3.8-88.3C139.5,164.5,160.3,141.8,186.1,128.2 M236.1,134.2c-18.8,1.7-37.1,8.5-52.4,19.5
		c-22.3,15.8-38.2,40.5-43.1,67.5c-4.7,24.7-0.1,51,12.5,72.8c13.6,23.6,36.4,41.7,62.6,49.3c22.1,6.6,46.4,5.6,67.9-2.6
		c24.6-9.3,45.5-28.1,57.4-51.5c12.1-23.6,14.9-51.9,7.6-77.4c-7.2-25.6-24.4-48.3-47.1-62.1C282.2,137.5,258.9,132.1,236.1,134.2z"
		/>
</g>
</svg>
