<?xml version="1.0" encoding="utf-8"?>
<!-- Generator: Adobe Illustrator 25.0.0, SVG Export Plug-In . SVG Version: 6.00 Build 0)  -->
<svg version="1.2" baseProfile="tiny" id="Слой_1"
	 xmlns="http://www.w3.org/2000/svg" xmlns:xlink="http://www.w3.org/1999/xlink" x="0px" y="0px" viewBox="0 0 512 512"
	 overflow="visible" xml:space="preserve">
<g id="_x23_000000ff">
	<path fill="#EC5C2A" d="M79.2,21c1.4-3.4,5.1-5.3,8.7-5c110.7,0,221.4,0,332.1,0c4-0.5,8.5,1,10.1,5c18.6,37.7,37.5,75.3,56,113.1
		c0.5,14.3,0.4,28.6,0.6,42.9c0,15.4-10.2,29.5-24,35.8c0.1,78.4,0,156.8,0.1,235.2c6.3,0.3,12.7,2.7,17.1,7.3
		c5.6,5.6,8.2,14,6.4,21.8c-1.7,8.3-8.2,15.4-16.3,17.9c-4.8,1.5-9.8,1.1-14.8,1.1c-136,0-272,0-408.1,0
		c-7.8,0.1-15.4-3.8-19.8-10.2c-5.1-7-5.9-16.9-1.9-24.6c3.9-8,12.6-13.2,21.4-13.4c-0.1-78.4,0-156.9-0.1-235.3
		c-13.9-6-23.7-20.4-23.9-35.6c0-13,0.3-25.9,0.4-38.9c0.1-1.7-0.1-3.5,0.7-5.1C42.3,95.7,60.8,58.3,79.2,21 M40.1,135.1
		c-0.8,1.5-1.6,3.1-1.4,4.9c0.1,12.3-0.1,24.6,0.1,37c0.1,9.4,6.4,18.1,15.1,21.4c8.3,3.3,18.4,1.5,25-4.5c5-4.4,7.8-11.1,7.8-17.7
		c0.1-11.3,0-22.7,0.2-34.1c0.1-3.2-0.4-6.5,0.8-9.6C99.6,99,111.4,65.5,123.3,32c-10.5,0-21,0-31.5-0.1
		C74.4,66.2,57.5,100.7,40.1,135.1 M140.3,32.1c-12.3,34.7-24.8,69.4-37,104.1c-0.6,1.6-0.5,3.3-0.5,4.9c0.1,12-0.1,24,0,36
		c0.2,8,4.7,15.7,11.7,19.6c8.8,5.3,20.9,4.1,28.5-2.8c5-4.4,7.8-11.1,7.8-17.7c0.1-13,0.1-26.1,0.1-39.1c0.1-3.1,0.9-6.1,1.6-9.1
		c6.8-31.9,13.6-63.9,20.5-95.8C161.9,32,151.1,32,140.3,32.1 M189.1,32c-7.3,34.3-14.7,68.6-22,102.9c-0.4,2-0.5,4-0.4,6
		c0.1,12-0.1,24,0,36c0.2,8,4.7,15.7,11.7,19.7c8.6,5.1,20.3,4.1,27.8-2.4c5.3-4.5,8.4-11.4,8.4-18.3c0.1-13.6-0.1-27.3,0.1-40.9
		c2.3-34.4,4.9-68.7,7.3-103.1C211.1,32.1,200.1,32,189.1,32 M238.1,32c-2.4,34.4-4.8,68.7-7.3,103.1c-0.2,13.6-0.1,27.3-0.1,40.9
		c-0.1,8.8,5,17.4,12.9,21.3c8.7,4.5,20,3.1,27.2-3.5c5.3-4.7,8.1-11.8,7.8-18.8c0-13.5,0.1-26.9-0.1-40.4
		c-2.4-34.2-4.9-68.5-7.4-102.7C260.1,32,249.1,32,238.1,32 M287.3,32c2.3,31.4,4.4,62.7,6.8,94.1c1.2,12.3,0.4,24.6,0.6,36.9
		c0.2,6-0.5,12.1,0.5,18.1c1.4,6.9,6.1,13.1,12.5,16.3c8.7,4.4,20,3.1,27.2-3.5c5.3-4.7,8-11.8,7.8-18.8
		c-0.1-12.9,0.3-25.9-0.2-38.8c-7.3-34.4-14.7-68.7-22-103.1c-0.1-0.2-0.4-0.7-0.5-1C309.1,31.9,298.2,32.2,287.3,32 M336.6,32
		c7.3,34.2,14.7,68.4,21.9,102.7c0.4,14.1,0,28.2,0.2,42.2c0.2,8,4.7,15.7,11.7,19.7c8.6,5.2,20.4,4.2,27.9-2.3
		c5.3-4.4,8.4-11.3,8.4-18.2c0.1-11.7,0-23.4,0-35c0-1.8,0-3.6-0.6-5.3C393.7,101.2,381.4,66.6,369,32C358.2,32,347.4,32,336.6,32
		 M386.1,32c11.4,32.3,22.9,64.6,34.4,96.9c0.9,2.6,2.2,5.2,2.1,8.1c0,13,0.1,26,0.2,38.9c-0.1,7.8,3.8,15.6,10.4,19.9
		c8.4,5.8,20.5,5.4,28.5-1c5.7-4.4,9.1-11.6,9-18.8c0-11.7,0-23.4,0-35c0-1.4,0.1-2.9-0.6-4.2c-17.4-35-34.9-69.9-52.3-104.8
		C407.2,32,396.7,32.1,386.1,32 M86.2,208.1c-6.7,5.1-15.1,7.6-23.5,7.9c0,77.3,0,154.6,0,231.9c85.3,0.1,170.7,0,256,0
		c0-56,0-112,0-168c-0.1-9.8,6.5-19.1,15.7-22.5c5.3-2.1,11.1-1.5,16.6-1.6c19,0.1,38-0.1,57,0.1c11.9,0.4,22.4,11,22.6,22.9
		c0.1,56.3,0,112.6,0.1,168.9c5.3,0.1,10.7,0.1,16,0.1c0-77.3,0-154.6,0-232c-12.4-0.1-24.5-6.2-31.9-16.2c-7,8.8-17.4,15.2-28.8,16
		c-13.5,1.2-27.2-5.2-35.2-16c-8.9,11.6-24.1,18.3-38.7,15.6c-10.2-1.5-19.1-7.7-25.6-15.6c-9.2,12.6-26.1,19-41.3,15
		c-9.1-2.1-16.8-8-22.8-14.9c-8.2,11.3-22.8,17.7-36.6,15.8c-10.7-1.3-20.6-7.2-27-15.8c-6.7,8.2-16.1,14.4-26.8,15.8
		c-14.1,2.1-28.8-4.3-37.2-15.8C92.1,202.7,89.5,205.8,86.2,208.1 M334.7,280c-0.1,56,0,112,0,167.9c26.6,0.1,53.3,0,79.9,0
		c0-55,0-110,0-165.1c-0.1-2.5,0.2-5.2-1.3-7.4c-1.5-2.5-4.5-3.7-7.3-3.5c-21,0-42,0-63,0C338.6,271.7,334.5,275.6,334.7,280
		 M43.4,464.7c-3.6,1.5-5.5,5.8-4.4,9.4c0.8,3.5,4.3,6.1,7.9,5.9c138.4,0,276.8,0,415.2,0c4.5,0.4,8.8-3.4,8.6-7.9
		c0.2-4.6-4.1-8.5-8.6-8c-137.7,0-275.4,0-413.1,0C47.1,464.1,45.2,464,43.4,464.7z"/>
	<path fill="#EC5C2A" d="M90.4,256.6c1.8-0.5,3.8-0.6,5.7-0.6c63.3,0,126.6,0,189.9,0c8.8-0.5,16.9,7.2,16.7,16c0,45.4,0,90.7,0,136
		c0.1,8.7-7.9,16.5-16.6,16c-61.7,0-123.4,0-185,0c-4,0-8.2,0.5-11.9-1c-5.9-2.3-10.4-8.4-10.3-14.9c0-45.4,0-90.7,0-136.1
		C78.6,265,83.7,258.5,90.4,256.6 M94.7,272c0,45.3,0,90.6,0,136c64,0,128,0,192,0c0.1-45.3,0-90.6,0-136
		C222.7,272,158.7,272,94.7,272z"/>
</g>
</svg>
