<svg xmlns="http://www.w3.org/2000/svg" display='none'>

    <symbol id="search" viewBox="0 0 277.03 279.67">
        <g>
            <path
                    d="M67.69,14.88a127.31,127.31,0,0,1,155.4,196.4c16.6,16.4,33,33,49.5,49.4,2.2,2.1,4.3,4.8,4.4,8a10.31,10.31,0,0,1-8.4,10.8,10,10,0,0,1-9.1-2.9c-17.2-17-34.1-34.2-51.3-51.1a126.8,126.8,0,0,1-146.4,11,127.24,127.24,0,0,1,5.9-221.6m50,6a106.93,106.93,0,1,0,47.5,206.5,106.85,106.85,0,0,0,65-128.9,107.6,107.6,0,0,0-47.1-62.1A105,105,0,0,0,117.69,20.88Z"/>
        </g>
    </symbol>

    <symbol id="arrow-right-mini" viewBox="0 0 193.28 299.91">
        <g>
            <path d="M16.66.75a21.46,21.46,0,0,1,20.1,5q74.4,63.6,148.7,127.3a21.48,21.48,0,0,1,7.1,21.9c-1.3,5.2-4.9,9.5-9,12.8q-74.4,63.75-148.9,127.5a21.33,21.33,0,0,1-33.5-9.7,21.31,21.31,0,0,1,5.2-22.1c44.3-38,88.7-75.8,132.9-113.9Q74.31,94,9.36,38.35a21.42,21.42,0,0,1-8.3-18.5A20.91,20.91,0,0,1,16.66.75Z"/>
        </g>
    </symbol>

    <symbol id="arrow-left-mini" viewBox="0 0 193.28 299.91">
        <g>
            <path d="M192.22,19.85a21.42,21.42,0,0,1-8.3,18.5Q119,93.85,54,149.55c44.2,38.1,88.6,75.9,132.9,113.9a21.3,21.3,0,0,1-11.5,36.2,21.53,21.53,0,0,1-16.8-4.4Q84.22,231.5,9.72,167.75c-4.1-3.3-7.7-7.6-9-12.8a21.48,21.48,0,0,1,7.1-21.9q74.4-63.6,148.7-127.3a21.46,21.46,0,0,1,20.1-5A20.91,20.91,0,0,1,192.22,19.85Z"/>
        </g>
    </symbol>

    <symbol id="arrow-down-mini" viewBox="0 0 299.3 192.72">
        <g>
            <path d="M14.67,1.53a21.55,21.55,0,0,1,18,2.2c3.4,2.1,5.8,5.4,8.4,8.3,36.2,42.1,72.2,84.5,108.5,126.5Q205.82,73,261.87,7.43a21.28,21.28,0,0,1,37.4,14.9,21.86,21.86,0,0,1-5.4,13.3q-64.2,74.85-128.3,149.7a21.31,21.31,0,0,1-32.6-.4Q69.37,110.68,5.87,36.33a21.36,21.36,0,0,1-5.4-19A21.08,21.08,0,0,1,14.67,1.53Z"/>
        </g>
    </symbol>

    <symbol id="sale-icon" viewBox="0 0 340.95 340.74">
        <g>
            <path d="M197.71.48c5.5-1,11.1-.3,16.6.8,27.4,5.1,54.7,10.2,82.1,15.4,13.6,2.6,25.1,13.9,27.7,27.5q8.25,43,16.2,86.1a36.28,36.28,0,0,1-10.2,32.5l-168,168c-12.8,13-35.7,13.3-49,.7-34.1-34-68-68-102.1-102a35.87,35.87,0,0,1,.1-51.8l166.4-166.4A37.47,37.47,0,0,1,197.71.48m3.2,20.2a15.44,15.44,0,0,0-8.3,4.5q-83.7,83.7-167.5,167.5c-6,5.6-6,16.1-.1,21.8q50.55,50.55,101,101c5.6,6.2,16.3,6.4,22,.3q83.7-83.7,167.5-167.6a15.58,15.58,0,0,0,4.5-14.3c-5.3-28.3-10.5-56.6-15.9-84.8a15.25,15.25,0,0,0-11.9-12.4c-27.6-5.3-55.2-10.3-82.8-15.6A26.74,26.74,0,0,0,200.91,20.68Z"/>
            <path d="M216.91,69.78a46.1,46.1,0,0,1,54.5,38.4,45.5,45.5,0,0,1-8.7,34.4,46,46,0,1,1-45.8-72.8m5.9,19.8c-11.8,1.2-21.8,11.8-22.4,23.7-1,11,6.2,21.9,16.5,25.6a25.49,25.49,0,0,0,26.7-5.5,25.83,25.83,0,0,0,6.7-26.1C247,95.68,234.71,87.78,222.81,89.58Z"/>
        </g>
    </symbol>

    <symbol id="arrow-right" viewBox="0 0 469.97 256.74">
        <g>
            <path d="M321.34,15.21a21.44,21.44,0,0,1,35.8-8.8q53,53.1,106,106.1c8.7,7.7,9.2,22.3.9,30.5-34.9,35.1-69.9,70-104.9,105.1-3.9,4.2-8.9,8-14.9,8.5-12.1,1.4-23.8-9.3-24-21.4-.2-5.8,2.6-11.4,6.7-15.4l70.1-70.1q-188-.15-375.8,0c-5.9.1-11.9-2-15.8-6.5-7.1-7.9-7.3-21-.3-29,4.2-4.9,10.8-7.3,17.1-7.2h375q-35.4-35.4-70.9-70.8A21.07,21.07,0,0,1,321.34,15.21Z"/>
        </g>
    </symbol>
</svg>