<svg xmlns="http://www.w3.org/2000/svg" viewBox="0 0 281.52 273.91"><defs><style>.cls-1{fill:#111;}</style></defs><g id="Слой_2" data-name="Слой 2"><g id="Слой_1-2" data-name="Слой 1"><g id="_000000ff" data-name="#000000ff"><path class="cls-1" d="M104.31,10a71.64,71.64,0,0,1,76.3,121.2,143.51,143.51,0,0,1,61.6,37.9c24.3,25.1,38.8,59.5,39.3,94.4.3,5.7-4.9,10.7-10.6,10.4H10.71c-5.7.3-11-4.7-10.7-10.4a139,139,0,0,1,24.9-76.8,142.11,142.11,0,0,1,76-55.3,72.92,72.92,0,0,1-28.8-38.9,71.32,71.32,0,0,1,2.4-48.2A72.31,72.31,0,0,1,104.31,10m28,11.2c-21.1,3.3-38.9,21.1-42,42.3a51.49,51.49,0,0,0,11.8,41.6,51.07,51.07,0,0,0,76.9.5,51.16,51.16,0,0,0-10.5-76.9,50.75,50.75,0,0,0-36.2-7.5M61.41,176.1c-22.3,19.6-37.2,47.6-40.2,77.2q119.55.15,239.1,0c-3.5-33.9-22.5-65.7-50.3-85.3a119.28,119.28,0,0,0-80.3-21.7A121.68,121.68,0,0,0,61.41,176.1Z"/></g></g></g></svg>