<?xml version="1.0" encoding="utf-8"?>
<!-- Generator: Adobe Illustrator 25.0.0, SVG Export Plug-In . SVG Version: 6.00 Build 0)  -->
<svg version="1.2" baseProfile="tiny" id="Слой_1"
	 xmlns="http://www.w3.org/2000/svg" xmlns:xlink="http://www.w3.org/1999/xlink" x="0px" y="0px" viewBox="0 0 512 512"
	 overflow="visible" xml:space="preserve">
<g id="_x23_000000ff">
	<path fill="#EC5C2A" d="M43,13c6-3.4,13-5.2,19.9-5.1c127.7,0,255.4,0,383.1,0c4.6-0.4,8.8,3.6,8.6,8.2c0.5,32,0.8,64,1.2,96
		c10.5,0.2,20.9,4.3,28.3,11.8c7.6,7.6,12,18.3,11.8,29.1c0,102.7,0,205.4,0,308c0.1,6.4-0.6,12.9-3.2,18.7
		c-6,14.5-21.1,24.6-36.8,24.4c-133,0-266,0-399,0c-9.9,0.2-19.8-3.3-27.3-9.9c-9-7.6-14.1-19.5-13.8-31.3c0-132.3,0-264.7,0-397
		C15.4,45.4,24.4,23.3,43,13 M52.8,25.9c-8,3.5-13.7,10.9-17,18.8c-5.1,12-4.8,25.8-0.6,38c3.7,11,10.3,21.8,20.8,27.6
		c0-4.9-0.3-10.1,1.6-14.7c2.5-6.5,7.9-11.5,14.4-14c0-4.2-0.2-8.3,0.3-12.5c1.1-9.2,8-17.3,16.8-19.9c3.9-1.3,8-1.1,12-1.1
		c89,0,178,0,267,0c9.7-0.2,18.9,6.5,22.3,15.5c2.1,5.2,1.5,10.9,1.6,16.4c3.7,0,7.5-0.2,11.2,0.3c8.9,1.1,16.7,7.6,19.5,16.1
		c1.8,5,1.2,10.5,1.3,15.7c5.3,0,10.6,0,15.9,0c-0.3-29.4-0.7-58.8-1-88.2C314.6,23.7,190.3,24,66,23.9C61.5,23.8,56.9,24,52.8,25.9
		 M89.8,66.9c-3,3.7-1.6,8.8-1.9,13.2c96,0,192,0,287.9,0c-0.1-3.4,0.5-7.1-0.6-10.4c-1.4-3.2-4.6-5.8-8.2-5.6
		c-89.4-0.1-178.7,0-268.1-0.1C95.8,64,92,64.1,89.8,66.9 M74.3,98.4c-3.7,3.6-2,9.2-2.4,13.8c112,0,223.9,0,335.9,0
		c-0.1-3.5,0.4-7.1-0.4-10.6c-1-3.6-4.7-5.8-8.4-5.5C294.8,96,190.4,96.2,86,96.1C82.1,96.2,77.4,95.3,74.3,98.4 M31.9,110.5
		c0,115.8,0,231.7,0,347.5c0,4.6-0.3,9.4,1.3,13.9c2.2,6.7,7.5,12.3,14.2,14.7c5,1.9,10.4,1.5,15.6,1.6c128.7,0,257.3,0,386,0
		c5.2,0,10.7,0.3,15.6-1.6c10.3-3.6,16.4-14.8,15.3-25.5c-0.1-45.6,0-91.2,0-136.8c-23,0.1-46-0.1-68.9,0
		c-17.4,1-34.9-8.8-42.5-24.6c-5.9-11.8-6.1-26.4-0.3-38.3c6.9-14.7,22.4-24.9,38.7-25.1c24.3-0.1,48.6,0,72.9,0
		c-0.1-27.8,0-55.5,0-83.3c0.8-12.8-10.1-24.7-22.9-24.8c-130.6-0.2-261.3-0.1-391.9-0.1C51.9,128.2,39.9,120.6,31.9,110.5
		 M391.5,257.4c-9.1,6.3-13.4,18.4-10.8,29.2c2.1,9.9,10.2,18.1,20,20.6c4.7,1.2,9.6,1,14.4,1c21.6,0,43.2,0,64.9,0
		c0-18.7,0.1-37.3,0-56c-23.6,0-47.3,0.1-70.9,0C402.8,252,396.5,253.7,391.5,257.4z"/>
</g>
</svg>
