<?xml version="1.0" encoding="utf-8"?>
<!-- Generator: Adobe Illustrator 25.0.0, SVG Export Plug-In . SVG Version: 6.00 Build 0)  -->
<svg version="1.1" id="Слой_1" xmlns="http://www.w3.org/2000/svg" xmlns:xlink="http://www.w3.org/1999/xlink" x="0px" y="0px"
	 viewBox="0 0 512 512" style="enable-background:new 0 0 512 512;" xml:space="preserve">
<style type="text/css">
	.st0{fill:#EC5C2A;}
</style>
<g id="_x23_000000ff">
	<path class="st0" d="M111.3,37.9c-0.3-4.6,4.1-8.6,8.7-8.2c26,0,52,0,78,0c5.8-0.9,10.4,4.7,9.4,10.3c-0.2,10,0.1,20-0.1,30
		c0,3.7-3,7-6.6,7.5c-3.1,0.4-6.2,0.2-9.3,0.2c-0.1,27.5,0.1,54.9,0,82.4c10.3,3.5,21.1,6.4,30.5,12.2c6.9,4.2,12.8,10.3,16.4,17.7
		c5.8,11.8,7.2,25.1,8.2,38c1.4,22.7,0.9,45.4,1,68.1c0.1,52-0.1,104,0,156.1c0.1,5-1.6,10.3-5.4,13.8c-4.9,4.4-11.3,6.3-17.5,7.7
		c-12.5,2.7-25.3,3.4-38.1,3.9c-18.1,0.6-36.2,0.5-54.3-0.1c-12.6-0.6-25.3-1.4-37.6-4c-6.2-1.4-12.6-3.2-17.5-7.4
		c-4-3.4-5.8-8.8-5.6-14c0-53,0-106,0-159c0.1-21.7-0.4-43.4,1-65.1c1-13,2.4-26.4,8.3-38.3c3.6-7.3,9.5-13.3,16.4-17.6
		c9.3-5.7,20-8.5,30.3-12c0-27.4,0-54.9,0-82.3c-3.5-0.1-7.1,0.4-10.6-0.5c-3.4-1.1-5.6-4.6-5.4-8.2
		C111.3,58.7,111.3,48.3,111.3,37.9 M127.3,45.7c0,5.3,0,10.7,0,16c4.9,0,9.7-0.6,14.6-0.5c16.5,0.2,32.9-0.4,49.4,0.4
		c0-5.3,0-10.7,0-16C170,45.7,148.6,45.7,127.3,45.7 M143.3,77.7c0.1,29.1,0,58.2,0,87.3c0.2,3.5-1.8,7-5.2,8.1
		c-11.5,4.3-23.9,6.9-34.4,13.6c-6.6,4.2-10.1,11.6-11.9,18.9c45,0,89.9,0.1,134.9,0c-1.9-7.2-5.2-14.6-11.8-18.8
		c-10.5-6.7-22.8-9.5-34.4-13.7c-3.4-1.1-5.5-4.6-5.3-8.2c0-29.1,0-58.2,0-87.3C164.6,77.8,154,77.7,143.3,77.7 M89.2,221.7
		c-2.3,23.4-1.8,46.9-1.9,70.3c0,40.5,0,81.1,0,121.7c48,0,96,0,144,0c0-40.5,0-81.1,0-121.6c-0.1-23.5,0.4-47-1.9-70.4
		C182.7,221.7,135.9,221.7,89.2,221.7 M87.3,454c5.3,3.2,11.6,4.1,17.6,5.1c17.6,2.4,35.4,2.6,53.1,2.9c17.7,0,35.5-0.2,53.2-2.3
		c6.9-1,14.1-1.9,20.2-5.4c0-8.2,0-16.3,0-24.5c-48,0-95.9,0-143.9,0C87.3,437.8,87.4,445.9,87.3,454z"/>
	<path class="st0" d="M298.9,183c2.3-1.6,5.3-1.2,8-1.3c38.7,0,77.4,0.1,116.1,0c4.2-0.3,8,3.3,8.3,7.4c2.8,28.6,5.6,57.2,8.4,85.8
		c0.5,6,0.2,12,0,18c-0.9,19.9-4.1,41-16.5,57.2c-11.3,14.7-29.8,21.7-47.8,23c0,29.5,0,59,0,88.5c10.6,0,21.1,0,31.7,0
		c4.3-0.3,8.4,3.2,8.5,7.6c0.4,4.6-3.8,8.8-8.4,8.4c-26.4,0.1-52.8,0-79.2,0c-4.4,0.4-8.7-3.2-8.8-7.7c-0.3-4.3,3.5-8.4,7.8-8.3
		c10.8-0.1,21.6,0,32.4,0c0-29.5,0-59,0-88.4c-16.6-1-33.7-5.1-47-15.5c-12.5-9.4-19.9-24.2-23.1-39.3c-3-14.3-2.6-29.1-1.4-43.6
		c2.5-28.3,4.9-56.7,7.4-85C295.4,187.2,296.6,184.5,298.9,183 M309.2,214.4c36.6,4.8,73.3,9.7,109.9,14.6c-1-10.5-2-20.9-3.1-31.3
		c-35.1,0-70.3,0-105.4,0C310.2,203.3,309.7,208.9,309.2,214.4 M303.8,277.1c-0.9,10.6-1.1,21.3,0.2,31.9
		c1.7,13.8,7.2,27.9,18.4,36.6c12.6,9.7,29.1,11.9,44.6,11.9c11.3,0,23.1-1.4,33-7.4c9.5-5.8,15.6-15.9,18.8-26.4
		c4.3-14.5,5.2-29.8,5.1-44.9c-0.9-11.2-2.1-22.3-3.1-33.5c-37.6-5.1-75.3-10.1-112.9-15.1C306.5,245.9,305.1,261.5,303.8,277.1z"/>
</g>
</svg>
