<svg xmlns="http://www.w3.org/2000/svg" viewBox="0 0 380.582 380.582">
    <path d="M230.057 67.083a111.235 111.235 0 00-51.937 2.706 5.771 5.771 0 103.24 11.08c52.799-15.664 108.3 14.44 123.964 67.24a99.721 99.721 0 012.436 46.6 5.76 5.76 0 004.6 6.72 5.76 5.76 0 006.715-4.612l.005-.028c11.234-60.4-28.623-118.472-89.023-129.706zM371.2 283.669a94.529 94.529 0 00-16-14.44l-5.24-4c-3.44-2.68-6.84-5.36-10.72-8-6.08-4.36-11.12-7.72-17.12-11.76l-1.52-1c-24.52-16.44-41.64-28-70.4-5.72a64.008 64.008 0 00-12 12.44c-7.28 9.36-12 15.52-49.8-5.52-3.72-2.08-9.08-5.48-14.12-9a105.635 105.635 0 01-10.76-8.36l-1.2-1.24a29.12 29.12 0 00-3.16-2.88l-12.84-13.16a142.595 142.595 0 01-22.44-36.64c-4-10.04-6.52-19.76-4.64-26.36a14.714 14.714 0 011.8-3.8 25.352 25.352 0 013.44-4.28 55.282 55.282 0 016.76-5.2c14.04-9.84 33.36-23.36 14.52-57a261.951 261.951 0 00-26.52-38.72l-3.12-4a194.336 194.336 0 00-16.68-18.16l-.84-.84-.28-.2-.32-.28c-6.92-6.92-13.6-13.44-28-13.44a70.639 70.639 0 00-48.48 21.72A70 70 0 000 72.349a82.81 82.81 0 004.48 25.36 148.74 148.74 0 008.64 20.68 592.241 592.241 0 0091.6 134.64 416.01 416.01 0 00114.76 88.8c1.4.72 2.56 1.4 3.68 2.04s3.2 1.88 5.08 2.8l8.52 4.24 1.08.56 38.88 17.84c2.92 1.24 5.08 2.24 7.08 3.16 14.16 6.48 19.72 9.04 40 .88a115.439 115.439 0 0040.36-29.08c9.56-10.88 16.32-23.56 16.32-36.6a36.801 36.801 0 00-9.28-24zm-15.72 53.16a103.09 103.09 0 01-36 26c-15.64 6.28-20 4.32-30.8-.68-2.32-1.04-4.88-2.24-7.36-3.28l-38.72-17.76-.92-.48-8.56-4.28c-1.64-.84-3-1.6-4.32-2.4s-2.76-1.64-4.2-2.36a404.272 404.272 0 01-111.4-86.36 580.708 580.708 0 01-89.76-132.24 136.718 136.718 0 01-8-18.88 71.38 71.38 0 01-4-21.8 58.438 58.438 0 0118.28-40.28v.16a58.997 58.997 0 0140.6-18.48c9.48 0 14.48 4.84 19.64 10l.28.32.24.24.84.84A186.753 186.753 0 01107 42.389l3.12 4a251.956 251.956 0 0125.52 37.28c13.76 24.56-.56 34.6-11 41.92a63.47 63.47 0 00-8.32 6.48 37.274 37.274 0 00-5.08 6.28 26.08 26.08 0 00-3.16 6.88c-2.64 9.44 0 21.72 5.12 33.92a155.415 155.415 0 0024.56 39.76l13.28 13.64.6.56a20.081 20.081 0 012.32 2.12l1.72 1.68a117.917 117.917 0 0012 9.4c5.4 3.76 11.12 7.4 15.12 9.64 46.4 25.88 53.6 16.6 64.56 2.52a55.225 55.225 0 019.72-10.4c22.2-17.12 36.48-7.56 56.92 6.16l1.52 1c6 4 11 7.36 16.8 11.52 3.68 2.64 7 5.24 10.36 8l5.32 4a84.698 84.698 0 0114.32 12.68 25.72 25.72 0 016.64 16.44c0 9.84-5.6 20-13.48 28.96z"/>
    <path d="M219.574 122.527a54.876 54.876 0 00-25.254 1.302 5.771 5.771 0 103.24 11.08c22.962-6.72 47.024 6.447 53.743 29.409a43.328 43.328 0 011.017 20.071 5.76 5.76 0 004.612 6.715l.028.005a5.76 5.76 0 006.704-4.628l.016-.092c5.455-29.814-14.291-58.406-44.106-63.862zM324.12 49.429c-44.221-39.808-105.958-53.761-163-36.84a5.771 5.771 0 103.24 11.08c84.382-25.015 173.066 23.113 198.081 107.495a159.357 159.357 0 013.879 74.465 5.774 5.774 0 0011.36 2.08c10.911-58.486-9.376-118.438-53.56-158.28z"/>
</svg>