<?xml version="1.0" encoding="UTF-8" ?>
<!DOCTYPE svg PUBLIC "-//W3C//DTD SVG 1.1//EN" "http://www.w3.org/Graphics/SVG/1.1/DTD/svg11.dtd">
<svg width="640pt" height="640pt" viewBox="0 0 640 640" version="1.1" xmlns="http://www.w3.org/2000/svg">
<g id="#000000ff">
<path fill="#000000" opacity="1.00" d=" M 170.04 244.10 C 175.34 239.19 182.26 236.23 189.41 235.40 C 190.78 251.70 177.09 268.41 160.23 267.86 C 159.58 258.93 163.64 250.17 170.04 244.10 Z" />
<path fill="#000000" opacity="1.00" d=" M 257.53 245.37 C 274.37 245.38 291.21 245.33 308.05 245.39 C 319.95 245.42 332.18 249.75 340.32 258.68 C 351.38 270.64 353.63 289.07 347.98 304.03 C 343.82 315.07 334.33 323.72 323.17 327.35 C 315.74 330.00 307.76 330.11 299.97 329.97 C 292.69 329.96 285.41 329.97 278.13 329.97 C 278.12 344.62 278.13 359.28 278.12 373.93 C 271.26 373.93 264.39 373.93 257.53 373.93 C 257.54 331.08 257.53 288.22 257.53 245.37 M 278.11 262.20 C 278.11 279.21 278.11 296.22 278.11 313.23 C 287.09 313.14 296.08 313.42 305.05 313.09 C 313.88 312.72 323.34 308.64 327.25 300.25 C 331.03 291.93 330.93 281.62 326.43 273.59 C 322.10 266.07 313.19 262.67 304.88 262.31 C 295.96 262.05 287.03 262.27 278.11 262.20 Z" />
<path fill="#000000" opacity="1.00" d=" M 179.17 270.39 C 192.35 266.90 207.60 271.80 215.61 283.02 C 210.13 286.69 205.24 291.49 202.55 297.59 C 198.04 307.55 199.61 320.01 206.61 328.45 C 209.94 332.66 214.49 335.69 219.25 338.07 C 215.75 348.61 209.77 358.17 202.55 366.55 C 198.84 370.79 193.88 374.49 188.06 374.78 C 179.54 375.57 172.55 368.90 164.06 369.32 C 156.12 368.66 149.44 373.78 141.85 374.87 C 135.70 375.80 129.99 372.33 125.90 368.06 C 114.63 356.08 106.75 340.93 103.60 324.77 C 101.27 312.97 101.54 300.12 107.19 289.26 C 114.20 274.88 132.10 265.95 147.57 271.45 C 152.90 272.90 158.03 276.53 163.75 275.50 C 169.02 274.21 173.88 271.63 179.17 270.39 Z" />
<path fill="#000000" opacity="1.00" d=" M 367.71 291.66 C 375.58 283.06 387.63 279.54 399.01 279.45 C 409.64 279.39 420.96 281.66 429.15 288.86 C 435.22 294.07 438.52 302.07 438.39 310.02 C 438.41 331.32 438.39 352.63 438.40 373.93 C 432.05 373.93 425.69 373.93 419.34 373.93 C 419.35 368.67 419.32 363.41 419.32 358.16 C 408.99 376.26 382.23 380.05 365.99 367.98 C 354.49 359.57 352.38 340.70 362.51 330.44 C 369.49 323.59 379.49 321.16 388.93 320.17 C 398.79 319.34 408.69 319.03 418.56 318.34 C 418.54 312.45 419.37 305.66 415.13 300.88 C 409.95 295.15 401.37 294.52 394.17 295.48 C 387.25 296.39 380.93 301.24 379.26 308.18 C 373.09 308.22 366.93 308.20 360.76 308.19 C 361.27 302.12 363.49 296.14 367.71 291.66 M 394.89 333.26 C 389.69 333.67 384.16 334.62 380.02 338.03 C 375.09 342.01 374.83 350.26 379.32 354.67 C 383.63 358.96 390.13 359.88 395.95 359.59 C 403.93 359.22 412.25 355.46 416.23 348.25 C 419.16 343.27 418.57 337.32 418.57 331.79 C 410.68 332.29 402.78 332.72 394.89 333.26 Z" />
<path fill="#000000" opacity="1.00" d=" M 446.41 280.67 C 453.58 280.66 460.75 280.67 467.93 280.66 C 476.11 306.12 484.10 331.64 492.39 357.06 C 500.66 331.63 508.68 306.12 516.85 280.67 C 523.82 280.67 530.80 280.66 537.77 280.67 C 526.21 312.12 514.63 343.56 503.07 375.01 C 499.36 385.07 495.44 395.93 486.67 402.72 C 477.97 409.30 466.40 409.32 456.02 408.49 C 456.01 403.34 456.02 398.18 456.00 393.03 C 461.75 393.39 468.26 393.93 473.08 390.14 C 477.98 386.28 479.37 379.88 481.28 374.27 C 469.67 343.06 458.02 311.87 446.41 280.67 Z" />
</g>
</svg>
