<?xml version="1.0" encoding="utf-8"?>
<!-- Generator: Adobe Illustrator 25.0.0, SVG Export Plug-In . SVG Version: 6.00 Build 0)  -->
<svg version="1.2" baseProfile="tiny" id="Слой_1"
	 xmlns="http://www.w3.org/2000/svg" xmlns:xlink="http://www.w3.org/1999/xlink" x="0px" y="0px" viewBox="0 0 640 640"
	 overflow="visible" xml:space="preserve">
<g id="_x23_000000ff">
	<path fill="#FFFFFF" d="M170,244.1c5.3-4.9,12.2-7.9,19.4-8.7c1.4,16.3-12.3,33-29.2,32.5C159.6,258.9,163.6,250.2,170,244.1z"/>
	<path fill="#FFFFFF" d="M257.5,245.4c16.8,0,33.7,0,50.5,0c11.9,0,24.1,4.4,32.3,13.3c11.1,12,13.3,30.4,7.7,45.4
		c-4.2,11-13.7,19.7-24.8,23.3c-7.4,2.6-15.4,2.8-23.2,2.6c-7.3,0-14.6,0-21.8,0c0,14.6,0,29.3,0,44c-6.9,0-13.7,0-20.6,0
		C257.5,331.1,257.5,288.2,257.5,245.4 M278.1,262.2c0,17,0,34,0,51c9-0.1,18,0.2,26.9-0.1c8.8-0.4,18.3-4.4,22.2-12.8
		c3.8-8.3,3.7-18.6-0.8-26.7c-4.3-7.5-13.2-10.9-21.5-11.3C296,262,287,262.3,278.1,262.2z"/>
	<path fill="#FFFFFF" d="M179.2,270.4c13.2-3.5,28.4,1.4,36.4,12.6c-5.5,3.7-10.4,8.5-13.1,14.6c-4.5,10-2.9,22.4,4.1,30.9
		c3.3,4.2,7.9,7.2,12.6,9.6c-3.5,10.5-9.5,20.1-16.7,28.5c-3.7,4.2-8.7,7.9-14.5,8.2c-8.5,0.8-15.5-5.9-24-5.5
		c-7.9-0.7-14.6,4.5-22.2,5.5c-6.2,0.9-11.9-2.5-16-6.8c-11.3-12-19.2-27.1-22.3-43.3c-2.3-11.8-2.1-24.6,3.6-35.5
		c7-14.4,24.9-23.3,40.4-17.8c5.3,1.4,10.5,5.1,16.2,4C169,274.2,173.9,271.6,179.2,270.4z"/>
	<path fill="#FFFFFF" d="M367.7,291.7c7.9-8.6,19.9-12.1,31.3-12.2c10.6-0.1,21.9,2.2,30.1,9.4c6.1,5.2,9.4,13.2,9.2,21.2
		c0,21.3,0,42.6,0,63.9c-6.4,0-12.7,0-19.1,0c0-5.3,0-10.5,0-15.8C409,376.3,382.2,380,366,368c-11.5-8.4-13.6-27.3-3.5-37.5
		c7-6.9,17-9.3,26.4-10.3c9.9-0.8,19.8-1.1,29.6-1.8c0-5.9,0.8-12.7-3.4-17.5c-5.2-5.7-13.8-6.4-21-5.4c-6.9,0.9-13.2,5.8-14.9,12.7
		c-6.2,0-12.3,0-18.5,0C361.3,302.1,363.5,296.1,367.7,291.7 M394.9,333.3c-5.2,0.4-10.7,1.4-14.9,4.8c-4.9,4-5.2,12.2-0.7,16.6
		c4.3,4.3,10.8,5.2,16.6,4.9c8-0.4,16.3-4.1,20.3-11.3c2.9-5,2.3-10.9,2.3-16.5C410.7,332.3,402.8,332.7,394.9,333.3z"/>
	<path fill="#FFFFFF" d="M446.4,280.7c7.2,0,14.3,0,21.5,0c8.2,25.5,16.2,51,24.5,76.4c8.3-25.4,16.3-50.9,24.5-76.4
		c7,0,14,0,20.9,0c-11.6,31.4-23.1,62.9-34.7,94.3c-3.7,10.1-7.6,20.9-16.4,27.7c-8.7,6.6-20.3,6.6-30.7,5.8c0-5.1,0-10.3,0-15.5
		c5.8,0.4,12.3,0.9,17.1-2.9c4.9-3.9,6.3-10.3,8.2-15.9C469.7,343.1,458,311.9,446.4,280.7z"/>
</g>
</svg>
