<svg xmlns="http://www.w3.org/2000/svg" width="27.59" height="36" viewBox="0 0 27.59 36">
  <defs>
    <style>
      .cls-1 {
        fill: #fff;
        fill-rule: evenodd;
      }
    </style>
  </defs>
  <path id="cat-adv3" class="cls-1" d="M1023.39,3923.2v-1.8h11.41a0.6,0.6,0,0,0,.6-0.6v-4.2h-1.2v3.6h-10.81v-9h8.41V3910h-8.37a14.116,14.116,0,0,1,1.69-5.85,15.259,15.259,0,0,0,1.45-3.75h4.46c0.01,0.06.03,0.13,0.04,0.19a15.786,15.786,0,0,0,1.4,3.56l1.05-.58a14.056,14.056,0,0,1-1.28-3.28c-0.06-.22-0.11-0.42-0.15-0.61a14.654,14.654,0,0,1-.29-2.88v-6.6a1.2,1.2,0,0,0-1.2-1.2H1027a1.2,1.2,0,0,0-1.2,1.2v6.6a14.664,14.664,0,0,1-.3,2.88,14.214,14.214,0,0,1-1.43,3.89,15.266,15.266,0,0,0-1.87,7.02c0,0.11-.01.22-0.01,0.33v12.28a1.805,1.805,0,0,0,1.8,1.8h8.41v-1.2h-8.41A0.6,0.6,0,0,1,1023.39,3923.2Zm7.4-24h-3.98a16.067,16.067,0,0,0,.19-2.4v-3.6h3.6v3.6a14.843,14.843,0,0,0,.19,2.4h0Zm-3.79-9h3.6v1.8H1027v-1.8Zm1.69,11.57-1.16-.34c-0.11.39-.24,0.78-0.38,1.16l1.12,0.42c0.16-.41.29-0.82,0.42-1.24h0Zm-2.51,2.95a12.488,12.488,0,0,0-1.18,3,8.133,8.133,0,0,0-.21.98l1.18,0.2c0.05-.29.11-0.59,0.19-0.88a11.409,11.409,0,0,1,1.07-2.72c0.19-.35.36-0.7,0.52-1.05l-1.08-.5c-0.16.33-.32,0.65-0.49,0.97h0Zm3.57,10.43,0.66,0.22,0.38-1.14-0.67-.22a1.057,1.057,0,0,1-.72-1.01,0.6,0.6,0,0,0-.6-0.6,0.6,0.6,0,0,0-.6.6,1.066,1.066,0,0,1-.73,1.01l-0.66.22,0.38,1.14,0.66-.22a2.632,2.632,0,0,0,.35-0.15v0.4a1.066,1.066,0,0,1-.73,1.01l-0.66.22,0.38,1.14,0.66-.22a2.632,2.632,0,0,0,.35-0.15v1.6h1.2v-1.6a1.845,1.845,0,0,0,.35.15l0.66,0.22,0.38-1.14-0.67-.22a1.057,1.057,0,0,1-.72-1.01V3915A1.845,1.845,0,0,0,1029.75,3915.15Zm20.02-4.85-0.57-5.17a0.6,0.6,0,0,0-.6-0.53h-5.4v1.2h4.87l0.51,4.64c0.02,0.12.02,1.36,0.02,1.36h-4.8v1.2h4.6a3.64,3.64,0,0,1-3.4,2.4,3.57,3.57,0,0,1-2.06-.65l-0.68.99a4.715,4.715,0,0,0,2.14.82v4.84h-0.6a3,3,0,0,1-4.8,0h-0.6v-4.84a4.816,4.816,0,0,0,4.15-4.07,5.337,5.337,0,0,0,.05-0.69s-0.01-1.33-.03-1.5l-0.57-5.17a0.6,0.6,0,0,0-.6-0.53h-7.2a0.6,0.6,0,0,0-.6.53l-0.57,5.17c-0.02.17-.01,2.02,0.02,2.18a4.816,4.816,0,0,0,4.15,4.08v4.84h-0.6a3,3,0,0,0-3,3,0.6,0.6,0,0,0,.6.6h14.4a0.6,0.6,0,0,0,.6-0.6,3,3,0,0,0-3-3h-0.6v-4.84a4.816,4.816,0,0,0,4.15-4.07c0.04-.23.04-2.01,0.02-2.19h0Zm-15.55.13,0.52-4.63h6.12l0.52,4.64c0.01,0.12.02,1.36,0.02,1.36h-7.2s0.01-1.24.02-1.37h0Zm0.18,2.57h6.79a3.6,3.6,0,0,1-6.79,0h0Zm0.5,10.8a1.811,1.811,0,0,1,1.7-1.2h2.4a1.811,1.811,0,0,1,1.7,1.2h-5.8Zm13,0h-5.8a1.811,1.811,0,0,1,1.7-1.2h2.4A1.8,1.8,0,0,1,1047.9,3923.8Zm-4.47-13.22,0.37-3.39,1.19,0.13-0.36,3.39Zm-8.02,0,0.36-3.39,1.19,0.13-0.36,3.38Z" transform="translate(-1022.19 -3889)"/>
</svg>
