<svg xmlns="http://www.w3.org/2000/svg" width="36" height="36" viewBox="0 0 36 36">
  <defs>
    <style>
      .cls-1 {
        fill: #fff;
        fill-rule: evenodd;
      }
    </style>
  </defs>
  <path id="cat-adv4" class="cls-1" d="M1397.19,3896.79a0.53,0.53,0,1,0,0,1.06h5.62a0.53,0.53,0,1,0,0-1.06h-0.02a3.936,3.936,0,0,0,.52-3.54,2.529,2.529,0,0,0-1.75-1.29c-0.01,0-.01-0.01-0.02-0.01a4.9,4.9,0,0,0-.99-0.15v-0.84h0.23a0.53,0.53,0,0,0,.55-0.52,0.538,0.538,0,0,0-.55-0.53h-0.23v-0.38a0.55,0.55,0,0,0-1.1,0v0.38h-0.23a0.538,0.538,0,0,0-.55.53,0.53,0.53,0,0,0,.55.52h0.23v0.84a4.9,4.9,0,0,0-.99.15c-0.01,0-.01.01-0.02,0.01a2.529,2.529,0,0,0-1.75,1.29,3.936,3.936,0,0,0,.52,3.54h-0.02Zm2.81-3.96a5.975,5.975,0,0,1,.77.05l-0.22,1.2a0.1,0.1,0,0,1-.09.08h-0.92a0.1,0.1,0,0,1-.09-0.08l-0.22-1.2A5.975,5.975,0,0,1,1400,3892.83Zm-2.33.88a1.337,1.337,0,0,1,.51-0.52l0.2,1.08a1.163,1.163,0,0,0,1.16.94h0.92a1.163,1.163,0,0,0,1.16-.94l0.2-1.08a1.337,1.337,0,0,1,.51.52c0.41,0.84-.2,2.23-0.83,3.08h-3c-0.63-.85-1.24-2.24-0.83-3.08h0Zm7.55,7.87a0.536,0.536,0,0,0,.54-0.53v-0.37a0.546,0.546,0,0,0-1.09,0v0.37A0.538,0.538,0,0,0,1405.22,3901.58Zm-10.44-1.42a0.527,0.527,0,0,0-.54.52v0.37a0.536,0.536,0,0,0,.54.53,0.544,0.544,0,0,0,.55-0.53v-0.37A0.536,0.536,0,0,0,1394.78,3900.16Zm7.82,9.76a0.538,0.538,0,0,0-.55.53v0.41a0.544,0.544,0,0,0,.55.53,0.536,0.536,0,0,0,.54-0.53v-0.41A0.529,0.529,0,0,0,1402.6,3909.92Zm15.38-4.5c-0.13-.73-0.94-1.19-2.46-1.41a19.97,19.97,0,0,0-3.03-.12,2.5,2.5,0,0,0-1.6-.53,1.327,1.327,0,0,0-.95.34,1.2,1.2,0,0,0-.39.89,4.07,4.07,0,0,1-1.38,3.32,3.948,3.948,0,0,1-2.66.84v-1.89a1.3,1.3,0,0,0-1.18-1.27,14.458,14.458,0,0,1,.85-2.02,0.833,0.833,0,0,1,.73-0.43h2.39a1.435,1.435,0,0,1,.46.08l0.5,0.19a0.954,0.954,0,0,0,.92-0.16,0.86,0.86,0,0,0,.3-0.86l-0.14-.61a2.371,2.371,0,0,0-1.58-1.71l-0.65-.21a0.412,0.412,0,0,1-.21-0.16l-0.1-.14a1.54,1.54,0,0,0-1.25-.64h-2.13a5.555,5.555,0,0,1-2.43-.38,0.88,0.88,0,0,0-.79-0.05,0.818,0.818,0,0,0-.5.57,2.209,2.209,0,0,0,.69,2.46,18.013,18.013,0,0,0-1.39,3.13,18.013,18.013,0,0,0-1.39-3.13,2.209,2.209,0,0,0,.69-2.46,0.818,0.818,0,0,0-.5-0.57,0.88,0.88,0,0,0-.79.05,5.555,5.555,0,0,1-2.43.38h-2.13a1.54,1.54,0,0,0-1.25.64l-0.1.14a0.412,0.412,0,0,1-.21.16l-0.65.21a2.371,2.371,0,0,0-1.58,1.71l-0.14.61a0.86,0.86,0,0,0,.3.86,0.954,0.954,0,0,0,.92.16l0.5-.19a1.435,1.435,0,0,1,.46-0.08h2.39a0.833,0.833,0,0,1,.73.43,14.458,14.458,0,0,1,.85,2.02,1.3,1.3,0,0,0-1.18,1.27v1.89a3.948,3.948,0,0,1-2.66-.84,4.07,4.07,0,0,1-1.38-3.32,1.2,1.2,0,0,0-.39-0.89,1.327,1.327,0,0,0-.95-0.34,2.447,2.447,0,0,0-1.59.53c-0.41-.01-0.96-0.02-1.57,0a0.544,0.544,0,0,0-.53.55,0.552,0.552,0,0,0,.57.51c0.56-.02,1.17-0.02,1.73.01a0.568,0.568,0,0,0,.49-0.23,1.252,1.252,0,0,1,.95-0.32,0.264,0.264,0,0,1,.15.05,0.223,0.223,0,0,1,.05.13,5.065,5.065,0,0,0,1.77,4.13,5.161,5.161,0,0,0,3.15,1.1c0.07,0,.14-0.01.21-0.01v3.61a1.45,1.45,0,0,1-.8.61,4.477,4.477,0,0,1-.05-2.45,0.53,0.53,0,0,0-.29-0.56,0.563,0.563,0,0,0-.65.11,9.541,9.541,0,0,1-2.23,1.65,2.1,2.1,0,0,1-1.43.37,5,5,0,0,1,1.36-1.89,0.518,0.518,0,0,0,.05-0.67,0.561,0.561,0,0,0-.67-0.18,8.471,8.471,0,0,1-3.94.87c0.03-.27.55-0.83,1.74-1.42a0.523,0.523,0,0,0,.27-0.63,0.549,0.549,0,0,0-.6-0.36c-2.05.3-3.2-.31-3.33-0.57a2.828,2.828,0,0,1,1.55-.64,0.539,0.539,0,0,0,.41-0.57,0.522,0.522,0,0,0-.52-0.47,3,3,0,0,1-2.16-.63,0.46,0.46,0,0,1-.1-0.39,0.634,0.634,0,0,1,.42-0.28,0.532,0.532,0,0,0,.31-0.69,0.553,0.553,0,0,0-.71-0.29,1.4,1.4,0,0,0-.77,2.31,2.471,2.471,0,0,0,1.05.69,1.194,1.194,0,0,0-.58.97,1.251,1.251,0,0,0,.51.92,4.182,4.182,0,0,0,2.15.74,1.7,1.7,0,0,0-.7,1.62,0.958,0.958,0,0,0,.53.62,5.3,5.3,0,0,0,3.07-.19,2.307,2.307,0,0,0-.44,1.22,0.919,0.919,0,0,0,.31.66c1,0.86,2.84-.09,4.17-1.11a3.212,3.212,0,0,0,.42,1.9,1.008,1.008,0,0,0,.7.39h0.12a1.618,1.618,0,0,0,.83-0.24,2.582,2.582,0,0,0,.03.29,3.983,3.983,0,0,0-.81,2.39v0.89a1.975,1.975,0,0,0,1.49,1.89v0.07a0.412,0.412,0,0,1-.42.4h-1.86l-0.54-1.43a0.948,0.948,0,0,0-1.09-.57l-0.67-1.77a1.346,1.346,0,0,0,.75-1.27l-0.08-1.21a0.523,0.523,0,0,0-.57-0.49,0.551,0.551,0,0,0-.52.56l0.08,1.21a0.277,0.277,0,0,1-.05.16l-0.43-1.13a0.545,0.545,0,0,0-.7-0.32,0.519,0.519,0,0,0-.32.68l0.43,1.14a0.331,0.331,0,0,1-.15-0.1l-0.75-.98a0.562,0.562,0,0,0-.76-0.11,0.514,0.514,0,0,0-.12.74l0.75,0.97a1.407,1.407,0,0,0,1.11.54,1.526,1.526,0,0,0,.3-0.03l0.67,1.77a0.9,0.9,0,0,0-.46,1.12l1.57,4.15a0.94,0.94,0,0,0,.88.6,0.96,0.96,0,0,0,.33-0.06l0.8-.28h0a0.915,0.915,0,0,0,.57-1.17l-0.63-1.66h1.46a1.492,1.492,0,0,0,1.51-1.46v-0.07a1.975,1.975,0,0,0,1.49-1.89v-0.89a0.138,0.138,0,0,1,.06-0.11l0.88-.59a0.611,0.611,0,0,1,.14.07l0.43,0.38a0.938,0.938,0,0,0,.12.09,2.209,2.209,0,0,1-.78.95c-0.75.66-1.78,1.57-.74,3.45a0.55,0.55,0,0,0,.48.28,0.583,0.583,0,0,0,.26-0.06,0.531,0.531,0,0,0,.22-0.72c-0.64-1.15-.2-1.54.52-2.17a0.6,0.6,0,0,0,.08-0.08v2.72a0.551,0.551,0,0,0,1.1,0v-2.72l0.08,0.08c0.72,0.63,1.16,1.02.52,2.17a0.531,0.531,0,0,0,.22.72,0.583,0.583,0,0,0,.26.06,0.55,0.55,0,0,0,.48-0.28c1.04-1.88.01-2.79-.74-3.45a2.368,2.368,0,0,1-.78-0.95,0.938,0.938,0,0,0,.12-0.09l0.44-.38a0.4,0.4,0,0,1,.13-0.07l0.88,0.59a0.138,0.138,0,0,1,.06.11v0.89a1.975,1.975,0,0,0,1.49,1.89v0.07a1.492,1.492,0,0,0,1.51,1.46h1.17a2.769,2.769,0,0,0,2.65,1.88,2.917,2.917,0,0,0,1.27-.29,0.52,0.52,0,0,0,.23-0.71,0.549,0.549,0,0,0-.73-0.23,1.708,1.708,0,0,1-.77.18,1.636,1.636,0,1,1,1.68-1.75,0.554,0.554,0,0,0,.59.49,0.527,0.527,0,0,0,.5-0.56,2.728,2.728,0,0,0-2.22-2.45v-0.87h0.23a0.53,0.53,0,0,0,.55-0.52,0.538,0.538,0,0,0-.55-0.53h-0.23v-0.38a0.55,0.55,0,0,0-1.1,0v0.38h-0.23a0.538,0.538,0,0,0-.55.53,0.53,0.53,0,0,0,.55.52h0.23v0.87a2.736,2.736,0,0,0-2.22,2.38h-1.05a0.412,0.412,0,0,1-.42-0.4v-0.07a1.975,1.975,0,0,0,1.49-1.89v-0.89a3.983,3.983,0,0,0-.81-2.39,2.582,2.582,0,0,0,.03-0.29,1.618,1.618,0,0,0,.83.24h0.12a1.008,1.008,0,0,0,.7-0.39,3.212,3.212,0,0,0,.42-1.9,6.088,6.088,0,0,0,3.19,1.44,1.423,1.423,0,0,0,.98-0.33,0.919,0.919,0,0,0,.31-0.66,2.307,2.307,0,0,0-.44-1.22,5.3,5.3,0,0,0,3.07.19,0.958,0.958,0,0,0,.53-0.62,1.7,1.7,0,0,0-.7-1.62,4.182,4.182,0,0,0,2.15-.74,1.251,1.251,0,0,0,.51-0.92,1.2,1.2,0,0,0-.58-0.98,2.313,2.313,0,0,0,1.05-.68,1.527,1.527,0,0,0,.33-1.23h0Zm-25.64,18.48-1.46-3.87,0.53-.19,1.46,3.88Zm15.51-23.01,0.56,0.18a1.3,1.3,0,0,1,.87.93l0.07,0.31-0.2-.07a2.465,2.465,0,0,0-.85-0.16h-0.88a7.8,7.8,0,0,1,.43-1.19h0Zm-5.45,1.04a0.893,0.893,0,0,0-.28-1.19,1.112,1.112,0,0,1-.41-1.15,7.217,7.217,0,0,0,2.71.39h2.13a0.4,0.4,0,0,1,.34.17l0.07,0.1a7.319,7.319,0,0,0-.65,1.83h-0.4a1.951,1.951,0,0,0-1.7,1,15.585,15.585,0,0,0-1.02,2.51h-2.33a16.225,16.225,0,0,1,1.54-3.66h0Zm-10.7.15a2.465,2.465,0,0,0-.85.16l-0.2.07,0.07-.31a1.3,1.3,0,0,1,.87-0.93l0.56-.18a7.8,7.8,0,0,1,.43,1.19h-0.88Zm2.38,0h-0.39a7.739,7.739,0,0,0-.65-1.83l0.06-.1a0.427,0.427,0,0,1,.35-0.17h2.13a7.217,7.217,0,0,0,2.71-.39,1.112,1.112,0,0,1-.41,1.15,0.883,0.883,0,0,0-.28,1.19,16.225,16.225,0,0,1,1.54,3.66h-2.33a15.585,15.585,0,0,0-1.02-2.51,1.955,1.955,0,0,0-1.71-1h0Zm2.61,15.44v0.89a0.946,0.946,0,0,1-1.89,0v-0.89a2.879,2.879,0,0,1,.32-1.31,2.193,2.193,0,0,0,1.51.61h0.3a1.121,1.121,0,0,0-.24.7h0Zm4.75-1.76h-0.1a1.4,1.4,0,0,0-.93.35l-0.41.36-0.41-.36a1.4,1.4,0,0,0-.93-0.35h-2.03a1.037,1.037,0,0,1-1.05-1.02v-7.88a0.222,0.222,0,0,1,.22-0.22h8.4a0.222,0.222,0,0,1,.22.22v7.88a1.037,1.037,0,0,1-1.05,1.02h-1.93Zm3.75,2.65a0.94,0.94,0,0,1-1.88,0v-0.89a1.184,1.184,0,0,0-.24-0.7h0.3a2.193,2.193,0,0,0,1.51-.61,2.868,2.868,0,0,1,.31,1.31v0.89Zm11.61-12.42a3,3,0,0,1-2.16.63,0.521,0.521,0,0,0-.11,1.03,2.872,2.872,0,0,1,1.55.65c-0.13.26-1.28,0.87-3.33,0.57a0.549,0.549,0,0,0-.6.36,0.523,0.523,0,0,0,.27.63c1.19,0.59,1.71,1.15,1.74,1.42a8.471,8.471,0,0,1-3.94-.87,0.561,0.561,0,0,0-.67.18,0.518,0.518,0,0,0,.05.67,5,5,0,0,1,1.36,1.89,2.1,2.1,0,0,1-1.43-.37,9.541,9.541,0,0,1-2.23-1.65,0.563,0.563,0,0,0-.65-0.11,0.53,0.53,0,0,0-.29.56,4.477,4.477,0,0,1-.05,2.45,1.45,1.45,0,0,1-.8-0.61v-3.61a5.122,5.122,0,0,0,3.36-1.09,5.065,5.065,0,0,0,1.77-4.13,0.223,0.223,0,0,1,.05-0.13,0.264,0.264,0,0,1,.15-0.05,1.252,1.252,0,0,1,.95.32,0.568,0.568,0,0,0,.49.23,16.778,16.778,0,0,1,3.08.1c1.21,0.17,1.52.45,1.54,0.54a0.46,0.46,0,0,1-.1.39h0Zm-19.4,3.93a0.529,0.529,0,0,0-.54.53v0.41a0.536,0.536,0,0,0,.54.53,0.544,0.544,0,0,0,.55-0.53v-0.41A0.538,0.538,0,0,0,1397.4,3909.92Zm3.64,0.56a0.56,0.56,0,0,0-.77.05,0.345,0.345,0,0,1-.54,0,0.56,0.56,0,0,0-.77-0.05,0.527,0.527,0,0,0-.06.75,1.5,1.5,0,0,0,2.2,0A0.527,0.527,0,0,0,1401.04,3910.48Z" transform="translate(-1382 -3889)"/>
</svg>
