<svg xmlns="http://www.w3.org/2000/svg" width="36" height="36" viewBox="0 0 36 36">
  <defs>
    <style>
      .cls-1 {
        fill: #fff;
        fill-rule: evenodd;
      }
    </style>
  </defs>
  <path id="cat-adv1" class="cls-1" d="M308,3889a9,9,0,0,0-9,9v6.6a4.2,4.2,0,0,0,4.2,4.2h0.6v-1.2h-0.6a3,3,0,0,1-3-3V3898a7.8,7.8,0,1,1,15.6,0v6.6a3,3,0,0,1-3,3h-0.6v1.2h0.6a4.2,4.2,0,0,0,4.2-4.2V3898A9,9,0,0,0,308,3889Zm-7.055,28.28,0.438-.69-1.013-.65-0.439.69a5.981,5.981,0,0,0,.248,6.77v1.6h1.2v-1.8a0.567,0.567,0,0,0-.131-0.37A4.783,4.783,0,0,1,300.945,3917.28ZM329,3889h-7.8a3,3,0,0,0-3,3v6a3,3,0,0,0,3,3h1.2v2.4a0.594,0.594,0,0,0,.37.55,0.609,0.609,0,0,0,.23.05,0.573,0.573,0,0,0,.424-0.18l2.824-2.82H329a3,3,0,0,0,3-3v-6A3,3,0,0,0,329,3889Zm1.8,9a1.8,1.8,0,0,1-1.8,1.8h-3a0.573,0.573,0,0,0-.424.18l-1.976,1.97v-1.55a0.6,0.6,0,0,0-.6-0.6h-1.8a1.8,1.8,0,0,1-1.8-1.8v-6a1.8,1.8,0,0,1,1.8-1.8H329a1.8,1.8,0,0,1,1.8,1.8v6Zm-9.6-6h4.2v1.2h-4.2V3892Zm5.4,0H329v1.2h-2.4V3892Zm-5.4,2.4H329v1.2h-7.8v-1.2Zm0,2.4h4.2v1.2h-4.2v-1.2Zm-5.131,19.83-0.439-.69-1.013.65,0.438,0.69a4.783,4.783,0,0,1-.3,5.55,0.567,0.567,0,0,0-.131.37v1.8h1.2v-1.6A5.981,5.981,0,0,0,316.069,3916.63Zm15.331-7.23H326a4.2,4.2,0,0,0-4.192,4.03L320,3916.68v-2.48a4.2,4.2,0,0,0-4.2-4.2h-2.193l-0.016-.01-0.011.01H312.2a1.2,1.2,0,0,1-1.2-1.2v-1.41a6,6,0,0,0,3-5.19v-4.8a6.047,6.047,0,0,0-.72-2.85,0.6,0.6,0,0,0-.78-0.26l-10.156,4.78a0.6,0.6,0,0,0-.344.55v2.58a6,6,0,0,0,3,5.19v1.41a1.2,1.2,0,0,1-1.2,1.2h-3.6a4.2,4.2,0,0,0-4.2,4.2V3925h1.2v-10.8a3,3,0,0,1,3-3h1.909l5.4,7.55a0.606,0.606,0,0,0,.48.25H308a0.6,0.6,0,0,0,.48-0.24l5.7-7.56h1.62a3,3,0,0,1,3,3v4.8a0.6,0.6,0,0,0,1.124.29l2.829-5.09h3.44l-5.85,10.8h1.365l5.852-10.8h0.24a4.2,4.2,0,0,0,4.2-4.2A0.6,0.6,0,0,0,331.4,3909.4Zm-28.2-7.2V3900l9.265-4.36a4.806,4.806,0,0,1,.335,1.76v4.8A4.8,4.8,0,0,1,303.2,3902.2Zm4.813,15.19-1.852-2.59h3.8Zm2.857-3.79H305.3l-1.718-2.4H303.8a2.4,2.4,0,0,0,2.4-2.4v-0.88a5.977,5.977,0,0,0,3.6,0v0.88a2.4,2.4,0,0,0,2.4,2.4h0.48Zm16.93-.6h-4.74a3,3,0,0,1,2.94-2.4h4.74A3,3,0,0,1,327.8,3913Z" transform="translate(-296 -3889)"/>
</svg>
