<svg xmlns="http://www.w3.org/2000/svg" width="36" height="27.6" viewBox="0 0 36 27.6">
  <defs>
    <style>
      .cls-1 {
        fill: #fff;
        fill-rule: evenodd;
      }
    </style>
  </defs>
  <path id="cat-adv2" class="cls-1" d="M714.4,3893.27H679.6a0.6,0.6,0,0,0-.6.6v24.6a0.6,0.6,0,0,0,.6.6h15.6v-1.2h-15v-23.4h33.6v23.4h-15v1.2h15.6a0.6,0.6,0,0,0,.6-0.6v-24.6A0.6,0.6,0,0,0,714.4,3893.27Zm-2.4,4.8a1.8,1.8,0,0,1-1.8-1.8,0.6,0.6,0,0,0-.6-0.6H684.4a0.6,0.6,0,0,0-.6.6,1.8,1.8,0,0,1-1.8,1.8,0.6,0.6,0,0,0-.6.6v15a0.6,0.6,0,0,0,.6.6,1.8,1.8,0,0,1,1.8,1.8,0.6,0.6,0,0,0,.6.6h10.8v-1.2H684.939a3,3,0,0,0-2.339-2.34v-13.92a3.013,3.013,0,0,0,2.339-2.34h24.122a3.013,3.013,0,0,0,2.339,2.34v13.92a3,3,0,0,0-2.339,2.34H698.8v1.2h10.8a0.6,0.6,0,0,0,.6-0.6,1.8,1.8,0,0,1,1.8-1.8,0.6,0.6,0,0,0,.6-0.6v-15A0.6,0.6,0,0,0,712,3898.07Zm-15,12a3.6,3.6,0,1,0,3.6,3.6A3.6,3.6,0,0,0,697,3910.07Zm0,6a2.4,2.4,0,1,1,2.4-2.4A2.4,2.4,0,0,1,697,3916.07Zm1.2,0v3.08l-0.868-.58a0.579,0.579,0,0,0-.665,0l-0.867.58v-3.08h-1.2v4.2a0.61,0.61,0,0,0,.317.53,0.617,0.617,0,0,0,.616-0.03l1.467-.98,1.467,0.98a0.661,0.661,0,0,0,.333.1,0.7,0.7,0,0,0,.283-0.07,0.61,0.61,0,0,0,.317-0.53v-4.2h-1.2Zm-5.4-17.4h8.4v1.2h-8.4v-1.2Zm-7.2,3H709v1.2H685.6v-1.2Zm4.8,3h13.2v1.2H690.4v-1.2Zm-2.4,3h17.4v1.2H688v-1.2Zm-1.8,4.2h5.4v1.2h-5.4v-1.2Zm16.2,0h5.4v1.2h-5.4v-1.2Z" transform="translate(-679 -3893.28)"/>
</svg>
