<svg xmlns="http://www.w3.org/2000/svg" width="24" height="24" viewBox="0 0 24 24">
  <defs>
    <style>
      .cls-1 {
        fill: #ec5f2e;
        fill-rule: evenodd;
      }
    </style>
  </defs>
  <path id="facebook" class="cls-1" d="M1185.07,4230.5a0.937,0.937,0,0,0,.94-0.93v-11.83a3.751,3.751,0,0,0-3.75-3.75h-16.52a3.751,3.751,0,0,0-3.75,3.75v16.52a3.751,3.751,0,0,0,3.75,3.75h16.52a3.751,3.751,0,0,0,3.75-3.75,0.935,0.935,0,1,0-1.87,0,1.891,1.891,0,0,1-1.88,1.88h-4.6v-6.86h2.17a0.924,0.924,0,0,0,.93-0.82l0.13-1.03a0.944,0.944,0,0,0-.93-1.06h-2.3v-3.14a1.408,1.408,0,0,1,1.41-1.41h1.17a0.937,0.937,0,0,0,.94-0.93v-0.95a0.943,0.943,0,0,0-.84-0.94c-0.48-.05-0.98-0.09-1.27-0.09a4.364,4.364,0,0,0-3.01,1.27,4.3,4.3,0,0,0-1.31,3.06v3.13h-2.11a0.945,0.945,0,0,0-.94.94v1.04a0.937,0.937,0,0,0,.94.93h2.11v6.86h-9.01a1.891,1.891,0,0,1-1.88-1.88v-16.52a1.891,1.891,0,0,1,1.88-1.88h16.52a1.891,1.891,0,0,1,1.88,1.88v11.83A0.935,0.935,0,0,0,1185.07,4230.5Z" transform="translate(-1162 -4214)"/>
</svg>
