<?xml version="1.0" encoding="UTF-8" ?>
<!DOCTYPE svg PUBLIC "-//W3C//DTD SVG 1.1//EN" "http://www.w3.org/Graphics/SVG/1.1/DTD/svg11.dtd">
<svg width="640pt" height="640pt" viewBox="0 0 640 640" version="1.1" xmlns="http://www.w3.org/2000/svg">
<g id="#e94335ff">
<path fill="#e94335" opacity="1.00" d=" M 135.60 243.52 C 151.50 235.88 170.27 234.45 187.14 239.56 C 197.30 242.64 206.67 248.15 214.43 255.39 C 207.59 262.32 200.73 269.21 193.87 276.12 C 184.54 267.00 170.61 263.35 157.93 266.15 C 142.97 269.15 130.63 280.97 125.86 295.31 C 117.99 288.97 109.92 282.86 102.05 276.51 C 109.16 262.20 121.15 250.36 135.60 243.52 Z" />
</g>
<g id="#3c4043ff">
<path fill="#3c4043" opacity="1.00" d=" M 289.00 249.87 C 304.33 249.89 319.66 249.81 334.98 249.91 C 347.10 250.13 358.82 256.26 366.09 265.91 C 374.21 276.40 375.51 291.57 369.26 303.28 C 362.89 315.45 349.68 323.46 336.01 324.01 C 325.87 324.29 315.71 324.06 305.57 324.13 C 305.55 340.98 305.57 357.82 305.56 374.66 C 300.04 374.67 294.52 374.66 289.00 374.66 C 288.98 333.07 288.97 291.47 289.00 249.87 M 305.57 265.20 C 305.56 279.73 305.56 294.26 305.57 308.80 C 315.38 308.77 325.18 308.87 334.98 308.75 C 342.81 308.55 350.27 303.75 353.75 296.74 C 357.19 290.10 356.74 281.66 352.59 275.43 C 348.61 269.24 341.43 265.37 334.09 265.24 C 324.58 265.14 315.08 265.23 305.57 265.20 Z" />
<path fill="#3c4043" opacity="1.00" d=" M 399.75 287.69 C 408.55 285.92 417.80 286.06 426.47 288.44 C 434.23 290.62 441.46 295.33 445.86 302.18 C 449.65 308.03 451.10 315.11 451.09 322.01 C 451.10 339.56 451.10 357.11 451.09 374.66 C 445.81 374.67 440.53 374.66 435.26 374.66 C 435.20 370.57 435.36 366.48 435.12 362.40 C 430.55 368.14 425.08 373.61 417.86 375.80 C 405.65 379.52 391.28 376.99 381.77 368.24 C 371.54 359.55 369.97 342.75 378.17 332.21 C 384.12 324.60 393.67 320.76 403.05 319.72 C 413.95 318.55 425.43 319.40 435.37 324.36 C 436.08 317.27 433.45 309.76 427.44 305.62 C 416.23 296.87 398.34 300.06 390.63 311.95 C 385.78 308.98 380.90 306.07 376.05 303.10 C 381.60 295.16 390.27 289.60 399.75 287.69 M 392.68 340.70 C 389.04 345.32 389.25 352.44 393.18 356.82 C 397.64 361.65 404.56 363.80 411.02 362.98 C 423.56 361.87 435.21 350.98 435.31 338.04 C 428.10 332.72 418.73 331.73 410.04 332.35 C 403.55 332.95 396.81 335.44 392.68 340.70 Z" />
<path fill="#3c4043" opacity="1.00" d=" M 453.91 289.31 C 459.90 289.29 465.89 289.31 471.88 289.29 C 480.73 309.80 489.42 330.37 498.31 350.86 C 506.97 330.37 515.46 309.80 524.10 289.29 C 530.09 289.30 536.09 289.29 542.08 289.30 C 523.64 330.27 505.17 371.23 486.71 412.19 C 481.02 412.20 475.33 412.20 469.65 412.19 C 476.47 397.84 483.38 383.54 490.21 369.19 C 478.13 342.55 465.98 315.95 453.91 289.31 Z" />
</g>
<g id="#fcbc05ff">
<path fill="#fcbc05" opacity="1.00" d=" M 102.05 276.51 C 109.92 282.86 117.99 288.97 125.86 295.31 C 122.91 304.29 122.99 314.13 125.89 323.10 C 117.85 329.20 109.94 335.45 102.03 341.71 C 91.82 321.54 91.76 296.65 102.05 276.51 Z" />
</g>
<g id="#4385f5ff">
<path fill="#4385f5" opacity="1.00" d=" M 166.27 296.03 C 188.89 296.02 211.51 296.02 234.12 296.03 C 238.12 320.08 232.36 347.05 213.99 364.08 C 206.19 358.14 198.57 351.98 190.79 346.02 C 198.27 340.92 203.55 332.82 205.17 323.91 C 192.21 323.85 179.24 323.90 166.28 323.88 C 166.28 314.59 166.28 305.31 166.27 296.03 Z" />
</g>
<g id="#34a853ff">
<path fill="#34a853" opacity="1.00" d=" M 102.03 341.71 C 109.94 335.45 117.85 329.20 125.89 323.10 C 129.71 334.10 137.76 343.66 148.29 348.74 C 161.63 355.27 178.34 354.03 190.79 346.02 C 198.57 351.98 206.19 358.14 213.99 364.08 C 190.83 385.48 152.96 387.24 127.00 369.88 C 116.38 362.92 107.65 353.09 102.03 341.71 Z" />
</g>
</svg>
