<?xml version="1.0" encoding="utf-8"?>
<!-- Generator: Adobe Illustrator 25.0.0, SVG Export Plug-In . SVG Version: 6.00 Build 0)  -->
<svg version="1.2" baseProfile="tiny" id="Слой_1"
	 xmlns="http://www.w3.org/2000/svg" xmlns:xlink="http://www.w3.org/1999/xlink" x="0px" y="0px" viewBox="0 0 640 640"
	 overflow="visible" xml:space="preserve">
<g id="_x23_e94335ff">
	<path fill="#E94335" d="M135.6,243.5c15.9-7.6,34.7-9.1,51.5-4c10.2,3.1,19.5,8.6,27.3,15.8c-6.8,6.9-13.7,13.8-20.6,20.7
		c-9.3-9.1-23.3-12.8-35.9-10c-15,3-27.3,14.8-32.1,29.2c-7.9-6.3-15.9-12.5-23.8-18.8C109.2,262.2,121.2,250.4,135.6,243.5z"/>
</g>
<g id="_x23_3c4043ff">
	<path fill="#FFFFFF" d="M289,249.9c15.3,0,30.7-0.1,46,0c12.1,0.2,23.8,6.4,31.1,16c8.1,10.5,9.4,25.7,3.2,37.4
		c-6.4,12.2-19.6,20.2-33.2,20.7c-10.1,0.3-20.3,0-30.4,0.1c0,16.9,0,33.7,0,50.5c-5.5,0-11,0-16.6,0C289,333.1,289,291.5,289,249.9
		 M305.6,265.2c0,14.5,0,29.1,0,43.6c9.8,0,19.6,0.1,29.4,0c7.8-0.2,15.3-5,18.8-12c3.4-6.6,3-15.1-1.2-21.3
		c-4-6.2-11.2-10.1-18.5-10.2C324.6,265.1,315.1,265.2,305.6,265.2z"/>
	<path fill="#FFFFFF" d="M399.8,287.7c8.8-1.8,18-1.6,26.7,0.8c7.8,2.2,15,6.9,19.4,13.7c3.8,5.9,5.2,12.9,5.2,19.8
		c0,17.5,0,35.1,0,52.6c-5.3,0-10.6,0-15.8,0c-0.1-4.1,0.1-8.2-0.1-12.3c-4.6,5.7-10,11.2-17.3,13.4c-12.2,3.7-26.6,1.2-36.1-7.6
		c-10.2-8.7-11.8-25.5-3.6-36c5.9-7.6,15.5-11.4,24.9-12.5c10.9-1.2,22.4-0.3,32.3,4.6c0.7-7.1-1.9-14.6-7.9-18.7
		c-11.2-8.8-29.1-5.6-36.8,6.3c-4.9-3-9.7-5.9-14.6-8.9C381.6,295.2,390.3,289.6,399.8,287.7 M392.7,340.7
		c-3.6,4.6-3.4,11.7,0.5,16.1c4.5,4.8,11.4,7,17.8,6.2c12.5-1.1,24.2-12,24.3-24.9c-7.2-5.3-16.6-6.3-25.3-5.7
		C403.5,333,396.8,335.4,392.7,340.7z"/>
	<path fill="#FFFFFF" d="M453.9,289.3c6,0,12,0,18,0c8.9,20.5,17.5,41.1,26.4,61.6c8.7-20.5,17.2-41.1,25.8-61.6c6,0,12,0,18,0
		c-18.4,41-36.9,81.9-55.4,122.9c-5.7,0-11.4,0-17.1,0c6.8-14.4,13.7-28.6,20.6-43C478.1,342.5,466,316,453.9,289.3z"/>
</g>
<g id="_x23_fcbc05ff">
	<path fill="#FCBC05" d="M102.1,276.5c7.9,6.3,15.9,12.5,23.8,18.8c-2.9,9-2.9,18.8,0,27.8c-8,6.1-15.9,12.4-23.9,18.6
		C91.8,321.5,91.8,296.6,102.1,276.5z"/>
</g>
<g id="_x23_4385f5ff">
	<path fill="#4385F5" d="M166.3,296c22.6,0,45.2,0,67.8,0c4,24-1.8,51-20.1,68c-7.8-5.9-15.4-12.1-23.2-18.1
		c7.5-5.1,12.8-13.2,14.4-22.1c-13-0.1-25.9,0-38.9,0C166.3,314.6,166.3,305.3,166.3,296z"/>
</g>
<g id="_x23_34a853ff">
	<path fill="#34A853" d="M102,341.7c7.9-6.3,15.8-12.5,23.9-18.6c3.8,11,11.9,20.6,22.4,25.6c13.3,6.5,30.1,5.3,42.5-2.7
		c7.8,6,15.4,12.1,23.2,18.1c-23.2,21.4-61,23.2-87,5.8C116.4,362.9,107.7,353.1,102,341.7z"/>
</g>
</svg>
