<svg xmlns="http://www.w3.org/2000/svg" width="24" height="24" viewBox="0 0 24 24">
    <defs>
        <style>
            .cls-1 {
            fill: #ec5f2e;
            fill-rule: evenodd;
            }
        </style>
    </defs>
    <path id="instagram" class="cls-1"
          d="M1021.24,4238.01H1021c-1.89.01-3.63-.04-5.32-0.14a7.165,7.165,0,0,1-4.1-1.55,6.581,6.581,0,0,1-2.2-3.57,15.906,15.906,0,0,1-.37-3.77c-0.01-.88-0.02-1.92-0.02-2.98s0.01-2.1.02-2.98a15.906,15.906,0,0,1,.37-3.77,6.581,6.581,0,0,1,2.2-3.57,7.165,7.165,0,0,1,4.1-1.55c1.69-.1,3.43-0.15,5.32-0.14,1.89-.01,3.63.04,5.32,0.14a7.165,7.165,0,0,1,4.1,1.55,6.581,6.581,0,0,1,2.2,3.57,15.906,15.906,0,0,1,.37,3.77c0.01,0.88.02,1.92,0.02,2.98s-0.01,2.1-.02,2.98a0.94,0.94,0,0,1-1.88-.03c0.01-.87.02-1.9,0.03-2.95-0.01-1.05-.02-2.08-0.03-2.95a14.376,14.376,0,0,0-.3-3.34,4.763,4.763,0,0,0-1.58-2.57,5.151,5.151,0,0,0-3.03-1.13c-1.65-.11-3.35-0.15-5.2-0.15s-3.55.04-5.2,0.15a5.151,5.151,0,0,0-3.03,1.13,4.763,4.763,0,0,0-1.58,2.57,14.376,14.376,0,0,0-.3,3.34c-0.01.87-.02,1.9-0.03,2.95,0.01,1.05.02,2.08,0.03,2.95a14.376,14.376,0,0,0,.3,3.34,4.763,4.763,0,0,0,1.58,2.57,5.151,5.151,0,0,0,3.03,1.13c1.65,0.1,3.35.15,5.2,0.15s3.55-.05,5.2-0.15a5.151,5.151,0,0,0,3.03-1.13,4.543,4.543,0,0,0,1.29-1.72,0.936,0.936,0,0,1,1.72.74,6.421,6.421,0,0,1-1.82,2.44,7.165,7.165,0,0,1-4.1,1.55C1024.7,4237.97,1023.03,4238.01,1021.24,4238.01Zm5.58-12.01a5.865,5.865,0,1,0-5.87,5.87A5.872,5.872,0,0,0,1026.82,4226Zm-1.88,0a3.99,3.99,0,1,1-3.99-3.99A3.995,3.995,0,0,1,1024.94,4226Zm2.54-7.74a1.405,1.405,0,1,0,1.4,1.4A1.406,1.406,0,0,0,1027.48,4218.26Z"
          transform="translate(-1009 -4214)"/>
</svg>
