<?xml version="1.0" encoding="UTF-8" ?>
<!DOCTYPE svg PUBLIC "-//W3C//DTD SVG 1.1//EN" "http://www.w3.org/Graphics/SVG/1.1/DTD/svg11.dtd">
<svg width="640pt" height="640pt" viewBox="0 0 640 640" version="1.1" xmlns="http://www.w3.org/2000/svg">
<g id="#eb001bff">
<path fill="#eb001b" opacity="1.00" d=" M 219.91 163.97 C 254.80 155.22 293.50 163.33 321.70 185.72 C 308.11 196.98 296.38 210.67 288.67 226.63 C 275.86 252.23 273.00 282.64 280.72 310.20 C 287.22 334.59 302.19 356.25 321.77 372.03 C 303.25 386.45 280.44 395.30 257.00 396.88 C 227.14 399.15 196.57 389.62 173.35 370.69 C 151.78 353.31 136.58 328.18 131.51 300.92 C 126.06 272.78 131.39 242.71 146.24 218.18 C 162.31 191.27 189.43 171.27 219.91 163.97 Z" />
</g>
<g id="#f79f1bff">
<path fill="#f79f1b" opacity="1.00" d=" M 322.09 185.72 C 345.55 167.20 376.23 158.25 405.97 160.97 C 429.55 163.01 452.44 172.28 470.77 187.26 C 490.37 203.15 504.65 225.47 510.79 249.95 C 519.48 283.52 512.21 320.72 491.57 348.57 C 471.55 376.19 439.10 394.27 405.09 396.83 C 375.57 399.30 345.18 390.32 321.96 371.88 C 341.00 357.07 355.19 336.21 362.24 313.16 C 368.31 293.63 368.90 272.51 364.37 252.59 C 359.37 230.58 347.88 210.09 331.67 194.38 C 328.56 191.40 325.28 188.61 322.09 185.72 Z" />
</g>
<g id="#fe5f00ff">
<path fill="#fe5f00" opacity="1.00" d=" M 321.70 185.72 L 321.89 185.55 L 322.09 185.72 C 325.28 188.61 328.56 191.40 331.67 194.38 C 347.88 210.09 359.37 230.58 364.37 252.59 C 368.90 272.51 368.31 293.63 362.24 313.16 C 355.19 336.21 341.00 357.07 321.96 371.88 L 321.77 372.03 C 302.19 356.25 287.22 334.59 280.72 310.20 C 273.00 282.64 275.86 252.23 288.67 226.63 C 296.38 210.67 308.11 196.98 321.70 185.72 Z" />
</g>
<g id="#241f21ff">
<path fill="#241f21" opacity="1.00" d=" M 489.61 417.77 C 491.82 417.76 494.04 417.76 496.27 417.77 C 496.28 432.01 496.27 446.26 496.27 460.50 C 494.03 460.50 491.80 460.49 489.57 460.50 C 489.60 459.62 489.66 457.87 489.68 456.99 C 482.59 464.62 468.98 461.31 464.65 452.35 C 460.89 445.49 463.52 436.24 470.11 432.13 C 475.97 428.14 484.68 428.12 489.67 433.58 C 489.53 428.31 489.61 423.04 489.61 417.77 M 476.31 437.44 C 470.33 439.64 468.60 448.35 473.50 452.52 C 478.68 457.78 489.05 454.55 489.81 447.05 C 490.99 439.96 482.58 434.35 476.31 437.44 Z" />
<path fill="#241f21" opacity="1.00" d=" M 282.47 420.77 C 284.80 420.76 287.13 420.76 289.46 420.77 C 289.47 423.86 289.47 426.96 289.47 430.06 C 293.27 430.07 297.08 430.07 300.88 430.07 C 300.90 432.08 300.92 434.10 300.94 436.13 C 297.16 436.13 293.38 436.13 289.60 436.14 C 289.68 441.03 289.46 445.93 289.68 450.83 C 289.72 452.46 290.48 454.26 292.15 454.84 C 294.93 455.78 297.79 454.48 300.41 453.64 C 301.07 455.52 301.72 457.39 302.39 459.27 C 297.84 461.53 292.33 462.45 287.55 460.36 C 284.28 458.91 282.79 455.23 282.68 451.85 C 282.46 446.62 282.67 441.38 282.60 436.15 C 280.44 436.13 278.28 436.12 276.13 436.13 C 276.12 434.10 276.13 432.09 276.13 430.07 C 278.24 430.07 280.35 430.06 282.46 430.06 C 282.46 426.96 282.47 423.86 282.47 420.77 Z" />
<path fill="#241f21" opacity="1.00" d=" M 153.50 433.60 C 158.53 427.38 168.96 428.02 173.49 434.48 C 177.80 428.77 186.63 427.52 192.47 431.52 C 195.52 433.63 197.36 437.29 197.24 441.01 C 197.28 447.54 197.21 454.07 197.24 460.61 C 194.91 460.66 192.57 460.70 190.24 460.75 C 190.19 455.16 190.29 449.56 190.22 443.97 C 190.19 441.32 189.71 438.21 187.27 436.69 C 183.88 434.81 179.01 435.48 176.70 438.75 C 175.28 440.51 175.38 442.88 175.38 445.02 C 175.44 450.26 175.41 455.51 175.43 460.75 C 173.09 460.76 170.75 460.76 168.42 460.77 C 168.38 455.16 168.48 449.55 168.40 443.94 C 168.34 441.50 167.99 438.72 165.97 437.08 C 161.74 433.80 154.12 436.32 153.73 441.98 C 153.54 448.19 153.75 454.42 153.67 460.64 C 151.33 460.63 149.00 460.62 146.66 460.62 C 146.67 450.43 146.66 440.25 146.67 430.06 C 148.99 430.06 151.32 430.07 153.65 430.09 C 153.61 430.96 153.54 432.72 153.50 433.60 Z" />
<path fill="#241f21" opacity="1.00" d=" M 208.39 433.29 C 214.23 428.21 224.02 427.63 229.52 433.56 C 229.49 432.69 229.42 430.95 229.39 430.08 C 231.71 430.07 234.03 430.06 236.36 430.07 C 236.36 440.21 236.36 450.35 236.36 460.49 C 234.04 460.50 231.72 460.50 229.40 460.50 C 229.43 459.64 229.48 457.91 229.51 457.05 C 222.58 464.33 209.57 461.53 204.88 453.11 C 200.99 446.79 202.63 437.91 208.39 433.29 M 216.30 437.41 C 210.28 439.58 208.37 448.43 213.43 452.60 C 218.66 457.75 228.95 454.54 229.72 447.06 C 230.91 440.01 222.57 434.39 216.30 437.41 Z" />
<path fill="#241f21" opacity="1.00" d=" M 249.03 431.18 C 255.82 427.90 264.05 429.06 270.62 432.40 C 269.61 434.17 268.61 435.95 267.61 437.73 C 263.17 435.89 257.88 434.05 253.22 436.16 C 251.20 436.91 250.65 440.24 253.02 440.92 C 258.14 442.67 264.21 441.77 268.69 445.29 C 272.99 448.85 271.75 456.36 266.97 458.93 C 259.55 463.02 250.04 461.82 242.94 457.55 C 244.02 455.81 245.11 454.07 246.21 452.34 C 249.75 454.42 253.79 455.81 257.95 455.42 C 260.30 455.26 263.68 454.85 264.21 452.01 C 264.38 450.14 262.40 449.32 260.92 449.01 C 256.03 447.84 250.32 448.22 246.44 444.52 C 242.46 440.70 244.17 433.43 249.03 431.18 Z" />
<path fill="#241f21" opacity="1.00" d=" M 351.54 433.51 C 354.68 429.43 360.11 428.41 364.89 429.83 C 364.19 431.95 363.49 434.08 362.79 436.20 C 358.95 435.11 353.24 435.25 352.17 440.06 C 351.16 446.85 351.97 453.78 351.71 460.64 C 349.39 460.63 347.08 460.63 344.77 460.62 C 344.77 450.44 344.76 440.25 344.77 430.07 C 347.07 430.07 349.37 430.06 351.67 430.07 C 351.64 430.93 351.58 432.65 351.54 433.51 Z" />
<path fill="#241f21" opacity="1.00" d=" M 371.73 433.67 C 378.06 427.63 388.62 427.77 395.57 432.69 C 394.47 434.47 393.36 436.25 392.25 438.02 C 388.12 435.56 382.52 434.11 378.41 437.42 C 373.25 440.88 373.13 449.24 378.21 452.83 C 382.30 456.30 388.10 454.93 392.28 452.39 C 393.38 454.18 394.48 455.98 395.57 457.79 C 388.66 462.53 378.34 462.81 371.98 456.98 C 365.38 451.15 365.27 439.64 371.73 433.67 Z" />
<path fill="#241f21" opacity="1.00" d=" M 404.15 433.18 C 409.98 428.23 419.68 427.65 425.10 433.56 C 425.09 432.68 425.06 430.94 425.05 430.06 C 427.36 430.06 429.67 430.06 431.99 430.07 C 431.99 440.21 431.99 450.35 431.99 460.50 C 429.69 460.50 427.40 460.50 425.11 460.52 C 425.06 459.36 425.01 458.20 424.97 457.06 C 418.24 464.36 405.37 461.49 400.65 453.33 C 396.54 446.96 398.22 437.83 404.15 433.18 M 412.27 437.22 C 406.16 439.15 404.04 447.84 408.81 452.21 C 413.64 457.44 423.66 455.04 425.18 447.95 C 427.24 440.77 418.86 434.29 412.27 437.22 Z" />
<path fill="#241f21" opacity="1.00" d=" M 447.94 433.54 C 451.02 429.38 456.51 428.42 461.26 429.85 C 460.56 431.97 459.86 434.09 459.15 436.21 C 456.39 435.79 453.23 434.98 450.76 436.73 C 448.52 438.34 448.10 441.33 448.09 443.90 C 448.04 449.47 448.12 455.05 448.08 460.63 C 445.77 460.63 443.46 460.63 441.15 460.64 C 441.14 450.45 441.15 440.26 441.15 430.07 C 443.44 430.06 445.74 430.06 448.04 430.07 C 448.01 430.93 447.96 432.67 447.94 433.54 Z" />
<path fill="#241f21" opacity="1.00" d=" M 311.43 433.49 C 317.86 427.55 329.54 427.85 334.73 435.27 C 337.43 438.88 337.77 443.53 337.78 447.89 C 329.78 447.94 321.79 447.85 313.79 447.93 C 314.66 450.50 315.96 453.17 318.57 454.38 C 323.25 456.63 328.74 454.92 332.90 452.28 C 334.00 453.91 335.10 455.54 336.20 457.18 C 328.49 462.93 316.11 463.03 309.69 455.28 C 304.19 449.11 305.06 438.73 311.43 433.49 M 313.63 442.64 C 319.34 442.68 325.05 442.70 330.76 442.62 C 330.12 438.75 327.10 435.28 322.98 435.25 C 318.40 434.64 314.37 438.24 313.63 442.64 Z" />
</g>
</svg>
