<?xml version="1.0" encoding="utf-8"?>
<!-- Generator: Adobe Illustrator 25.0.0, SVG Export Plug-In . SVG Version: 6.00 Build 0)  -->
<svg version="1.2" baseProfile="tiny" id="Слой_1"
	 xmlns="http://www.w3.org/2000/svg" xmlns:xlink="http://www.w3.org/1999/xlink" x="0px" y="0px" viewBox="0 0 640 640"
	 overflow="visible" xml:space="preserve">
<g id="_x23_eb001bff">
	<path fill="#EB001B" d="M219.9,164c34.9-8.8,73.6-0.6,101.8,21.8c-13.6,11.3-25.3,24.9-33,40.9c-12.8,25.6-15.7,56-8,83.6
		c6.5,24.4,21.5,46,41,61.8c-18.5,14.4-41.3,23.3-64.8,24.9c-29.9,2.3-60.4-7.3-83.6-26.2c-21.6-17.4-36.8-42.5-41.8-69.8
		c-5.4-28.1-0.1-58.2,14.7-82.7C162.3,191.3,189.4,171.3,219.9,164z"/>
</g>
<g id="_x23_f79f1bff">
	<path fill="#F79F1B" d="M322.1,185.7c23.5-18.5,54.1-27.5,83.9-24.8c23.6,2,46.5,11.3,64.8,26.3c19.6,15.9,33.9,38.2,40,62.7
		c8.7,33.6,1.4,70.8-19.2,98.6c-20,27.6-52.5,45.7-86.5,48.3c-29.5,2.5-59.9-6.5-83.1-24.9c19-14.8,33.2-35.7,40.3-58.7
		c6.1-19.5,6.7-40.6,2.1-60.6c-5-22-16.5-42.5-32.7-58.2C328.6,191.4,325.3,188.6,322.1,185.7z"/>
</g>
<g id="_x23_fe5f00ff">
	<path fill="#FE5F00" d="M321.7,185.7l0.2-0.2l0.2,0.2c3.2,2.9,6.5,5.7,9.6,8.7c16.2,15.7,27.7,36.2,32.7,58.2
		c4.5,19.9,3.9,41-2.1,60.6c-7,23-21.2,43.9-40.3,58.7l-0.2,0.1c-19.6-15.8-34.5-37.4-41-61.8c-7.7-27.6-4.9-58,8-83.6
		C296.4,210.7,308.1,197,321.7,185.7z"/>
</g>
<g id="_x23_241f21ff">
	<path fill="#FFFFFF" d="M489.6,417.8c2.2,0,4.4,0,6.7,0c0,14.2,0,28.5,0,42.7c-2.2,0-4.5,0-6.7,0c0-0.9,0.1-2.6,0.1-3.5
		c-7.1,7.6-20.7,4.3-25-4.6c-3.8-6.9-1.1-16.1,5.5-20.2c5.9-4,14.6-4,19.6,1.4C489.5,428.3,489.6,423,489.6,417.8 M476.3,437.4
		c-6,2.2-7.7,10.9-2.8,15.1c5.2,5.3,15.5,2,16.3-5.5C491,440,482.6,434.4,476.3,437.4z"/>
	<path fill="#FFFFFF" d="M282.5,420.8c2.3,0,4.7,0,7,0c0,3.1,0,6.2,0,9.3c3.8,0,7.6,0,11.4,0c0,2,0,4,0.1,6.1c-3.8,0-7.6,0-11.3,0
		c0.1,4.9-0.1,9.8,0.1,14.7c0,1.6,0.8,3.4,2.5,4c2.8,0.9,5.6-0.4,8.3-1.2c0.7,1.9,1.3,3.8,2,5.6c-4.6,2.3-10.1,3.2-14.8,1.1
		c-3.3-1.4-4.8-5.1-4.9-8.5c-0.2-5.2,0-10.5-0.1-15.7c-2.2,0-4.3,0-6.5,0c0-2,0-4,0-6.1c2.1,0,4.2,0,6.3,0
		C282.5,427,282.5,423.9,282.5,420.8z"/>
	<path fill="#FFFFFF" d="M153.5,433.6c5-6.2,15.5-5.6,20,0.9c4.3-5.7,13.1-7,19-3c3.1,2.1,4.9,5.8,4.8,9.5c0,6.5,0,13.1,0,19.6
		c-2.3,0.1-4.7,0.1-7,0.1c-0.1-5.6,0-11.2,0-16.8c0-2.6-0.5-5.8-2.9-7.3c-3.4-1.9-8.3-1.2-10.6,2.1c-1.4,1.8-1.3,4.1-1.3,6.3
		c0.1,5.2,0,10.5,0,15.7c-2.3,0-4.7,0-7,0c0-5.6,0.1-11.2,0-16.8c-0.1-2.4-0.4-5.2-2.4-6.9c-4.2-3.3-11.9-0.8-12.2,4.9
		c-0.2,6.2,0,12.4-0.1,18.7c-2.3,0-4.7,0-7,0c0-10.2,0-20.4,0-30.6c2.3,0,4.7,0,7,0C153.6,431,153.5,432.7,153.5,433.6z"/>
	<path fill="#FFFFFF" d="M208.4,433.3c5.8-5.1,15.6-5.7,21.1,0.3c0-0.9-0.1-2.6-0.1-3.5c2.3,0,4.6,0,7,0c0,10.1,0,20.3,0,30.4
		c-2.3,0-4.6,0-7,0c0-0.9,0.1-2.6,0.1-3.5c-6.9,7.3-19.9,4.5-24.6-3.9C201,446.8,202.6,437.9,208.4,433.3 M216.3,437.4
		c-6,2.2-7.9,11-2.9,15.2c5.2,5.1,15.5,1.9,16.3-5.5C230.9,440,222.6,434.4,216.3,437.4z"/>
	<path fill="#FFFFFF" d="M249,431.2c6.8-3.3,15-2.1,21.6,1.2c-1,1.8-2,3.6-3,5.3c-4.4-1.8-9.7-3.7-14.4-1.6c-2,0.8-2.6,4.1-0.2,4.8
		c5.1,1.8,11.2,0.8,15.7,4.4c4.3,3.6,3.1,11.1-1.7,13.6c-7.4,4.1-16.9,2.9-24-1.4c1.1-1.7,2.2-3.5,3.3-5.2c3.5,2.1,7.6,3.5,11.7,3.1
		c2.3-0.2,5.7-0.6,6.3-3.4c0.2-1.9-1.8-2.7-3.3-3c-4.9-1.2-10.6-0.8-14.5-4.5C242.5,440.7,244.2,433.4,249,431.2z"/>
	<path fill="#FFFFFF" d="M351.5,433.5c3.1-4.1,8.6-5.1,13.4-3.7c-0.7,2.1-1.4,4.2-2.1,6.4c-3.8-1.1-9.6-1-10.6,3.9
		c-1,6.8-0.2,13.7-0.5,20.6c-2.3,0-4.6,0-6.9,0c0-10.2,0-20.4,0-30.5c2.3,0,4.6,0,6.9,0C351.6,430.9,351.6,432.6,351.5,433.5z"/>
	<path fill="#FFFFFF" d="M371.7,433.7c6.3-6,16.9-5.9,23.8-1c-1.1,1.8-2.2,3.6-3.3,5.3c-4.1-2.5-9.7-3.9-13.8-0.6
		c-5.2,3.5-5.3,11.8-0.2,15.4c4.1,3.5,9.9,2.1,14.1-0.4c1.1,1.8,2.2,3.6,3.3,5.4c-6.9,4.7-17.2,5-23.6-0.8
		C365.4,451.1,365.3,439.6,371.7,433.7z"/>
	<path fill="#FFFFFF" d="M404.1,433.2c5.8-4.9,15.5-5.5,21,0.4c0-0.9,0-2.6-0.1-3.5c2.3,0,4.6,0,6.9,0c0,10.1,0,20.3,0,30.4
		c-2.3,0-4.6,0-6.9,0c0-1.2-0.1-2.3-0.1-3.5c-6.7,7.3-19.6,4.4-24.3-3.7C396.5,447,398.2,437.8,404.1,433.2 M412.3,437.2
		c-6.1,1.9-8.2,10.6-3.5,15c4.8,5.2,14.9,2.8,16.4-4.3C427.2,440.8,418.9,434.3,412.3,437.2z"/>
	<path fill="#FFFFFF" d="M447.9,433.5c3.1-4.2,8.6-5.1,13.3-3.7c-0.7,2.1-1.4,4.2-2.1,6.4c-2.8-0.4-5.9-1.2-8.4,0.5
		c-2.2,1.6-2.7,4.6-2.7,7.2c0,5.6,0,11.1,0,16.7c-2.3,0-4.6,0-6.9,0c0-10.2,0-20.4,0-30.6c2.3,0,4.6,0,6.9,0
		C448,430.9,448,432.7,447.9,433.5z"/>
	<path fill="#FFFFFF" d="M311.4,433.5c6.4-5.9,18.1-5.6,23.3,1.8c2.7,3.6,3,8.3,3,12.6c-8,0-16,0-24,0c0.9,2.6,2.2,5.2,4.8,6.5
		c4.7,2.2,10.2,0.5,14.3-2.1c1.1,1.6,2.2,3.3,3.3,4.9c-7.7,5.8-20.1,5.9-26.5-1.9C304.2,449.1,305.1,438.7,311.4,433.5 M313.6,442.6
		c5.7,0,11.4,0.1,17.1,0c-0.6-3.9-3.7-7.3-7.8-7.4C318.4,434.6,314.4,438.2,313.6,442.6z"/>
</g>
</svg>
