<?xml version="1.0" encoding="utf-8"?>
<!-- Generator: Adobe Illustrator 25.0.0, SVG Export Plug-In . SVG Version: 6.00 Build 0)  -->
<svg version="1.2" baseProfile="tiny" id="Слой_1"
	 xmlns="http://www.w3.org/2000/svg" xmlns:xlink="http://www.w3.org/1999/xlink" x="0px" y="0px" viewBox="0 0 640 640"
	 overflow="visible" xml:space="preserve">
<g>
	<g id="_x23_36a82dff">
		<path fill="#36A82D" d="M102.2,262.2c14.3,0,28.5,0,42.8,0c5.6,0,10.9,2.9,14.3,7.3c2.1,2.7,2.9,6,3.9,9.2
			c5.1,16,10.2,31.9,15.3,47.8c0.9,3,1.8,6,3.4,8.6c0.9-1.2,1.8-2.4,2.2-3.9c6.1-19,12.2-38,18.3-57c2.3-7.3,9.9-12.3,17.4-12.1
			c14.1,0,28.2,0,42.2,0c0,40,0,80,0,120c-12.9,0-25.7,0-38.6,0c0-23.1,0-46.2,0-69.3c0.7-3-4.1-4.2-4.9-1.2
			c-7.7,23.5-15.1,47-22.7,70.5c-9.2,0-18.5,0-27.8,0c-7.5-23.4-14.9-46.8-22.5-70.1c-0.5-3.3-5.7-2.4-5,0.9
			c-0.1,23.1,0,46.2,0,69.2c-12.9,0-25.7,0-38.5,0C102.2,342.2,102.2,302.2,102.2,262.2z"/>
		<path fill="#36A82D" d="M275.5,262.3c13.2-0.2,26.5,0,39.7-0.1c0,22.9,0,45.9,0,68.8c-0.3,1.7,0.9,3.7,2.8,3.4
			c1.5,0.1,2.2-1.5,2.8-2.6c10.2-20.4,20.5-40.8,30.8-61.1c2.6-5.3,8.5-8.6,14.4-8.4c12.9,0,25.7-0.1,38.5,0.1
			c-0.1,40,0,80-0.1,119.9c-13.2,0-26.4,0-39.6,0c0-23.4,0-46.9,0-70.3c0.1-1.3-0.3-2.8-1.8-3.1c-1.9-0.6-2.8,1.4-3.5,2.8
			c-10.3,20.6-20.7,41.2-31.1,61.8c-2.5,5.5-8.5,8.9-14.4,8.9c-12.8,0-25.6,0-38.4,0C275.5,342.3,275.7,302.3,275.5,262.3z"/>
		<path fill="#36A82D" d="M417.8,315.6c41.5,0,83,0,124.5,0c-6.1,15.7-22.1,26.5-38.8,27.1c-15.5,0.2-30.9,0-46.4,0.1
			c0,13.2,0,26.3,0,39.5c-13.1,0-26.2,0-39.3,0C417.8,360,417.8,337.8,417.8,315.6z"/>
	</g>
	<g id="_x23_008bd3ff">
		<path fill="#008BD3" d="M413.2,262.3c29.9-0.1,59.9,0,89.8,0c14.6-0.1,29.5,6.6,37.8,18.8c5.1,7.4,6.9,16.8,5.1,25.6
			c-22.6,0-45.3,0-68,0c-20.7,0.2-42.8-7-56.1-23.6C417.2,277.1,414.1,269.8,413.2,262.3z"/>
	</g>
</g>
</svg>
