<?xml version="1.0" encoding="UTF-8" ?>
<!DOCTYPE svg PUBLIC "-//W3C//DTD SVG 1.1//EN" "http://www.w3.org/Graphics/SVG/1.1/DTD/svg11.dtd">
<svg width="748pt" height="748pt" viewBox="0 0 748 748" version="1.1" xmlns="http://www.w3.org/2000/svg">
<g id="#1528a1ff">
<path fill="#1528a1" opacity="1.00" d=" M 344.51 1.83 C 354.99 0.89 365.51 0.87 376.02 0.90 C 467.57 0.46 558.39 36.41 625.71 98.30 C 678.51 146.39 717.13 209.91 735.12 279.06 C 741.63 303.87 745.51 329.35 746.83 354.97 C 747.57 378.50 747.22 402.14 743.76 425.46 C 733.65 500.43 699.67 571.83 648.25 627.26 C 600.86 678.70 538.78 716.50 471.18 734.53 C 445.69 741.42 419.46 745.47 393.09 746.83 C 369.32 747.56 345.43 747.24 321.88 743.65 C 243.41 732.95 168.93 696.01 112.56 640.44 C 54.24 583.52 15.36 507.01 4.34 426.23 C 1.19 405.32 0.54 384.15 0.94 363.04 C 2.79 281.68 32.84 201.41 84.36 138.46 C 121.80 92.45 170.28 55.44 224.70 31.78 C 262.58 15.16 303.29 5.09 344.51 1.83 M 174.75 267.36 C 170.16 294.03 165.32 320.65 160.68 347.31 C 167.54 347.36 174.40 347.31 181.26 347.32 C 184.90 322.98 188.02 298.55 191.96 274.27 C 195.68 298.59 198.83 322.99 202.34 347.35 C 209.18 347.28 216.03 347.32 222.87 347.33 C 218.17 320.65 213.51 293.97 208.74 267.31 C 197.41 267.35 186.08 267.27 174.75 267.36 M 242.46 267.36 C 241.86 294.01 241.28 320.66 240.68 347.31 C 247.33 347.36 253.99 347.29 260.64 347.35 C 260.93 323.13 260.76 298.90 261.26 274.69 C 266.22 298.81 270.39 323.11 274.99 347.31 C 281.74 347.34 288.49 347.30 295.24 347.33 C 299.88 323.17 303.94 298.88 308.91 274.79 C 309.32 298.97 309.28 323.15 309.54 347.33 C 316.21 347.33 322.88 347.32 329.55 347.33 C 328.91 320.66 328.40 293.98 327.75 267.31 C 316.91 267.33 306.08 267.36 295.24 267.30 C 291.77 287.87 288.69 308.51 285.10 329.05 C 281.50 308.53 278.44 287.91 275.06 267.35 C 264.20 267.29 253.33 267.27 242.46 267.36 M 436.23 267.31 C 436.23 285.89 436.23 304.47 436.23 323.05 C 436.26 327.80 436.55 332.79 438.99 337.00 C 441.87 342.21 447.49 345.29 453.19 346.38 C 460.58 347.69 468.35 347.72 475.60 345.57 C 481.00 343.97 485.77 340.02 487.82 334.71 C 489.82 329.40 489.49 323.60 489.56 318.02 C 489.56 301.13 489.51 284.24 489.58 267.35 C 483.16 267.29 476.74 267.30 470.31 267.34 C 470.26 286.58 470.29 305.81 470.30 325.05 C 470.35 327.71 469.68 330.84 467.13 332.20 C 462.78 335.08 455.55 332.54 455.50 326.87 C 455.32 307.04 455.49 287.19 455.42 267.35 C 449.02 267.31 442.63 267.35 436.23 267.31 M 516.23 267.31 C 516.22 293.98 516.25 320.65 516.22 347.33 C 522.27 347.33 528.32 347.34 534.37 347.33 C 534.14 325.25 533.54 303.17 533.47 281.09 C 540.05 303.05 545.82 325.26 552.08 347.32 C 560.86 347.33 569.65 347.31 578.43 347.32 C 578.46 320.66 578.48 293.99 578.42 267.33 C 572.31 267.31 566.21 267.33 560.10 267.31 C 560.35 288.70 560.93 310.08 561.02 331.47 C 555.00 310.15 549.51 288.69 543.66 267.33 C 534.51 267.32 525.37 267.35 516.23 267.31 M 100.80 278.89 C 98.08 285.74 97.95 294.35 102.54 300.45 C 108.67 308.13 118.32 311.46 126.27 316.81 C 130.11 319.12 134.24 323.03 133.01 327.99 C 132.61 335.26 120.85 336.05 118.64 329.57 C 117.92 326.40 118.29 323.11 118.20 319.89 C 111.62 319.86 105.03 319.88 98.44 319.86 C 98.29 326.66 98.23 334.38 103.20 339.69 C 110.14 347.24 121.43 347.83 130.98 346.97 C 139.15 346.33 148.16 342.11 150.54 333.62 C 152.27 326.01 153.05 316.71 147.38 310.49 C 140.34 302.64 129.86 299.47 121.49 293.41 C 118.79 291.58 117.11 288.30 118.03 285.04 C 118.79 279.08 128.25 278.25 130.78 283.30 C 131.97 285.82 131.47 288.69 131.57 291.38 C 137.71 291.40 143.84 291.38 149.98 291.40 C 150.09 285.48 150.22 278.75 145.88 274.12 C 139.87 267.71 130.32 267.13 122.09 267.43 C 113.84 267.71 104.44 270.80 100.80 278.89 M 359.34 277.41 C 355.26 285.30 355.55 296.27 362.27 302.66 C 369.54 309.91 379.79 312.98 387.59 319.53 C 390.35 321.72 391.62 325.43 390.60 328.85 C 389.41 335.38 378.62 335.59 376.46 329.66 C 375.68 326.46 376.05 323.12 375.97 319.85 C 369.39 319.87 362.81 319.82 356.23 319.89 C 356.10 326.10 355.94 332.91 359.77 338.19 C 364.54 344.90 373.26 347.05 381.07 347.25 C 389.18 347.48 398.31 346.43 404.33 340.39 C 410.22 334.04 410.31 324.34 408.57 316.36 C 404.80 306.46 394.15 302.38 385.70 297.40 C 381.35 294.86 375.08 292.04 375.62 286.00 C 375.67 279.90 384.18 278.03 387.84 282.16 C 390.01 284.72 389.20 288.32 389.38 291.41 C 395.50 291.40 401.62 291.39 407.74 291.40 C 407.86 285.54 407.98 278.93 403.79 274.29 C 398.14 268.01 388.95 267.22 381.02 267.39 C 372.97 267.62 363.59 269.83 359.34 277.41 M 604.76 271.79 C 599.13 275.36 596.54 282.15 596.37 288.60 C 596.03 300.40 596.27 312.20 596.23 324.00 C 596.20 330.28 597.62 337.23 602.82 341.31 C 610.86 347.84 622.21 348.12 631.97 346.37 C 639.95 345.09 647.61 339.29 648.92 330.97 C 650.16 321.66 649.35 312.23 649.55 302.87 C 640.71 302.86 631.86 302.90 623.02 302.88 C 622.93 306.60 622.95 310.32 623.03 314.04 C 625.57 314.04 628.11 314.05 630.66 314.05 C 630.45 319.08 631.13 324.20 630.16 329.17 C 627.97 334.98 618.14 335.18 615.60 329.56 C 614.88 327.81 614.96 325.87 614.92 324.01 C 614.97 312.68 614.92 301.34 614.94 290.00 C 614.86 287.12 615.61 283.93 618.13 282.21 C 621.43 280.34 626.00 280.66 628.75 283.39 C 631.04 286.32 630.35 290.31 630.50 293.77 C 636.80 293.71 643.10 293.71 649.40 293.75 C 649.41 288.22 649.47 282.28 646.52 277.39 C 642.91 271.26 635.72 268.39 628.93 267.73 C 620.78 266.92 611.85 267.22 604.76 271.79 M 244.19 403.40 C 244.25 400.24 244.25 397.10 244.24 393.95 C 237.12 393.94 230.00 393.96 222.88 393.94 C 222.90 437.67 222.86 481.39 222.90 525.11 C 229.89 525.12 236.88 525.14 243.88 525.10 C 243.95 510.02 243.94 494.94 243.89 479.87 C 249.98 487.25 259.76 490.45 269.03 491.11 C 280.80 492.11 292.86 488.34 302.00 480.86 C 315.54 470.18 322.55 452.06 320.21 435.02 C 318.77 422.70 312.25 411.23 302.86 403.21 C 294.14 395.64 282.56 391.59 271.03 391.82 C 261.08 391.86 250.40 395.17 244.19 403.40 M 329.94 435.06 C 328.08 450.53 334.03 466.86 345.77 477.19 C 355.94 486.54 370.28 491.03 383.97 489.13 C 392.27 488.03 401.05 484.95 406.35 478.13 C 406.25 481.34 406.29 484.57 406.31 487.79 C 413.31 487.82 420.32 487.82 427.33 487.78 C 427.30 456.50 427.33 425.21 427.32 393.93 C 420.22 393.80 413.13 393.89 406.04 393.86 C 405.98 396.98 405.95 400.10 406.02 403.23 C 398.44 393.28 384.70 390.82 372.93 392.14 C 350.99 394.18 332.02 413.12 329.94 435.06 M 436.23 391.80 C 449.50 422.22 462.80 452.64 476.00 483.10 C 470.19 497.09 464.45 511.11 458.63 525.10 C 465.74 525.17 472.84 525.14 479.95 525.13 C 497.89 480.66 515.99 436.26 533.98 391.81 C 527.23 391.80 520.49 391.76 513.75 391.80 C 512.01 391.27 511.78 393.23 511.26 394.30 C 502.91 416.27 494.59 438.25 486.16 460.19 C 476.65 437.42 467.37 414.55 457.83 391.79 C 450.63 391.83 443.43 391.81 436.23 391.80 Z" />
<path fill="#1528a1" opacity="1.00" d=" M 265.50 410.77 C 272.57 409.69 280.13 410.82 286.18 414.77 C 293.69 419.57 298.05 428.21 298.93 436.92 C 300.22 446.69 297.75 457.44 290.48 464.44 C 281.38 473.78 265.63 475.09 254.75 468.20 C 247.61 463.59 243.90 455.21 243.07 446.98 C 242.06 438.23 243.08 428.78 248.22 421.38 C 252.21 415.67 258.65 411.84 265.50 410.77 Z" />
<path fill="#1528a1" opacity="1.00" d=" M 375.32 410.32 C 383.61 409.28 392.65 411.25 398.78 417.19 C 405.78 423.67 408.01 433.76 407.43 442.97 C 407.14 452.03 403.56 461.63 395.68 466.73 C 384.38 473.94 367.89 472.31 358.80 462.21 C 350.15 453.05 349.14 438.79 353.44 427.39 C 356.90 418.25 365.60 411.44 375.32 410.32 Z" />
</g>
<g id="#fefffeff">
<path fill="#fefffe" opacity="1.00" d=" M 174.75 267.36 C 186.08 267.27 197.41 267.35 208.74 267.31 C 213.51 293.97 218.17 320.65 222.87 347.33 C 216.03 347.32 209.18 347.28 202.34 347.35 C 198.83 322.99 195.68 298.59 191.96 274.27 C 188.02 298.55 184.90 322.98 181.26 347.32 C 174.40 347.31 167.54 347.36 160.68 347.31 C 165.32 320.65 170.16 294.03 174.75 267.36 Z" />
<path fill="#fefffe" opacity="1.00" d=" M 242.46 267.36 C 253.33 267.27 264.20 267.29 275.06 267.35 C 278.44 287.91 281.50 308.53 285.10 329.05 C 288.69 308.51 291.77 287.87 295.24 267.30 C 306.08 267.36 316.91 267.33 327.75 267.31 C 328.40 293.98 328.91 320.66 329.55 347.33 C 322.88 347.32 316.21 347.33 309.54 347.33 C 309.28 323.15 309.32 298.97 308.91 274.79 C 303.94 298.88 299.88 323.17 295.24 347.33 C 288.49 347.30 281.74 347.34 274.99 347.31 C 270.39 323.11 266.22 298.81 261.26 274.69 C 260.76 298.90 260.93 323.13 260.64 347.35 C 253.99 347.29 247.33 347.36 240.68 347.31 C 241.28 320.66 241.86 294.01 242.46 267.36 Z" />
<path fill="#fefffe" opacity="1.00" d=" M 436.23 267.31 C 442.63 267.35 449.02 267.31 455.42 267.35 C 455.49 287.19 455.32 307.04 455.50 326.87 C 455.55 332.54 462.78 335.08 467.13 332.20 C 469.68 330.84 470.35 327.71 470.30 325.05 C 470.29 305.81 470.26 286.58 470.31 267.34 C 476.74 267.30 483.16 267.29 489.58 267.35 C 489.51 284.24 489.56 301.13 489.56 318.02 C 489.49 323.60 489.82 329.40 487.82 334.71 C 485.77 340.02 481.00 343.97 475.60 345.57 C 468.35 347.72 460.58 347.69 453.19 346.38 C 447.49 345.29 441.87 342.21 438.99 337.00 C 436.55 332.79 436.26 327.80 436.23 323.05 C 436.23 304.47 436.23 285.89 436.23 267.31 Z" />
<path fill="#fefffe" opacity="1.00" d=" M 516.23 267.31 C 525.37 267.35 534.51 267.32 543.66 267.33 C 549.51 288.69 555.00 310.15 561.02 331.47 C 560.93 310.08 560.35 288.70 560.10 267.31 C 566.21 267.33 572.31 267.31 578.42 267.33 C 578.48 293.99 578.46 320.66 578.43 347.32 C 569.65 347.31 560.86 347.33 552.08 347.32 C 545.82 325.26 540.05 303.05 533.47 281.09 C 533.54 303.17 534.14 325.25 534.37 347.33 C 528.32 347.34 522.27 347.33 516.22 347.33 C 516.25 320.65 516.22 293.98 516.23 267.31 Z" />
<path fill="#fefffe" opacity="1.00" d=" M 100.80 278.89 C 104.44 270.80 113.84 267.71 122.09 267.43 C 130.32 267.13 139.87 267.71 145.88 274.12 C 150.22 278.75 150.09 285.48 149.98 291.40 C 143.84 291.38 137.71 291.40 131.57 291.38 C 131.47 288.69 131.97 285.82 130.78 283.30 C 128.25 278.25 118.79 279.08 118.03 285.04 C 117.11 288.30 118.79 291.58 121.49 293.41 C 129.86 299.47 140.34 302.64 147.38 310.49 C 153.05 316.71 152.27 326.01 150.54 333.62 C 148.16 342.11 139.15 346.33 130.98 346.97 C 121.43 347.83 110.14 347.24 103.20 339.69 C 98.23 334.38 98.29 326.66 98.44 319.86 C 105.03 319.88 111.62 319.86 118.20 319.89 C 118.29 323.11 117.92 326.40 118.64 329.57 C 120.85 336.05 132.61 335.26 133.01 327.99 C 134.24 323.03 130.11 319.12 126.27 316.81 C 118.32 311.46 108.67 308.13 102.54 300.45 C 97.95 294.35 98.08 285.74 100.80 278.89 Z" />
<path fill="#fefffe" opacity="1.00" d=" M 359.34 277.41 C 363.59 269.83 372.97 267.62 381.02 267.39 C 388.95 267.22 398.14 268.01 403.79 274.29 C 407.98 278.93 407.86 285.54 407.74 291.40 C 401.62 291.39 395.50 291.40 389.38 291.41 C 389.20 288.32 390.01 284.72 387.84 282.16 C 384.18 278.03 375.67 279.90 375.62 286.00 C 375.08 292.04 381.35 294.86 385.70 297.40 C 394.15 302.38 404.80 306.46 408.57 316.36 C 410.31 324.34 410.22 334.04 404.33 340.39 C 398.31 346.43 389.18 347.48 381.07 347.25 C 373.26 347.05 364.54 344.90 359.77 338.19 C 355.94 332.91 356.10 326.10 356.23 319.89 C 362.81 319.82 369.39 319.87 375.97 319.85 C 376.05 323.12 375.68 326.46 376.46 329.66 C 378.62 335.59 389.41 335.38 390.60 328.85 C 391.62 325.43 390.35 321.72 387.59 319.53 C 379.79 312.98 369.54 309.91 362.27 302.66 C 355.55 296.27 355.26 285.30 359.34 277.41 Z" />
<path fill="#fefffe" opacity="1.00" d=" M 604.76 271.79 C 611.85 267.22 620.78 266.92 628.93 267.73 C 635.72 268.39 642.91 271.26 646.52 277.39 C 649.47 282.28 649.41 288.22 649.40 293.75 C 643.10 293.71 636.80 293.71 630.50 293.77 C 630.35 290.31 631.04 286.32 628.75 283.39 C 626.00 280.66 621.43 280.34 618.13 282.21 C 615.61 283.93 614.86 287.12 614.94 290.00 C 614.92 301.34 614.97 312.68 614.92 324.01 C 614.96 325.87 614.88 327.81 615.60 329.56 C 618.14 335.18 627.97 334.98 630.16 329.17 C 631.13 324.20 630.45 319.08 630.66 314.05 C 628.11 314.05 625.57 314.04 623.03 314.04 C 622.95 310.32 622.93 306.60 623.02 302.88 C 631.86 302.90 640.71 302.86 649.55 302.87 C 649.35 312.23 650.16 321.66 648.92 330.97 C 647.61 339.29 639.95 345.09 631.97 346.37 C 622.21 348.12 610.86 347.84 602.82 341.31 C 597.62 337.23 596.20 330.28 596.23 324.00 C 596.27 312.20 596.03 300.40 596.37 288.60 C 596.54 282.15 599.13 275.36 604.76 271.79 Z" />
<path fill="#fefffe" opacity="1.00" d=" M 244.19 403.40 C 250.40 395.17 261.08 391.86 271.03 391.82 C 282.56 391.59 294.14 395.64 302.86 403.21 C 312.25 411.23 318.77 422.70 320.21 435.02 C 322.55 452.06 315.54 470.18 302.00 480.86 C 292.86 488.34 280.80 492.11 269.03 491.11 C 259.76 490.45 249.98 487.25 243.89 479.87 C 243.94 494.94 243.95 510.02 243.88 525.10 C 236.88 525.14 229.89 525.12 222.90 525.11 C 222.86 481.39 222.90 437.67 222.88 393.94 C 230.00 393.96 237.12 393.94 244.24 393.95 C 244.25 397.10 244.25 400.24 244.19 403.40 M 265.50 410.77 C 258.65 411.84 252.21 415.67 248.22 421.38 C 243.08 428.78 242.06 438.23 243.07 446.98 C 243.90 455.21 247.61 463.59 254.75 468.20 C 265.63 475.09 281.38 473.78 290.48 464.44 C 297.75 457.44 300.22 446.69 298.93 436.92 C 298.05 428.21 293.69 419.57 286.18 414.77 C 280.13 410.82 272.57 409.69 265.50 410.77 Z" />
<path fill="#fefffe" opacity="1.00" d=" M 329.94 435.06 C 332.02 413.12 350.99 394.18 372.93 392.14 C 384.70 390.82 398.44 393.28 406.02 403.23 C 405.95 400.10 405.98 396.98 406.04 393.86 C 413.13 393.89 420.22 393.80 427.32 393.93 C 427.33 425.21 427.30 456.50 427.33 487.78 C 420.32 487.82 413.31 487.82 406.31 487.79 C 406.29 484.57 406.25 481.34 406.35 478.13 C 401.05 484.95 392.27 488.03 383.97 489.13 C 370.28 491.03 355.94 486.54 345.77 477.19 C 334.03 466.86 328.08 450.53 329.94 435.06 M 375.32 410.32 C 365.60 411.44 356.90 418.25 353.44 427.39 C 349.14 438.79 350.15 453.05 358.80 462.21 C 367.89 472.31 384.38 473.94 395.68 466.73 C 403.56 461.63 407.14 452.03 407.43 442.97 C 408.01 433.76 405.78 423.67 398.78 417.19 C 392.65 411.25 383.61 409.28 375.32 410.32 Z" />
<path fill="#fefffe" opacity="1.00" d=" M 436.23 391.80 C 443.43 391.81 450.63 391.83 457.83 391.79 C 467.37 414.55 476.65 437.42 486.16 460.19 C 494.59 438.25 502.91 416.27 511.26 394.30 C 511.78 393.23 512.01 391.27 513.75 391.80 C 520.49 391.76 527.23 391.80 533.98 391.81 C 515.99 436.26 497.89 480.66 479.95 525.13 C 472.84 525.14 465.74 525.17 458.63 525.10 C 464.45 511.11 470.19 497.09 476.00 483.10 C 462.80 452.64 449.50 422.22 436.23 391.80 Z" />
</g>
</svg>
