<svg xmlns="http://www.w3.org/2000/svg" width="24.03" height="24" viewBox="0 0 24.03 24">
  <defs>
    <style>
      .cls-1 {
        fill: #ec5f2e;
        fill-rule: evenodd;
      }
    </style>
  </defs>
  <path id="telegram" class="cls-1" d="M1337.85,4214.6a2.047,2.047,0,0,0-2.1-.51l-19.9,6.46a2.062,2.062,0,0,0-.42,3.73,0.8,0.8,0,0,0,.16.08l5.96,2.15v6.43a2.028,2.028,0,0,0,3.53,1.35h0l2.06-2.31,3.46,5.05a2.061,2.061,0,0,0,3.72-.45,0.381,0.381,0,0,0,.03-0.1l0.63-3.12a0.936,0.936,0,0,0-.73-1.11,0.95,0.95,0,0,0-1.11.74l-0.61,3.04a0.182,0.182,0,0,1-.15.1,0.168,0.168,0,0,1-.18-0.09c-0.01-.02-0.02-0.03-0.03-0.05l-3.84-5.59,5.51-10.2a0.944,0.944,0,0,0-.18-1.11,0.923,0.923,0,0,0-1.12-.14l-10.15,5.87-6.04-2.18a0.165,0.165,0,0,1-.05-0.15,0.181,0.181,0,0,1,.13-0.16l19.9-6.45a0.168,0.168,0,0,1,.19.04,0.2,0.2,0,0,1,.05.19,0.451,0.451,0,0,0-.03.11l-2.47,12.2a0.931,0.931,0,0,0,.73,1.11,0.95,0.95,0,0,0,1.11-.74l2.46-12.15a2.071,2.071,0,0,0-.52-2.04h0Zm-7.24,7.63-4.17,7.72-2.75,3.08a0.123,0.123,0,0,1-.16.04,0.131,0.131,0,0,1-.1-0.14v-6.54Z" transform="translate(-1314.44 -4214)"/>
</svg>
