<?xml version="1.0" encoding="utf-8"?>
<!-- Generator: Adobe Illustrator 25.0.0, SVG Export Plug-In . SVG Version: 6.00 Build 0)  -->
<svg version="1.2" baseProfile="tiny" id="Слой_1"
	 xmlns="http://www.w3.org/2000/svg" xmlns:xlink="http://www.w3.org/1999/xlink" x="0px" y="0px" viewBox="0 0 640 640"
	 overflow="visible" xml:space="preserve">
<g id="_x23_00569fff">
	<path fill="#00569F" d="M357.5,246.7c18.5-3.9,38.1-2.7,55.8,3.8c-1.8,10.2-3.5,20.4-5.2,30.6c-12.4-5.9-26.5-8.3-40.1-6.3
		c-5.5,1-11.8,3.5-13.9,9.2c-1.5,4,1.2,8.1,4.4,10.4c7.3,5.5,15.9,8.7,23.9,13c8.6,4.7,16.9,10.8,21.6,19.5
		c5.5,10.1,4.5,22.7,0.1,33c-5.4,12.5-17.1,21.1-29.7,25.6c-18.9,6.8-39.7,6.5-59.3,2.9c-5.9-1.2-11.9-2.6-17.4-5.1
		c1.9-10.5,3.6-21.1,5.4-31.7c9.5,4.2,19.3,8.2,29.8,9.2c9,0.8,18.7,1.4,27.1-2.8c4.2-2,7.8-6.2,7.5-11.1c-0.2-4.8-4.2-8.2-7.9-10.6
		c-8.1-5.2-17.3-8.3-25.3-13.6c-8.6-5.5-16.8-13.1-19.5-23.3c-2.7-11.2,0.4-23.4,7.4-32.4C330.7,256,344.1,249.7,357.5,246.7z"/>
	<path fill="#00569F" d="M210.2,248.9c12.9-0.1,25.8,0,38.6,0c-16.1,39.9-32.2,79.8-48.3,119.7c-3.2,7.5-5.9,15.2-9.3,22.6
		c-12.8-0.1-25.6,0-38.5-0.1c-10.8-41-21.6-82-32.3-123c18.6,11,34.4,26.9,44.1,46.3c1.3,2.9,5.1,7.2,5.1,7.2
		c1.6,8.2,3.4,16.3,4.9,24.5C186.2,313.7,198.3,281.4,210.2,248.9z"/>
	<path fill="#00569F" d="M262.3,248.9c11.8,0,23.6,0,35.5,0c-7.3,47.4-14.8,94.7-22.1,142.1c-11.9,0.2-23.7,0-35.6,0.1
		C247.4,343.7,254.8,296.3,262.3,248.9z"/>
	<path fill="#00569F" d="M459.9,260.1c2.5-6.6,9.1-11,16.1-11.1c10.6-0.3,21.2-0.1,31.8-0.1c10,47.4,20,94.8,30,142.2
		c-11.5,0-23,0.1-34.4-0.1c-1.5-7.1-2.9-14.2-4.4-21.3c-15.9,0-31.8,0-47.7,0c-2.7,7.1-5.1,14.3-7.9,21.4c-13-0.1-25.9,0-38.8-0.1
		C422.9,347.4,441.4,303.8,459.9,260.1 M461.9,340.7c10.3,0,20.6,0,30.9,0c-3.7-17.9-7.4-35.7-11.2-53.6
		C475.4,305.1,468.5,322.9,461.9,340.7z"/>
</g>
<g id="_x23_fba71bff">
	<path fill="#FBA71B" d="M80,251.7c0.4-1,0-3.2,1.7-2.8c18.8,0,37.5,0,56.3,0c4.7,0,9.7,0.6,13.4,3.7c2.8,2.2,4,5.7,4.8,9
		c6.3,24.6,13.6,61.8,13.6,61.8s-4.1-6.1-5.4-9c-9.6-19.4-25.5-35.3-44.1-46.3C107.9,260.6,94.2,255.2,80,251.7z"/>
</g>
</svg>
